G75*
%MOIN*%
%OFA0B0*%
%FSLAX25Y25*%
%IPPOS*%
%LPD*%
%AMOC8*
5,1,8,0,0,1.08239X$1,22.5*
%
%ADD10OC8,0.06800*%
%ADD11R,0.20800X0.09800*%
%ADD12R,0.09800X0.20800*%
%ADD13C,0.06800*%
%ADD14C,0.04737*%
D10*
X0248506Y0165506D03*
X0276506Y0162506D03*
X0286506Y0162506D03*
X0286506Y0152506D03*
X0276506Y0152506D03*
X0276506Y0142506D03*
X0286506Y0142506D03*
X0286506Y0132506D03*
X0276506Y0132506D03*
X0276506Y0122506D03*
X0286506Y0122506D03*
X0286506Y0112506D03*
X0276506Y0112506D03*
X0276506Y0102506D03*
X0286506Y0102506D03*
X0286506Y0092506D03*
X0276506Y0092506D03*
X0276506Y0082506D03*
X0286506Y0082506D03*
X0286506Y0072506D03*
X0276506Y0072506D03*
X0276506Y0062506D03*
X0286506Y0062506D03*
X0286506Y0052506D03*
X0276506Y0052506D03*
X0276506Y0172506D03*
X0286506Y0172506D03*
D11*
X0048606Y0180906D03*
X0048606Y0146106D03*
D12*
X0188106Y0048606D03*
X0222906Y0048606D03*
D13*
X0056506Y0055506D02*
X0050506Y0055506D01*
X0050506Y0065506D02*
X0056506Y0065506D01*
X0056506Y0075506D02*
X0050506Y0075506D01*
D14*
X0043506Y0043506D03*
X0057506Y0045506D03*
X0064506Y0052506D03*
X0071506Y0045506D03*
X0087506Y0049506D03*
X0093506Y0049506D03*
X0094506Y0043506D03*
X0090506Y0054506D03*
X0087506Y0073506D03*
X0093506Y0073506D03*
X0090506Y0078506D03*
X0096506Y0078506D03*
X0084506Y0078506D03*
X0067506Y0093506D03*
X0089506Y0101506D03*
X0095506Y0101506D03*
X0101506Y0101506D03*
X0107506Y0101506D03*
X0122506Y0108506D03*
X0126506Y0111506D03*
X0122506Y0113506D03*
X0140006Y0118006D03*
X0144006Y0115006D03*
X0139506Y0125506D03*
X0139506Y0131506D03*
X0139006Y0139506D03*
X0130506Y0134506D03*
X0130506Y0130006D03*
X0121506Y0130506D03*
X0118506Y0139506D03*
X0108506Y0139506D03*
X0103506Y0136506D03*
X0098506Y0133506D03*
X0091506Y0127506D03*
X0087506Y0123506D03*
X0082506Y0120506D03*
X0080506Y0136506D03*
X0088506Y0145506D03*
X0082506Y0154506D03*
X0075506Y0154506D03*
X0069506Y0153506D03*
X0055506Y0146006D03*
X0049506Y0146006D03*
X0043506Y0146006D03*
X0043506Y0137506D03*
X0063506Y0139506D03*
X0043506Y0154506D03*
X0043506Y0172506D03*
X0043506Y0181006D03*
X0049506Y0181006D03*
X0055506Y0181006D03*
X0043506Y0193506D03*
X0079506Y0175506D03*
X0093506Y0193506D03*
X0103506Y0179506D03*
X0115506Y0173506D03*
X0128506Y0167506D03*
X0142506Y0153506D03*
X0151506Y0156506D03*
X0152506Y0165506D03*
X0172506Y0149506D03*
X0166506Y0145506D03*
X0173506Y0143506D03*
X0188506Y0136506D03*
X0194506Y0136506D03*
X0194506Y0126506D03*
X0188506Y0126506D03*
X0173506Y0118506D03*
X0166506Y0117506D03*
X0168506Y0111506D03*
X0164506Y0105506D03*
X0185506Y0104506D03*
X0197506Y0100506D03*
X0201506Y0096506D03*
X0200506Y0107506D03*
X0206506Y0113506D03*
X0215006Y0119006D03*
X0219506Y0113506D03*
X0231506Y0122006D03*
X0240506Y0113006D03*
X0259506Y0111506D03*
X0263506Y0108506D03*
X0241506Y0094506D03*
X0256506Y0088506D03*
X0256506Y0069506D03*
X0241506Y0058506D03*
X0243506Y0043506D03*
X0223006Y0043506D03*
X0223006Y0049506D03*
X0214506Y0043506D03*
X0223006Y0055506D03*
X0213506Y0068506D03*
X0219506Y0069506D03*
X0218506Y0075506D03*
X0228506Y0074506D03*
X0228506Y0079506D03*
X0228506Y0084506D03*
X0224506Y0090006D03*
X0224006Y0094506D03*
X0197506Y0084506D03*
X0177506Y0075506D03*
X0153506Y0085506D03*
X0146506Y0067506D03*
X0127506Y0080506D03*
X0143506Y0043506D03*
X0188006Y0043506D03*
X0188006Y0049506D03*
X0188006Y0055506D03*
X0196506Y0043506D03*
X0263506Y0050506D03*
X0293506Y0043506D03*
X0293506Y0093506D03*
X0263506Y0133006D03*
X0265506Y0138506D03*
X0258006Y0140006D03*
X0238506Y0135506D03*
X0236506Y0140506D03*
X0218506Y0137506D03*
X0214506Y0137506D03*
X0214506Y0133506D03*
X0214506Y0129506D03*
X0218506Y0129506D03*
X0218506Y0133506D03*
X0210506Y0133506D03*
X0210506Y0129506D03*
X0210506Y0137506D03*
X0232506Y0157506D03*
X0212506Y0172506D03*
X0220006Y0180006D03*
X0228006Y0176006D03*
X0243506Y0193506D03*
X0264506Y0182506D03*
X0258506Y0162506D03*
X0293506Y0142506D03*
X0293506Y0193506D03*
X0201006Y0173006D03*
X0189006Y0170006D03*
X0185506Y0158506D03*
X0150006Y0126006D03*
X0122506Y0149506D03*
X0109506Y0155506D03*
X0105506Y0153506D03*
X0098506Y0154506D03*
X0055506Y0115506D03*
X0043506Y0093506D03*
X0044506Y0061506D03*
X0143506Y0193506D03*
X0193506Y0193506D03*
M02*
