%
M48
M72
T01C0.01969
T02C0.04000
%
T01
X43506Y43506
X57506Y45506
X64506Y52506
X71506Y45506
X87506Y49506
X93506Y49506
X94506Y43506
X90506Y54506
X87506Y73506
X93506Y73506
X90506Y78506
X96506Y78506
X84506Y78506
X67506Y93506
X89506Y101506
X95506Y101506
X101506Y101506
X107506Y101506
X122506Y108506
X126506Y111506
X122506Y113506
X140006Y118006
X144006Y115006
X139506Y125506
X139506Y131506
X139006Y139506
X130506Y134506
X130506Y130006
X121506Y130506
X118506Y139506
X108506Y139506
X103506Y136506
X98506Y133506
X91506Y127506
X87506Y123506
X82506Y120506
X80506Y136506
X88506Y145506
X82506Y154506
X75506Y154506
X69506Y153506
X55506Y146006
X49506Y146006
X43506Y146006
X43506Y137506
X63506Y139506
X43506Y154506
X43506Y172506
X43506Y181006
X49506Y181006
X55506Y181006
X43506Y193506
X79506Y175506
X93506Y193506
X103506Y179506
X115506Y173506
X128506Y167506
X142506Y153506
X151506Y156506
X152506Y165506
X172506Y149506
X166506Y145506
X173506Y143506
X188506Y136506
X194506Y136506
X194506Y126506
X188506Y126506
X173506Y118506
X166506Y117506
X168506Y111506
X164506Y105506
X185506Y104506
X197506Y100506
X201506Y96506
X200506Y107506
X206506Y113506
X215006Y119006
X219506Y113506
X231506Y122006
X240506Y113006
X259506Y111506
X263506Y108506
X241506Y94506
X256506Y88506
X256506Y69506
X241506Y58506
X243506Y43506
X223006Y43506
X223006Y49506
X214506Y43506
X223006Y55506
X213506Y68506
X219506Y69506
X218506Y75506
X228506Y74506
X228506Y79506
X228506Y84506
X224506Y90006
X224006Y94506
X197506Y84506
X177506Y75506
X153506Y85506
X146506Y67506
X127506Y80506
X143506Y43506
X188006Y43506
X188006Y49506
X188006Y55506
X196506Y43506
X263506Y50506
X293506Y43506
X293506Y93506
X263506Y133006
X265506Y138506
X258006Y140006
X238506Y135506
X236506Y140506
X218506Y137506
X214506Y137506
X214506Y133506
X214506Y129506
X218506Y129506
X218506Y133506
X210506Y133506
X210506Y129506
X210506Y137506
X232506Y157506
X212506Y172506
X220006Y180006
X228006Y176006
X243506Y193506
X264506Y182506
X258506Y162506
X293506Y142506
X293506Y193506
X201006Y173006
X189006Y170006
X185506Y158506
X150006Y126006
X122506Y149506
X109506Y155506
X105506Y153506
X98506Y154506
X55506Y115506
X43506Y93506
X44506Y61506
X143506Y193506
X193506Y193506
T02
X248506Y165506
X276506Y162506
X286506Y162506
X286506Y152506
X276506Y152506
X276506Y142506
X286506Y142506
X286506Y132506
X276506Y132506
X276506Y122506
X286506Y122506
X286506Y112506
X276506Y112506
X276506Y102506
X286506Y102506
X286506Y92506
X276506Y92506
X276506Y82506
X286506Y82506
X286506Y72506
X276506Y72506
X276506Y62506
X286506Y62506
X286506Y52506
X276506Y52506
X276506Y172506
X286506Y172506
X53506Y75506
X53506Y65506
X53506Y55506
M30
