G75*
%MOIN*%
%OFA0B0*%
%FSLAX25Y25*%
%IPPOS*%
%LPD*%
%AMOC8*
5,1,8,0,0,1.08239X$1,22.5*
%
%ADD10C,0.01100*%
%ADD11R,0.04252X0.04134*%
%ADD12R,0.03937X0.04331*%
%ADD13R,0.03150X0.02362*%
%ADD14R,0.03150X0.01969*%
%ADD15R,0.04799X0.08799*%
%ADD16R,0.14173X0.08661*%
%ADD17OC8,0.06000*%
%ADD18R,0.04331X0.03937*%
%ADD19R,0.04134X0.04252*%
%ADD20R,0.03000X0.04500*%
%ADD21R,0.01083X0.03543*%
%ADD22R,0.01575X0.04724*%
%ADD23R,0.07402X0.06614*%
%ADD24R,0.05906X0.05118*%
%ADD25R,0.02362X0.03543*%
%ADD26R,0.03543X0.02362*%
%ADD27R,0.05118X0.05906*%
%ADD28R,0.06299X0.07087*%
%ADD29R,0.07087X0.06299*%
%ADD30C,0.00213*%
%ADD31C,0.00640*%
%ADD32R,0.20000X0.09000*%
%ADD33R,0.09000X0.20000*%
%ADD34C,0.06000*%
%ADD35C,0.01200*%
%ADD36C,0.03937*%
%ADD37C,0.01000*%
%ADD38C,0.02400*%
%ADD39C,0.01600*%
%ADD40C,0.03200*%
%ADD41C,0.08600*%
D10*
X0127056Y0175056D02*
X0127056Y0178059D01*
X0128558Y0179560D01*
X0130059Y0178059D01*
X0130059Y0175056D01*
X0130059Y0177308D02*
X0127056Y0177308D01*
X0132213Y0175807D02*
X0132963Y0175056D01*
X0134465Y0175056D01*
X0135215Y0175807D01*
X0135215Y0179560D01*
X0137369Y0179560D02*
X0139621Y0179560D01*
X0140372Y0178809D01*
X0140372Y0177308D01*
X0139621Y0176558D01*
X0137369Y0176558D01*
X0137369Y0175056D02*
X0137369Y0179560D01*
X0142525Y0178059D02*
X0142525Y0175807D01*
X0143276Y0175056D01*
X0144027Y0175807D01*
X0144777Y0175056D01*
X0145528Y0175807D01*
X0145528Y0178059D01*
X0147682Y0178059D02*
X0148433Y0177308D01*
X0149934Y0177308D01*
X0150684Y0176558D01*
X0150684Y0175807D01*
X0149934Y0175056D01*
X0148433Y0175056D01*
X0147682Y0175807D01*
X0147682Y0178059D02*
X0147682Y0178809D01*
X0148433Y0179560D01*
X0149934Y0179560D01*
X0150684Y0178809D01*
X0152838Y0178809D02*
X0152838Y0175807D01*
X0153589Y0175056D01*
X0155090Y0175056D01*
X0155841Y0175807D01*
X0155841Y0178809D02*
X0155090Y0179560D01*
X0153589Y0179560D01*
X0152838Y0178809D01*
X0152838Y0183456D02*
X0155090Y0183456D01*
X0155841Y0184207D01*
X0155841Y0187209D01*
X0155090Y0187960D01*
X0152838Y0187960D01*
X0152838Y0183456D01*
X0150684Y0183456D02*
X0150684Y0186459D01*
X0149183Y0187960D01*
X0147682Y0186459D01*
X0147682Y0183456D01*
X0147682Y0185708D02*
X0150684Y0185708D01*
X0157995Y0186459D02*
X0158745Y0185708D01*
X0160997Y0185708D01*
X0160997Y0184207D02*
X0160997Y0187209D01*
X0160247Y0187960D01*
X0158745Y0187960D01*
X0157995Y0187209D01*
X0157995Y0186459D01*
X0157995Y0184207D02*
X0158745Y0183456D01*
X0160247Y0183456D01*
X0160997Y0184207D01*
X0163151Y0183456D02*
X0166154Y0186459D01*
X0166154Y0187209D01*
X0165403Y0187960D01*
X0163902Y0187960D01*
X0163151Y0187209D01*
X0168307Y0187209D02*
X0169058Y0187960D01*
X0170559Y0187960D01*
X0171310Y0187209D01*
X0171310Y0186459D01*
X0170559Y0185708D01*
X0171310Y0184958D01*
X0171310Y0184207D01*
X0170559Y0183456D01*
X0169058Y0183456D01*
X0168307Y0184207D01*
X0169809Y0185708D02*
X0170559Y0185708D01*
X0173464Y0185708D02*
X0174965Y0186459D01*
X0175716Y0186459D01*
X0176466Y0185708D01*
X0176466Y0184207D01*
X0175716Y0183456D01*
X0174215Y0183456D01*
X0173464Y0184207D01*
X0173464Y0185708D02*
X0173464Y0187960D01*
X0176466Y0187960D01*
X0178620Y0185708D02*
X0181623Y0185708D01*
X0183777Y0185708D02*
X0186779Y0185708D01*
X0186029Y0183456D02*
X0186029Y0187960D01*
X0183777Y0185708D01*
X0188933Y0184207D02*
X0189684Y0183456D01*
X0191185Y0183456D01*
X0191936Y0184207D01*
X0191936Y0187209D01*
X0188933Y0184207D01*
X0188933Y0187209D01*
X0189684Y0187960D01*
X0191185Y0187960D01*
X0191936Y0187209D01*
X0181623Y0179560D02*
X0180122Y0178809D01*
X0178620Y0177308D01*
X0180872Y0177308D01*
X0181623Y0176558D01*
X0181623Y0175807D01*
X0180872Y0175056D01*
X0179371Y0175056D01*
X0178620Y0175807D01*
X0178620Y0177308D01*
X0176466Y0175056D02*
X0173464Y0175056D01*
X0174965Y0175056D02*
X0174965Y0179560D01*
X0173464Y0178059D01*
X0171310Y0178809D02*
X0171310Y0175807D01*
X0170559Y0175056D01*
X0169058Y0175056D01*
X0168307Y0175807D01*
X0171310Y0178809D01*
X0170559Y0179560D01*
X0169058Y0179560D01*
X0168307Y0178809D01*
X0168307Y0175807D01*
X0166154Y0175056D02*
X0163151Y0175056D01*
X0166154Y0178059D01*
X0166154Y0178809D01*
X0165403Y0179560D01*
X0163902Y0179560D01*
X0163151Y0178809D01*
X0163151Y0183456D02*
X0166154Y0183456D01*
X0140372Y0184207D02*
X0139621Y0183456D01*
X0138120Y0183456D01*
X0137369Y0184207D01*
X0137369Y0187209D01*
X0138120Y0187960D01*
X0139621Y0187960D01*
X0140372Y0187209D01*
X0135215Y0187209D02*
X0135215Y0184207D01*
X0134465Y0183456D01*
X0132213Y0183456D01*
X0132213Y0187960D01*
X0134465Y0187960D01*
X0135215Y0187209D01*
X0130059Y0186459D02*
X0130059Y0183456D01*
X0130059Y0185708D02*
X0127056Y0185708D01*
X0127056Y0186459D02*
X0127056Y0183456D01*
X0127056Y0186459D02*
X0128558Y0187960D01*
X0130059Y0186459D01*
X0132213Y0179560D02*
X0132213Y0175807D01*
D11*
X0137506Y0152951D03*
X0137506Y0146061D03*
X0179506Y0141951D03*
X0179506Y0135061D03*
X0179506Y0127951D03*
X0179506Y0121061D03*
X0199506Y0120951D03*
X0199506Y0114061D03*
X0219506Y0089951D03*
X0219506Y0083061D03*
X0107506Y0106061D03*
X0107506Y0112951D03*
X0091506Y0133061D03*
X0091506Y0139951D03*
X0070006Y0139951D03*
X0070006Y0133061D03*
X0081506Y0053951D03*
X0081506Y0047061D03*
X0099506Y0047061D03*
X0099506Y0053951D03*
X0213006Y0159061D03*
X0213006Y0165951D03*
X0206506Y0166061D03*
X0206506Y0172951D03*
X0195506Y0172951D03*
X0195506Y0166061D03*
D12*
X0173853Y0134506D03*
X0167160Y0134506D03*
X0167160Y0128506D03*
X0173853Y0128506D03*
X0154853Y0105506D03*
X0148160Y0105506D03*
X0125853Y0120506D03*
X0119160Y0120506D03*
X0113853Y0120506D03*
X0107160Y0120506D03*
X0101853Y0112506D03*
X0095160Y0112506D03*
X0089853Y0112506D03*
X0083160Y0112506D03*
X0083160Y0106506D03*
X0089853Y0106506D03*
X0095160Y0106506D03*
X0101853Y0106506D03*
X0115160Y0160506D03*
X0121853Y0160506D03*
X0127160Y0160506D03*
X0133853Y0160506D03*
X0140160Y0160506D03*
X0146853Y0160506D03*
X0108853Y0166506D03*
X0102160Y0166506D03*
X0095853Y0166506D03*
X0089160Y0166506D03*
X0082853Y0166506D03*
X0076160Y0166506D03*
X0069853Y0166506D03*
X0069853Y0160506D03*
X0063160Y0160506D03*
X0063160Y0166506D03*
X0102160Y0172506D03*
X0108853Y0172506D03*
X0205160Y0075506D03*
X0211853Y0075506D03*
D13*
X0245554Y0099487D03*
X0251459Y0099487D03*
X0251459Y0109526D03*
X0245554Y0109526D03*
X0245554Y0115487D03*
X0251459Y0115487D03*
X0251459Y0125526D03*
X0245554Y0125526D03*
X0245554Y0145487D03*
X0251459Y0145487D03*
X0251459Y0155526D03*
X0245554Y0155526D03*
D14*
X0245554Y0152081D03*
X0245554Y0148931D03*
X0251459Y0148931D03*
X0251459Y0152081D03*
X0251459Y0122081D03*
X0251459Y0118931D03*
X0245554Y0118931D03*
X0245554Y0122081D03*
X0245554Y0106081D03*
X0245554Y0102931D03*
X0251459Y0102931D03*
X0251459Y0106081D03*
D15*
X0099605Y0063306D03*
X0090506Y0063306D03*
X0081408Y0063306D03*
D16*
X0090506Y0087707D03*
D17*
X0248506Y0165506D03*
X0276506Y0162506D03*
X0276506Y0172506D03*
X0286506Y0172506D03*
X0286506Y0162506D03*
X0286506Y0152506D03*
X0286506Y0142506D03*
X0276506Y0142506D03*
X0276506Y0152506D03*
X0276506Y0132506D03*
X0286506Y0132506D03*
X0286506Y0122506D03*
X0286506Y0112506D03*
X0276506Y0112506D03*
X0276506Y0122506D03*
X0276506Y0102506D03*
X0276506Y0092506D03*
X0286506Y0092506D03*
X0286506Y0102506D03*
X0286506Y0082506D03*
X0286506Y0072506D03*
X0276506Y0072506D03*
X0276506Y0082506D03*
X0276506Y0062506D03*
X0286506Y0062506D03*
X0286506Y0052506D03*
X0276506Y0052506D03*
D18*
X0205506Y0063160D03*
X0205506Y0069853D03*
X0238006Y0159160D03*
X0232506Y0162160D03*
X0227006Y0162160D03*
X0227006Y0168853D03*
X0232506Y0168853D03*
X0238006Y0165853D03*
X0096506Y0172160D03*
X0088506Y0172160D03*
X0088506Y0178853D03*
X0096506Y0178853D03*
D19*
X0115061Y0166506D03*
X0121951Y0166506D03*
X0108951Y0160506D03*
X0102061Y0160506D03*
X0095951Y0160506D03*
X0089061Y0160506D03*
X0082951Y0160506D03*
X0076061Y0160506D03*
X0148061Y0151506D03*
X0154951Y0151506D03*
X0184561Y0142006D03*
X0191451Y0142006D03*
X0198061Y0152506D03*
X0204951Y0152506D03*
X0245061Y0140506D03*
X0251951Y0140506D03*
X0239951Y0075506D03*
X0233061Y0075506D03*
X0155951Y0114506D03*
X0149061Y0114506D03*
D20*
X0150006Y0121270D03*
X0155006Y0121270D03*
X0160006Y0121270D03*
X0145006Y0121270D03*
X0145006Y0141743D03*
X0150006Y0141743D03*
X0155006Y0141743D03*
X0160006Y0141743D03*
D21*
X0110396Y0144971D03*
X0108428Y0144971D03*
X0106459Y0144971D03*
X0104491Y0144971D03*
X0102522Y0144971D03*
X0100554Y0144971D03*
X0098585Y0144971D03*
X0096617Y0144971D03*
X0096617Y0128042D03*
X0098585Y0128042D03*
X0100554Y0128042D03*
X0102522Y0128042D03*
X0104491Y0128042D03*
X0106459Y0128042D03*
X0108428Y0128042D03*
X0110396Y0128042D03*
D22*
X0084345Y0128435D03*
X0081786Y0128435D03*
X0079227Y0128435D03*
X0076668Y0128435D03*
X0076668Y0144577D03*
X0079227Y0144577D03*
X0081786Y0144577D03*
X0084345Y0144577D03*
D23*
X0080506Y0136506D03*
D24*
X0114506Y0113246D03*
X0114506Y0105766D03*
X0130506Y0145766D03*
X0130506Y0153246D03*
X0249506Y0089199D03*
X0249506Y0082506D03*
X0249506Y0075813D03*
X0109506Y0060246D03*
X0109506Y0052766D03*
X0071506Y0052766D03*
X0071506Y0060246D03*
D25*
X0206766Y0082979D03*
X0210506Y0082979D03*
X0214246Y0082979D03*
X0214246Y0092034D03*
X0210506Y0092034D03*
X0206766Y0092034D03*
D26*
X0232979Y0089246D03*
X0232979Y0085506D03*
X0232979Y0081766D03*
X0242034Y0081766D03*
X0242034Y0085506D03*
X0242034Y0089246D03*
D27*
X0221199Y0102506D03*
X0214506Y0102506D03*
X0207813Y0102506D03*
D28*
X0244994Y0133006D03*
X0256018Y0133006D03*
X0206518Y0159506D03*
X0195494Y0159506D03*
X0191518Y0149506D03*
X0180494Y0149506D03*
D29*
X0220006Y0160494D03*
X0220006Y0171518D03*
X0192506Y0120018D03*
X0192506Y0108994D03*
D30*
X0208042Y0122983D02*
X0208042Y0125329D01*
X0208042Y0122983D02*
X0207192Y0122983D01*
X0207192Y0125329D01*
X0208042Y0125329D01*
X0208042Y0123195D02*
X0207192Y0123195D01*
X0207192Y0123407D02*
X0208042Y0123407D01*
X0208042Y0123619D02*
X0207192Y0123619D01*
X0207192Y0123831D02*
X0208042Y0123831D01*
X0208042Y0124043D02*
X0207192Y0124043D01*
X0207192Y0124255D02*
X0208042Y0124255D01*
X0208042Y0124467D02*
X0207192Y0124467D01*
X0207192Y0124679D02*
X0208042Y0124679D01*
X0208042Y0124891D02*
X0207192Y0124891D01*
X0207192Y0125103D02*
X0208042Y0125103D01*
X0208042Y0125315D02*
X0207192Y0125315D01*
X0206329Y0126192D02*
X0206329Y0127042D01*
X0206329Y0126192D02*
X0203983Y0126192D01*
X0203983Y0127042D01*
X0206329Y0127042D01*
X0206329Y0126404D02*
X0203983Y0126404D01*
X0203983Y0126616D02*
X0206329Y0126616D01*
X0206329Y0126828D02*
X0203983Y0126828D01*
X0203983Y0127040D02*
X0206329Y0127040D01*
X0206329Y0128160D02*
X0206329Y0129010D01*
X0206329Y0128160D02*
X0203983Y0128160D01*
X0203983Y0129010D01*
X0206329Y0129010D01*
X0206329Y0128372D02*
X0203983Y0128372D01*
X0203983Y0128584D02*
X0206329Y0128584D01*
X0206329Y0128796D02*
X0203983Y0128796D01*
X0203983Y0129008D02*
X0206329Y0129008D01*
X0206329Y0130129D02*
X0206329Y0130979D01*
X0206329Y0130129D02*
X0203983Y0130129D01*
X0203983Y0130979D01*
X0206329Y0130979D01*
X0206329Y0130341D02*
X0203983Y0130341D01*
X0203983Y0130553D02*
X0206329Y0130553D01*
X0206329Y0130765D02*
X0203983Y0130765D01*
X0203983Y0130977D02*
X0206329Y0130977D01*
X0206329Y0132097D02*
X0206329Y0132947D01*
X0206329Y0132097D02*
X0203983Y0132097D01*
X0203983Y0132947D01*
X0206329Y0132947D01*
X0206329Y0132309D02*
X0203983Y0132309D01*
X0203983Y0132521D02*
X0206329Y0132521D01*
X0206329Y0132733D02*
X0203983Y0132733D01*
X0203983Y0132945D02*
X0206329Y0132945D01*
X0206329Y0134066D02*
X0206329Y0134916D01*
X0206329Y0134066D02*
X0203983Y0134066D01*
X0203983Y0134916D01*
X0206329Y0134916D01*
X0206329Y0134278D02*
X0203983Y0134278D01*
X0203983Y0134490D02*
X0206329Y0134490D01*
X0206329Y0134702D02*
X0203983Y0134702D01*
X0203983Y0134914D02*
X0206329Y0134914D01*
X0206329Y0136034D02*
X0206329Y0136884D01*
X0206329Y0136034D02*
X0203983Y0136034D01*
X0203983Y0136884D01*
X0206329Y0136884D01*
X0206329Y0136246D02*
X0203983Y0136246D01*
X0203983Y0136458D02*
X0206329Y0136458D01*
X0206329Y0136670D02*
X0203983Y0136670D01*
X0203983Y0136882D02*
X0206329Y0136882D01*
X0206329Y0138003D02*
X0206329Y0138853D01*
X0206329Y0138003D02*
X0203983Y0138003D01*
X0203983Y0138853D01*
X0206329Y0138853D01*
X0206329Y0138215D02*
X0203983Y0138215D01*
X0203983Y0138427D02*
X0206329Y0138427D01*
X0206329Y0138639D02*
X0203983Y0138639D01*
X0203983Y0138851D02*
X0206329Y0138851D01*
X0206329Y0139971D02*
X0206329Y0140821D01*
X0206329Y0139971D02*
X0203983Y0139971D01*
X0203983Y0140821D01*
X0206329Y0140821D01*
X0206329Y0140183D02*
X0203983Y0140183D01*
X0203983Y0140395D02*
X0206329Y0140395D01*
X0206329Y0140607D02*
X0203983Y0140607D01*
X0203983Y0140819D02*
X0206329Y0140819D01*
X0208042Y0141684D02*
X0208042Y0144030D01*
X0208042Y0141684D02*
X0207192Y0141684D01*
X0207192Y0144030D01*
X0208042Y0144030D01*
X0208042Y0141896D02*
X0207192Y0141896D01*
X0207192Y0142108D02*
X0208042Y0142108D01*
X0208042Y0142320D02*
X0207192Y0142320D01*
X0207192Y0142532D02*
X0208042Y0142532D01*
X0208042Y0142744D02*
X0207192Y0142744D01*
X0207192Y0142956D02*
X0208042Y0142956D01*
X0208042Y0143168D02*
X0207192Y0143168D01*
X0207192Y0143380D02*
X0208042Y0143380D01*
X0208042Y0143592D02*
X0207192Y0143592D01*
X0207192Y0143804D02*
X0208042Y0143804D01*
X0208042Y0144016D02*
X0207192Y0144016D01*
X0210010Y0144030D02*
X0210010Y0141684D01*
X0209160Y0141684D01*
X0209160Y0144030D01*
X0210010Y0144030D01*
X0210010Y0141896D02*
X0209160Y0141896D01*
X0209160Y0142108D02*
X0210010Y0142108D01*
X0210010Y0142320D02*
X0209160Y0142320D01*
X0209160Y0142532D02*
X0210010Y0142532D01*
X0210010Y0142744D02*
X0209160Y0142744D01*
X0209160Y0142956D02*
X0210010Y0142956D01*
X0210010Y0143168D02*
X0209160Y0143168D01*
X0209160Y0143380D02*
X0210010Y0143380D01*
X0210010Y0143592D02*
X0209160Y0143592D01*
X0209160Y0143804D02*
X0210010Y0143804D01*
X0210010Y0144016D02*
X0209160Y0144016D01*
X0211979Y0144030D02*
X0211979Y0141684D01*
X0211129Y0141684D01*
X0211129Y0144030D01*
X0211979Y0144030D01*
X0211979Y0141896D02*
X0211129Y0141896D01*
X0211129Y0142108D02*
X0211979Y0142108D01*
X0211979Y0142320D02*
X0211129Y0142320D01*
X0211129Y0142532D02*
X0211979Y0142532D01*
X0211979Y0142744D02*
X0211129Y0142744D01*
X0211129Y0142956D02*
X0211979Y0142956D01*
X0211979Y0143168D02*
X0211129Y0143168D01*
X0211129Y0143380D02*
X0211979Y0143380D01*
X0211979Y0143592D02*
X0211129Y0143592D01*
X0211129Y0143804D02*
X0211979Y0143804D01*
X0211979Y0144016D02*
X0211129Y0144016D01*
X0213947Y0144030D02*
X0213947Y0141684D01*
X0213097Y0141684D01*
X0213097Y0144030D01*
X0213947Y0144030D01*
X0213947Y0141896D02*
X0213097Y0141896D01*
X0213097Y0142108D02*
X0213947Y0142108D01*
X0213947Y0142320D02*
X0213097Y0142320D01*
X0213097Y0142532D02*
X0213947Y0142532D01*
X0213947Y0142744D02*
X0213097Y0142744D01*
X0213097Y0142956D02*
X0213947Y0142956D01*
X0213947Y0143168D02*
X0213097Y0143168D01*
X0213097Y0143380D02*
X0213947Y0143380D01*
X0213947Y0143592D02*
X0213097Y0143592D01*
X0213097Y0143804D02*
X0213947Y0143804D01*
X0213947Y0144016D02*
X0213097Y0144016D01*
X0215916Y0144030D02*
X0215916Y0141684D01*
X0215066Y0141684D01*
X0215066Y0144030D01*
X0215916Y0144030D01*
X0215916Y0141896D02*
X0215066Y0141896D01*
X0215066Y0142108D02*
X0215916Y0142108D01*
X0215916Y0142320D02*
X0215066Y0142320D01*
X0215066Y0142532D02*
X0215916Y0142532D01*
X0215916Y0142744D02*
X0215066Y0142744D01*
X0215066Y0142956D02*
X0215916Y0142956D01*
X0215916Y0143168D02*
X0215066Y0143168D01*
X0215066Y0143380D02*
X0215916Y0143380D01*
X0215916Y0143592D02*
X0215066Y0143592D01*
X0215066Y0143804D02*
X0215916Y0143804D01*
X0215916Y0144016D02*
X0215066Y0144016D01*
X0217884Y0144030D02*
X0217884Y0141684D01*
X0217034Y0141684D01*
X0217034Y0144030D01*
X0217884Y0144030D01*
X0217884Y0141896D02*
X0217034Y0141896D01*
X0217034Y0142108D02*
X0217884Y0142108D01*
X0217884Y0142320D02*
X0217034Y0142320D01*
X0217034Y0142532D02*
X0217884Y0142532D01*
X0217884Y0142744D02*
X0217034Y0142744D01*
X0217034Y0142956D02*
X0217884Y0142956D01*
X0217884Y0143168D02*
X0217034Y0143168D01*
X0217034Y0143380D02*
X0217884Y0143380D01*
X0217884Y0143592D02*
X0217034Y0143592D01*
X0217034Y0143804D02*
X0217884Y0143804D01*
X0217884Y0144016D02*
X0217034Y0144016D01*
X0219853Y0144030D02*
X0219853Y0141684D01*
X0219003Y0141684D01*
X0219003Y0144030D01*
X0219853Y0144030D01*
X0219853Y0141896D02*
X0219003Y0141896D01*
X0219003Y0142108D02*
X0219853Y0142108D01*
X0219853Y0142320D02*
X0219003Y0142320D01*
X0219003Y0142532D02*
X0219853Y0142532D01*
X0219853Y0142744D02*
X0219003Y0142744D01*
X0219003Y0142956D02*
X0219853Y0142956D01*
X0219853Y0143168D02*
X0219003Y0143168D01*
X0219003Y0143380D02*
X0219853Y0143380D01*
X0219853Y0143592D02*
X0219003Y0143592D01*
X0219003Y0143804D02*
X0219853Y0143804D01*
X0219853Y0144016D02*
X0219003Y0144016D01*
X0221821Y0144030D02*
X0221821Y0141684D01*
X0220971Y0141684D01*
X0220971Y0144030D01*
X0221821Y0144030D01*
X0221821Y0141896D02*
X0220971Y0141896D01*
X0220971Y0142108D02*
X0221821Y0142108D01*
X0221821Y0142320D02*
X0220971Y0142320D01*
X0220971Y0142532D02*
X0221821Y0142532D01*
X0221821Y0142744D02*
X0220971Y0142744D01*
X0220971Y0142956D02*
X0221821Y0142956D01*
X0221821Y0143168D02*
X0220971Y0143168D01*
X0220971Y0143380D02*
X0221821Y0143380D01*
X0221821Y0143592D02*
X0220971Y0143592D01*
X0220971Y0143804D02*
X0221821Y0143804D01*
X0221821Y0144016D02*
X0220971Y0144016D01*
X0225030Y0140821D02*
X0225030Y0139971D01*
X0222684Y0139971D01*
X0222684Y0140821D01*
X0225030Y0140821D01*
X0225030Y0140183D02*
X0222684Y0140183D01*
X0222684Y0140395D02*
X0225030Y0140395D01*
X0225030Y0140607D02*
X0222684Y0140607D01*
X0222684Y0140819D02*
X0225030Y0140819D01*
X0225030Y0138853D02*
X0225030Y0138003D01*
X0222684Y0138003D01*
X0222684Y0138853D01*
X0225030Y0138853D01*
X0225030Y0138215D02*
X0222684Y0138215D01*
X0222684Y0138427D02*
X0225030Y0138427D01*
X0225030Y0138639D02*
X0222684Y0138639D01*
X0222684Y0138851D02*
X0225030Y0138851D01*
X0225030Y0136884D02*
X0225030Y0136034D01*
X0222684Y0136034D01*
X0222684Y0136884D01*
X0225030Y0136884D01*
X0225030Y0136246D02*
X0222684Y0136246D01*
X0222684Y0136458D02*
X0225030Y0136458D01*
X0225030Y0136670D02*
X0222684Y0136670D01*
X0222684Y0136882D02*
X0225030Y0136882D01*
X0225030Y0134916D02*
X0225030Y0134066D01*
X0222684Y0134066D01*
X0222684Y0134916D01*
X0225030Y0134916D01*
X0225030Y0134278D02*
X0222684Y0134278D01*
X0222684Y0134490D02*
X0225030Y0134490D01*
X0225030Y0134702D02*
X0222684Y0134702D01*
X0222684Y0134914D02*
X0225030Y0134914D01*
X0225030Y0132947D02*
X0225030Y0132097D01*
X0222684Y0132097D01*
X0222684Y0132947D01*
X0225030Y0132947D01*
X0225030Y0132309D02*
X0222684Y0132309D01*
X0222684Y0132521D02*
X0225030Y0132521D01*
X0225030Y0132733D02*
X0222684Y0132733D01*
X0222684Y0132945D02*
X0225030Y0132945D01*
X0225030Y0130979D02*
X0225030Y0130129D01*
X0222684Y0130129D01*
X0222684Y0130979D01*
X0225030Y0130979D01*
X0225030Y0130341D02*
X0222684Y0130341D01*
X0222684Y0130553D02*
X0225030Y0130553D01*
X0225030Y0130765D02*
X0222684Y0130765D01*
X0222684Y0130977D02*
X0225030Y0130977D01*
X0225030Y0129010D02*
X0225030Y0128160D01*
X0222684Y0128160D01*
X0222684Y0129010D01*
X0225030Y0129010D01*
X0225030Y0128372D02*
X0222684Y0128372D01*
X0222684Y0128584D02*
X0225030Y0128584D01*
X0225030Y0128796D02*
X0222684Y0128796D01*
X0222684Y0129008D02*
X0225030Y0129008D01*
X0225030Y0127042D02*
X0225030Y0126192D01*
X0222684Y0126192D01*
X0222684Y0127042D01*
X0225030Y0127042D01*
X0225030Y0126404D02*
X0222684Y0126404D01*
X0222684Y0126616D02*
X0225030Y0126616D01*
X0225030Y0126828D02*
X0222684Y0126828D01*
X0222684Y0127040D02*
X0225030Y0127040D01*
X0221821Y0125329D02*
X0221821Y0122983D01*
X0220971Y0122983D01*
X0220971Y0125329D01*
X0221821Y0125329D01*
X0221821Y0123195D02*
X0220971Y0123195D01*
X0220971Y0123407D02*
X0221821Y0123407D01*
X0221821Y0123619D02*
X0220971Y0123619D01*
X0220971Y0123831D02*
X0221821Y0123831D01*
X0221821Y0124043D02*
X0220971Y0124043D01*
X0220971Y0124255D02*
X0221821Y0124255D01*
X0221821Y0124467D02*
X0220971Y0124467D01*
X0220971Y0124679D02*
X0221821Y0124679D01*
X0221821Y0124891D02*
X0220971Y0124891D01*
X0220971Y0125103D02*
X0221821Y0125103D01*
X0221821Y0125315D02*
X0220971Y0125315D01*
X0219853Y0125329D02*
X0219853Y0122983D01*
X0219003Y0122983D01*
X0219003Y0125329D01*
X0219853Y0125329D01*
X0219853Y0123195D02*
X0219003Y0123195D01*
X0219003Y0123407D02*
X0219853Y0123407D01*
X0219853Y0123619D02*
X0219003Y0123619D01*
X0219003Y0123831D02*
X0219853Y0123831D01*
X0219853Y0124043D02*
X0219003Y0124043D01*
X0219003Y0124255D02*
X0219853Y0124255D01*
X0219853Y0124467D02*
X0219003Y0124467D01*
X0219003Y0124679D02*
X0219853Y0124679D01*
X0219853Y0124891D02*
X0219003Y0124891D01*
X0219003Y0125103D02*
X0219853Y0125103D01*
X0219853Y0125315D02*
X0219003Y0125315D01*
X0217884Y0125329D02*
X0217884Y0122983D01*
X0217034Y0122983D01*
X0217034Y0125329D01*
X0217884Y0125329D01*
X0217884Y0123195D02*
X0217034Y0123195D01*
X0217034Y0123407D02*
X0217884Y0123407D01*
X0217884Y0123619D02*
X0217034Y0123619D01*
X0217034Y0123831D02*
X0217884Y0123831D01*
X0217884Y0124043D02*
X0217034Y0124043D01*
X0217034Y0124255D02*
X0217884Y0124255D01*
X0217884Y0124467D02*
X0217034Y0124467D01*
X0217034Y0124679D02*
X0217884Y0124679D01*
X0217884Y0124891D02*
X0217034Y0124891D01*
X0217034Y0125103D02*
X0217884Y0125103D01*
X0217884Y0125315D02*
X0217034Y0125315D01*
X0215916Y0125329D02*
X0215916Y0122983D01*
X0215066Y0122983D01*
X0215066Y0125329D01*
X0215916Y0125329D01*
X0215916Y0123195D02*
X0215066Y0123195D01*
X0215066Y0123407D02*
X0215916Y0123407D01*
X0215916Y0123619D02*
X0215066Y0123619D01*
X0215066Y0123831D02*
X0215916Y0123831D01*
X0215916Y0124043D02*
X0215066Y0124043D01*
X0215066Y0124255D02*
X0215916Y0124255D01*
X0215916Y0124467D02*
X0215066Y0124467D01*
X0215066Y0124679D02*
X0215916Y0124679D01*
X0215916Y0124891D02*
X0215066Y0124891D01*
X0215066Y0125103D02*
X0215916Y0125103D01*
X0215916Y0125315D02*
X0215066Y0125315D01*
X0213947Y0125329D02*
X0213947Y0122983D01*
X0213097Y0122983D01*
X0213097Y0125329D01*
X0213947Y0125329D01*
X0213947Y0123195D02*
X0213097Y0123195D01*
X0213097Y0123407D02*
X0213947Y0123407D01*
X0213947Y0123619D02*
X0213097Y0123619D01*
X0213097Y0123831D02*
X0213947Y0123831D01*
X0213947Y0124043D02*
X0213097Y0124043D01*
X0213097Y0124255D02*
X0213947Y0124255D01*
X0213947Y0124467D02*
X0213097Y0124467D01*
X0213097Y0124679D02*
X0213947Y0124679D01*
X0213947Y0124891D02*
X0213097Y0124891D01*
X0213097Y0125103D02*
X0213947Y0125103D01*
X0213947Y0125315D02*
X0213097Y0125315D01*
X0211979Y0125329D02*
X0211979Y0122983D01*
X0211129Y0122983D01*
X0211129Y0125329D01*
X0211979Y0125329D01*
X0211979Y0123195D02*
X0211129Y0123195D01*
X0211129Y0123407D02*
X0211979Y0123407D01*
X0211979Y0123619D02*
X0211129Y0123619D01*
X0211129Y0123831D02*
X0211979Y0123831D01*
X0211979Y0124043D02*
X0211129Y0124043D01*
X0211129Y0124255D02*
X0211979Y0124255D01*
X0211979Y0124467D02*
X0211129Y0124467D01*
X0211129Y0124679D02*
X0211979Y0124679D01*
X0211979Y0124891D02*
X0211129Y0124891D01*
X0211129Y0125103D02*
X0211979Y0125103D01*
X0211979Y0125315D02*
X0211129Y0125315D01*
X0210010Y0125329D02*
X0210010Y0122983D01*
X0209160Y0122983D01*
X0209160Y0125329D01*
X0210010Y0125329D01*
X0210010Y0123195D02*
X0209160Y0123195D01*
X0209160Y0123407D02*
X0210010Y0123407D01*
X0210010Y0123619D02*
X0209160Y0123619D01*
X0209160Y0123831D02*
X0210010Y0123831D01*
X0210010Y0124043D02*
X0209160Y0124043D01*
X0209160Y0124255D02*
X0210010Y0124255D01*
X0210010Y0124467D02*
X0209160Y0124467D01*
X0209160Y0124679D02*
X0210010Y0124679D01*
X0210010Y0124891D02*
X0209160Y0124891D01*
X0209160Y0125103D02*
X0210010Y0125103D01*
X0210010Y0125315D02*
X0209160Y0125315D01*
D31*
X0220583Y0127429D02*
X0220583Y0139583D01*
X0220583Y0127429D02*
X0208429Y0127429D01*
X0208429Y0139583D01*
X0220583Y0139583D01*
X0220583Y0128068D02*
X0208429Y0128068D01*
X0208429Y0128707D02*
X0220583Y0128707D01*
X0220583Y0129346D02*
X0208429Y0129346D01*
X0208429Y0129985D02*
X0220583Y0129985D01*
X0220583Y0130624D02*
X0208429Y0130624D01*
X0208429Y0131263D02*
X0220583Y0131263D01*
X0220583Y0131902D02*
X0208429Y0131902D01*
X0208429Y0132541D02*
X0220583Y0132541D01*
X0220583Y0133180D02*
X0208429Y0133180D01*
X0208429Y0133819D02*
X0220583Y0133819D01*
X0220583Y0134458D02*
X0208429Y0134458D01*
X0208429Y0135097D02*
X0220583Y0135097D01*
X0220583Y0135736D02*
X0208429Y0135736D01*
X0208429Y0136375D02*
X0220583Y0136375D01*
X0220583Y0137014D02*
X0208429Y0137014D01*
X0208429Y0137653D02*
X0220583Y0137653D01*
X0220583Y0138292D02*
X0208429Y0138292D01*
X0208429Y0138931D02*
X0220583Y0138931D01*
X0220583Y0139570D02*
X0208429Y0139570D01*
D32*
X0048606Y0146106D03*
X0048606Y0163506D03*
X0048606Y0180906D03*
D33*
X0188106Y0048606D03*
X0205506Y0048606D03*
X0222906Y0048606D03*
D34*
X0056506Y0055506D02*
X0050506Y0055506D01*
X0050506Y0065506D02*
X0056506Y0065506D01*
X0056506Y0075506D02*
X0050506Y0075506D01*
D35*
X0083160Y0112506D02*
X0083160Y0116160D01*
X0084506Y0117506D01*
X0087506Y0117506D01*
X0091506Y0121506D01*
X0094506Y0121506D01*
X0093506Y0119506D02*
X0090506Y0116506D01*
X0090506Y0114160D01*
X0089853Y0112506D01*
X0089853Y0112853D01*
X0095160Y0112506D02*
X0095506Y0113853D01*
X0095506Y0116506D01*
X0096506Y0117506D01*
X0098506Y0117506D01*
X0100554Y0119554D01*
X0098585Y0121585D02*
X0096506Y0119506D01*
X0093506Y0119506D01*
X0081786Y0124686D02*
X0081786Y0128435D01*
X0079227Y0128435D02*
X0079227Y0124786D01*
X0080106Y0123906D01*
X0081006Y0123906D01*
X0081786Y0124686D01*
X0091506Y0139951D02*
X0098951Y0139951D01*
X0100506Y0141506D01*
X0092506Y0140506D02*
X0091951Y0139951D01*
X0091506Y0139951D01*
X0092506Y0140506D02*
X0092506Y0147506D01*
X0090506Y0149506D01*
X0084506Y0149506D01*
X0082506Y0149506D01*
X0081786Y0148786D01*
X0081786Y0144577D01*
X0079227Y0144577D02*
X0079227Y0148786D01*
X0078506Y0149506D01*
X0077506Y0149506D01*
X0076668Y0148668D01*
X0076668Y0144577D01*
X0084506Y0144739D02*
X0084506Y0149506D01*
X0089061Y0154951D02*
X0089061Y0160506D01*
X0094951Y0160506D02*
X0094951Y0152061D01*
X0098585Y0148428D01*
X0096617Y0147396D02*
X0089061Y0154951D01*
X0102061Y0150920D02*
X0102061Y0160061D01*
X0102506Y0160506D01*
X0102061Y0160506D01*
X0115160Y0160506D02*
X0115160Y0154160D01*
X0111506Y0150506D01*
X0108506Y0150506D01*
X0109506Y0148506D02*
X0114506Y0148506D01*
X0121853Y0155853D01*
X0121853Y0160506D01*
X0112506Y0132506D02*
X0105506Y0132506D01*
X0104491Y0131522D01*
X0112506Y0132506D02*
X0114506Y0130506D01*
X0114506Y0127506D01*
X0117506Y0124506D01*
X0132506Y0124506D01*
X0135506Y0121506D01*
X0135506Y0116506D01*
X0142506Y0109506D01*
X0153506Y0109506D01*
X0154951Y0110951D01*
X0155951Y0114506D01*
X0173853Y0128506D02*
X0178951Y0128506D01*
X0179506Y0127951D01*
X0182951Y0127951D01*
X0185506Y0130506D01*
X0185506Y0132506D02*
X0182951Y0135061D01*
X0179506Y0135061D01*
X0180951Y0134506D02*
X0173853Y0134506D01*
X0199506Y0120951D02*
X0199506Y0120018D01*
X0209585Y0118428D02*
X0214506Y0113506D01*
X0214506Y0108506D01*
X0227506Y0108506D01*
X0232766Y0103246D01*
X0232766Y0089459D01*
X0232979Y0089246D01*
X0236206Y0087206D02*
X0238246Y0089246D01*
X0242034Y0089246D01*
X0242034Y0085506D02*
X0239506Y0085506D01*
X0238506Y0084506D01*
X0238506Y0076951D01*
X0239951Y0075506D01*
X0235366Y0081766D02*
X0232979Y0081766D01*
X0235366Y0081766D02*
X0236206Y0082606D01*
X0236206Y0087206D01*
X0220306Y0088751D02*
X0219506Y0089951D01*
X0220306Y0088751D02*
X0212061Y0088751D01*
X0210506Y0090106D01*
X0210506Y0092034D01*
X0206766Y0092034D02*
X0206766Y0088246D01*
X0208506Y0086506D01*
X0213506Y0086506D01*
X0214246Y0085766D01*
X0214246Y0082979D01*
X0214506Y0102506D02*
X0214506Y0108506D01*
X0113853Y0120506D02*
X0113506Y0120853D01*
X0113506Y0123506D01*
X0112506Y0124506D01*
X0109506Y0124506D01*
X0063160Y0160506D02*
X0061506Y0163160D01*
X0060506Y0163506D01*
X0048606Y0149406D02*
X0048606Y0146106D01*
D36*
X0049506Y0146006D03*
X0043506Y0146006D03*
X0043506Y0137506D03*
X0055506Y0146006D03*
X0063506Y0139506D03*
X0080506Y0136506D03*
X0088506Y0145506D03*
X0082506Y0154506D03*
X0075506Y0154506D03*
X0069506Y0153506D03*
X0043506Y0154506D03*
X0043506Y0172506D03*
X0043506Y0181006D03*
X0049506Y0181006D03*
X0055506Y0181006D03*
X0043506Y0193506D03*
X0079506Y0175506D03*
X0103506Y0179506D03*
X0115506Y0173506D03*
X0128506Y0167506D03*
X0142506Y0153506D03*
X0151506Y0156506D03*
X0152506Y0165506D03*
X0172506Y0149506D03*
X0166506Y0145506D03*
X0173506Y0143506D03*
X0188506Y0136506D03*
X0194506Y0136506D03*
X0194506Y0126506D03*
X0188506Y0126506D03*
X0173506Y0118506D03*
X0166506Y0117506D03*
X0168506Y0111506D03*
X0164506Y0105506D03*
X0144006Y0115006D03*
X0140006Y0118006D03*
X0139506Y0125506D03*
X0130506Y0130006D03*
X0130506Y0134506D03*
X0139506Y0131506D03*
X0139006Y0139506D03*
X0122506Y0149506D03*
X0109506Y0155506D03*
X0105506Y0153506D03*
X0098506Y0154506D03*
X0108506Y0139506D03*
X0103506Y0136506D03*
X0098506Y0133506D03*
X0091506Y0127506D03*
X0087506Y0123506D03*
X0082506Y0120506D03*
X0055506Y0115506D03*
X0043506Y0093506D03*
X0067506Y0093506D03*
X0084506Y0078506D03*
X0087506Y0073506D03*
X0090506Y0078506D03*
X0093506Y0073506D03*
X0096506Y0078506D03*
X0127506Y0080506D03*
X0146506Y0065506D03*
X0124506Y0053506D03*
X0143506Y0043506D03*
X0175506Y0065506D03*
X0188006Y0055506D03*
X0188006Y0049506D03*
X0188006Y0043506D03*
X0196506Y0043506D03*
X0214506Y0043506D03*
X0223006Y0043506D03*
X0223006Y0049506D03*
X0223006Y0055506D03*
X0219506Y0069506D03*
X0213506Y0068506D03*
X0218506Y0075506D03*
X0228506Y0075506D03*
X0233006Y0070506D03*
X0241506Y0058506D03*
X0256506Y0069506D03*
X0263506Y0050506D03*
X0243506Y0043506D03*
X0293506Y0043506D03*
X0228506Y0084506D03*
X0224506Y0090006D03*
X0224006Y0094506D03*
X0241506Y0094506D03*
X0256506Y0088506D03*
X0263506Y0108506D03*
X0259506Y0111506D03*
X0240506Y0113506D03*
X0231506Y0122006D03*
X0219506Y0113506D03*
X0215006Y0119006D03*
X0206506Y0113506D03*
X0200506Y0107506D03*
X0197506Y0100506D03*
X0201506Y0096506D03*
X0185506Y0104506D03*
X0199506Y0085506D03*
X0160506Y0085506D03*
X0126506Y0111506D03*
X0122506Y0113506D03*
X0122506Y0108506D03*
X0107506Y0101506D03*
X0101506Y0101506D03*
X0095506Y0101506D03*
X0089506Y0101506D03*
X0121506Y0130506D03*
X0118506Y0139506D03*
X0150006Y0126006D03*
X0185506Y0158506D03*
X0189006Y0170006D03*
X0201006Y0173006D03*
X0212506Y0172506D03*
X0220006Y0180006D03*
X0228006Y0176006D03*
X0243506Y0193506D03*
X0264506Y0182506D03*
X0258506Y0162506D03*
X0232506Y0157506D03*
X0236506Y0140506D03*
X0238506Y0135506D03*
X0258006Y0140006D03*
X0265506Y0138506D03*
X0263506Y0133006D03*
X0293506Y0142506D03*
X0293506Y0093506D03*
X0218506Y0129506D03*
X0218506Y0133506D03*
X0214506Y0133506D03*
X0214506Y0129506D03*
X0210506Y0129506D03*
X0210506Y0133506D03*
X0210506Y0137506D03*
X0214506Y0137506D03*
X0218506Y0137506D03*
X0193506Y0193506D03*
X0143506Y0193506D03*
X0093506Y0193506D03*
X0044506Y0061506D03*
X0064506Y0052506D03*
X0057506Y0045506D03*
X0071506Y0045506D03*
X0087506Y0049506D03*
X0090506Y0054506D03*
X0093506Y0049506D03*
X0094506Y0043506D03*
X0043506Y0043506D03*
X0293506Y0193506D03*
D37*
X0041006Y0071748D02*
X0041006Y0041006D01*
X0182306Y0041006D01*
X0182306Y0048106D01*
X0187606Y0048106D01*
X0187606Y0049106D01*
X0182306Y0049106D01*
X0182306Y0058777D01*
X0182395Y0059108D01*
X0182566Y0059405D01*
X0182808Y0059647D01*
X0183105Y0059818D01*
X0183435Y0059906D01*
X0187606Y0059906D01*
X0187606Y0049106D01*
X0188606Y0049106D01*
X0188606Y0059906D01*
X0192777Y0059906D01*
X0193108Y0059818D01*
X0193405Y0059647D01*
X0193647Y0059405D01*
X0193818Y0059108D01*
X0193906Y0058777D01*
X0193906Y0049106D01*
X0188606Y0049106D01*
X0188606Y0048106D01*
X0188606Y0041006D01*
X0187606Y0041006D01*
X0187606Y0048106D01*
X0188606Y0048106D01*
X0193906Y0048106D01*
X0193906Y0041006D01*
X0198906Y0041006D01*
X0198906Y0059476D01*
X0200136Y0060706D01*
X0201241Y0060706D01*
X0201241Y0065998D01*
X0201749Y0066506D01*
X0201241Y0067014D01*
X0201241Y0072321D01*
X0201091Y0072471D01*
X0201091Y0078541D01*
X0202321Y0079772D01*
X0202891Y0079772D01*
X0203048Y0080149D01*
X0203485Y0080586D01*
X0203485Y0085620D01*
X0204530Y0086665D01*
X0204477Y0086717D01*
X0204066Y0087709D01*
X0204066Y0088811D01*
X0203485Y0089392D01*
X0203485Y0090808D01*
X0201979Y0089302D01*
X0201023Y0088906D01*
X0127583Y0088906D01*
X0119106Y0080429D01*
X0119106Y0060989D01*
X0118710Y0060034D01*
X0117979Y0059302D01*
X0114979Y0056302D01*
X0114023Y0055906D01*
X0113648Y0055906D01*
X0113633Y0055892D01*
X0113670Y0055827D01*
X0113759Y0055496D01*
X0113759Y0053266D01*
X0110006Y0053266D01*
X0110006Y0052266D01*
X0110006Y0048907D01*
X0112630Y0048907D01*
X0112961Y0048996D01*
X0113257Y0049167D01*
X0113499Y0049409D01*
X0113670Y0049705D01*
X0113759Y0050036D01*
X0113759Y0052266D01*
X0110006Y0052266D01*
X0109006Y0052266D01*
X0109006Y0048907D01*
X0106382Y0048907D01*
X0106052Y0048996D01*
X0105755Y0049167D01*
X0105513Y0049409D01*
X0105342Y0049705D01*
X0105254Y0050036D01*
X0105254Y0051577D01*
X0104979Y0051302D01*
X0103979Y0050302D01*
X0103023Y0049906D01*
X0102684Y0049906D01*
X0102844Y0049630D01*
X0102932Y0049299D01*
X0102932Y0047561D01*
X0100006Y0047561D01*
X0100006Y0046561D01*
X0100006Y0043694D01*
X0101803Y0043694D01*
X0102134Y0043783D01*
X0102430Y0043954D01*
X0102673Y0044196D01*
X0102844Y0044493D01*
X0102932Y0044823D01*
X0102932Y0046561D01*
X0100006Y0046561D01*
X0099006Y0046561D01*
X0099006Y0043694D01*
X0097209Y0043694D01*
X0096879Y0043783D01*
X0096582Y0043954D01*
X0096340Y0044196D01*
X0096169Y0044493D01*
X0096080Y0044823D01*
X0096080Y0046561D01*
X0099006Y0046561D01*
X0099006Y0047561D01*
X0096080Y0047561D01*
X0096080Y0049299D01*
X0096169Y0049630D01*
X0096340Y0049927D01*
X0096354Y0049941D01*
X0095280Y0051014D01*
X0095280Y0051086D01*
X0094906Y0051989D01*
X0094906Y0068377D01*
X0094868Y0068762D01*
X0094906Y0068890D01*
X0094906Y0069023D01*
X0095055Y0069381D01*
X0095167Y0069752D01*
X0095251Y0069856D01*
X0095302Y0069979D01*
X0095576Y0070253D01*
X0103906Y0080434D01*
X0103906Y0091429D01*
X0103429Y0091906D01*
X0098893Y0091906D01*
X0098893Y0088207D01*
X0091006Y0088207D01*
X0091006Y0087207D01*
X0091006Y0082076D01*
X0097764Y0082076D01*
X0098095Y0082165D01*
X0098391Y0082336D01*
X0098633Y0082578D01*
X0098804Y0082875D01*
X0098893Y0083205D01*
X0098893Y0087207D01*
X0091006Y0087207D01*
X0090006Y0087207D01*
X0082120Y0087207D01*
X0082120Y0083205D01*
X0082208Y0082875D01*
X0082379Y0082578D01*
X0082621Y0082336D01*
X0082918Y0082165D01*
X0083249Y0082076D01*
X0090006Y0082076D01*
X0090006Y0087207D01*
X0090006Y0088207D01*
X0082120Y0088207D01*
X0082120Y0091906D01*
X0080989Y0091906D01*
X0080034Y0092302D01*
X0079302Y0093034D01*
X0071302Y0101034D01*
X0070906Y0101989D01*
X0070906Y0122429D01*
X0066302Y0127034D01*
X0065906Y0127989D01*
X0065906Y0129999D01*
X0065780Y0130125D01*
X0065780Y0135998D01*
X0066854Y0137072D01*
X0066840Y0137086D01*
X0066669Y0137382D01*
X0066580Y0137713D01*
X0066580Y0139451D01*
X0069506Y0139451D01*
X0069506Y0140451D01*
X0066580Y0140451D01*
X0066580Y0142189D01*
X0066669Y0142520D01*
X0066840Y0142816D01*
X0067082Y0143058D01*
X0067379Y0143230D01*
X0067709Y0143318D01*
X0069506Y0143318D01*
X0069506Y0140451D01*
X0070506Y0140451D01*
X0070506Y0143318D01*
X0072303Y0143318D01*
X0072634Y0143230D01*
X0072930Y0143058D01*
X0073173Y0142816D01*
X0073344Y0142520D01*
X0073432Y0142189D01*
X0073432Y0140451D01*
X0070506Y0140451D01*
X0070506Y0139451D01*
X0073432Y0139451D01*
X0073432Y0137713D01*
X0073344Y0137382D01*
X0073184Y0137106D01*
X0075023Y0137106D01*
X0075979Y0136710D01*
X0076683Y0136006D01*
X0080006Y0136006D01*
X0080006Y0137006D01*
X0075506Y0137006D01*
X0075506Y0139985D01*
X0075540Y0140115D01*
X0075010Y0140115D01*
X0073780Y0141345D01*
X0073780Y0147809D01*
X0073968Y0147997D01*
X0073968Y0149205D01*
X0074379Y0150197D01*
X0075977Y0151795D01*
X0076969Y0152206D01*
X0079043Y0152206D01*
X0080036Y0151795D01*
X0080506Y0151325D01*
X0080977Y0151795D01*
X0081969Y0152206D01*
X0087988Y0152206D01*
X0087532Y0152662D01*
X0087532Y0152662D01*
X0086772Y0153422D01*
X0086361Y0154414D01*
X0086361Y0156280D01*
X0086125Y0156280D01*
X0086006Y0156399D01*
X0085888Y0156280D01*
X0080014Y0156280D01*
X0078941Y0157354D01*
X0078927Y0157340D01*
X0078630Y0157169D01*
X0078299Y0157080D01*
X0076561Y0157080D01*
X0076561Y0160006D01*
X0075561Y0160006D01*
X0073121Y0160006D01*
X0073121Y0160022D01*
X0070337Y0160022D01*
X0070337Y0157041D01*
X0071992Y0157041D01*
X0072323Y0157130D01*
X0072619Y0157301D01*
X0072862Y0157543D01*
X0072919Y0157643D01*
X0072954Y0157582D01*
X0073196Y0157340D01*
X0073493Y0157169D01*
X0073823Y0157080D01*
X0075561Y0157080D01*
X0075561Y0160006D01*
X0075561Y0161006D01*
X0073121Y0161006D01*
X0073121Y0160991D01*
X0070337Y0160991D01*
X0070337Y0160022D01*
X0069368Y0160022D01*
X0069368Y0157041D01*
X0067713Y0157041D01*
X0067382Y0157130D01*
X0067086Y0157301D01*
X0067072Y0157315D01*
X0065998Y0156241D01*
X0060321Y0156241D01*
X0059566Y0156996D01*
X0059476Y0156906D01*
X0041006Y0156906D01*
X0041006Y0151906D01*
X0048106Y0151906D01*
X0048106Y0146606D01*
X0048106Y0145606D01*
X0041006Y0145606D01*
X0041006Y0146606D01*
X0048106Y0146606D01*
X0049106Y0146606D01*
X0049106Y0151906D01*
X0058777Y0151906D01*
X0059108Y0151818D01*
X0059405Y0151647D01*
X0059647Y0151405D01*
X0059818Y0151108D01*
X0059906Y0150777D01*
X0059906Y0146606D01*
X0049106Y0146606D01*
X0049106Y0145606D01*
X0049106Y0140306D01*
X0058777Y0140306D01*
X0059108Y0140395D01*
X0059405Y0140566D01*
X0059647Y0140808D01*
X0059818Y0141105D01*
X0059906Y0141435D01*
X0059906Y0145606D01*
X0049106Y0145606D01*
X0048106Y0145606D01*
X0048106Y0140306D01*
X0041006Y0140306D01*
X0041006Y0079265D01*
X0041302Y0079979D01*
X0042034Y0080710D01*
X0042034Y0080710D01*
X0043302Y0081979D01*
X0044034Y0082710D01*
X0044989Y0083106D01*
X0072023Y0083106D01*
X0072979Y0082710D01*
X0084979Y0070710D01*
X0085710Y0069979D01*
X0086106Y0069023D01*
X0086106Y0051989D01*
X0085732Y0051086D01*
X0085732Y0051014D01*
X0084658Y0049941D01*
X0084673Y0049927D01*
X0084844Y0049630D01*
X0084932Y0049299D01*
X0084932Y0047561D01*
X0082006Y0047561D01*
X0082006Y0046561D01*
X0082006Y0043694D01*
X0083803Y0043694D01*
X0084134Y0043783D01*
X0084430Y0043954D01*
X0084673Y0044196D01*
X0084844Y0044493D01*
X0084932Y0044823D01*
X0084932Y0046561D01*
X0082006Y0046561D01*
X0081006Y0046561D01*
X0081006Y0043694D01*
X0079209Y0043694D01*
X0078879Y0043783D01*
X0078582Y0043954D01*
X0078340Y0044196D01*
X0078169Y0044493D01*
X0078080Y0044823D01*
X0078080Y0046561D01*
X0081006Y0046561D01*
X0081006Y0047561D01*
X0078080Y0047561D01*
X0078080Y0049299D01*
X0078169Y0049630D01*
X0078328Y0049906D01*
X0077989Y0049906D01*
X0077034Y0050302D01*
X0076034Y0051302D01*
X0075759Y0051577D01*
X0075759Y0050036D01*
X0075670Y0049705D01*
X0075499Y0049409D01*
X0075257Y0049167D01*
X0074961Y0048996D01*
X0074630Y0048907D01*
X0072006Y0048907D01*
X0072006Y0052266D01*
X0071006Y0052266D01*
X0067254Y0052266D01*
X0067254Y0050036D01*
X0067342Y0049705D01*
X0067513Y0049409D01*
X0067755Y0049167D01*
X0068052Y0048996D01*
X0068382Y0048907D01*
X0071006Y0048907D01*
X0071006Y0052266D01*
X0071006Y0053266D01*
X0067254Y0053266D01*
X0067254Y0055496D01*
X0067342Y0055827D01*
X0067379Y0055892D01*
X0067365Y0055906D01*
X0066989Y0055906D01*
X0066034Y0056302D01*
X0063034Y0059302D01*
X0062302Y0060034D01*
X0061906Y0060989D01*
X0061906Y0065429D01*
X0060642Y0066694D01*
X0060700Y0066513D01*
X0060781Y0066006D01*
X0054006Y0066006D01*
X0054006Y0065006D01*
X0054006Y0061206D01*
X0056845Y0061206D01*
X0057513Y0061312D01*
X0058157Y0061521D01*
X0058760Y0061829D01*
X0059308Y0062226D01*
X0059786Y0062705D01*
X0060184Y0063253D01*
X0060491Y0063856D01*
X0060700Y0064499D01*
X0060781Y0065006D01*
X0054006Y0065006D01*
X0053006Y0065006D01*
X0053006Y0061206D01*
X0050168Y0061206D01*
X0049499Y0061312D01*
X0048856Y0061521D01*
X0048253Y0061829D01*
X0047705Y0062226D01*
X0047226Y0062705D01*
X0046829Y0063253D01*
X0046521Y0063856D01*
X0046312Y0064499D01*
X0046232Y0065006D01*
X0053006Y0065006D01*
X0053006Y0066006D01*
X0046232Y0066006D01*
X0046312Y0066513D01*
X0046521Y0067157D01*
X0046829Y0067760D01*
X0046935Y0067906D01*
X0044989Y0067906D01*
X0044034Y0068302D01*
X0042034Y0070302D01*
X0041302Y0071034D01*
X0041006Y0071748D01*
X0041006Y0071457D02*
X0041127Y0071457D01*
X0041006Y0070459D02*
X0041877Y0070459D01*
X0041006Y0069460D02*
X0042875Y0069460D01*
X0043874Y0068462D02*
X0041006Y0068462D01*
X0041006Y0067463D02*
X0046677Y0067463D01*
X0046304Y0066465D02*
X0041006Y0066465D01*
X0041006Y0065466D02*
X0053006Y0065466D01*
X0053006Y0064468D02*
X0054006Y0064468D01*
X0054006Y0065466D02*
X0061870Y0065466D01*
X0061906Y0064468D02*
X0060690Y0064468D01*
X0060294Y0063469D02*
X0061906Y0063469D01*
X0061906Y0062471D02*
X0059552Y0062471D01*
X0058005Y0061472D02*
X0061906Y0061472D01*
X0062120Y0060474D02*
X0057841Y0060474D01*
X0057521Y0060606D02*
X0059395Y0059830D01*
X0060830Y0058395D01*
X0061606Y0056521D01*
X0061606Y0054492D01*
X0060830Y0052617D01*
X0059395Y0051183D01*
X0057521Y0050406D01*
X0049492Y0050406D01*
X0047617Y0051183D01*
X0046183Y0052617D01*
X0045406Y0054492D01*
X0045406Y0056521D01*
X0046183Y0058395D01*
X0047617Y0059830D01*
X0049492Y0060606D01*
X0057521Y0060606D01*
X0059750Y0059475D02*
X0062861Y0059475D01*
X0063859Y0058477D02*
X0060749Y0058477D01*
X0061210Y0057478D02*
X0064858Y0057478D01*
X0065856Y0056480D02*
X0061606Y0056480D01*
X0061606Y0055481D02*
X0067254Y0055481D01*
X0067254Y0054482D02*
X0061602Y0054482D01*
X0061189Y0053484D02*
X0067254Y0053484D01*
X0067254Y0051487D02*
X0059699Y0051487D01*
X0060698Y0052485D02*
X0071006Y0052485D01*
X0071006Y0051487D02*
X0072006Y0051487D01*
X0072006Y0050488D02*
X0071006Y0050488D01*
X0071006Y0049490D02*
X0072006Y0049490D01*
X0075546Y0049490D02*
X0078131Y0049490D01*
X0078080Y0048491D02*
X0041006Y0048491D01*
X0041006Y0047493D02*
X0081006Y0047493D01*
X0081006Y0046494D02*
X0082006Y0046494D01*
X0082006Y0045496D02*
X0081006Y0045496D01*
X0081006Y0044497D02*
X0082006Y0044497D01*
X0084845Y0044497D02*
X0096168Y0044497D01*
X0096080Y0045496D02*
X0084932Y0045496D01*
X0084932Y0046494D02*
X0096080Y0046494D01*
X0096080Y0048491D02*
X0084932Y0048491D01*
X0084881Y0049490D02*
X0096131Y0049490D01*
X0095806Y0050488D02*
X0085206Y0050488D01*
X0085898Y0051487D02*
X0095114Y0051487D01*
X0094906Y0052485D02*
X0086106Y0052485D01*
X0086106Y0053484D02*
X0094906Y0053484D01*
X0094906Y0054482D02*
X0086106Y0054482D01*
X0086106Y0055481D02*
X0094906Y0055481D01*
X0094906Y0056480D02*
X0086106Y0056480D01*
X0086106Y0057478D02*
X0094906Y0057478D01*
X0094906Y0058477D02*
X0094137Y0058477D01*
X0094117Y0058404D02*
X0094206Y0058735D01*
X0094206Y0062806D01*
X0091006Y0062806D01*
X0091006Y0063805D01*
X0094206Y0063805D01*
X0094206Y0067876D01*
X0094117Y0068207D01*
X0093946Y0068503D01*
X0093704Y0068745D01*
X0093408Y0068917D01*
X0093077Y0069005D01*
X0091006Y0069005D01*
X0091006Y0063806D01*
X0090006Y0063806D01*
X0090006Y0069005D01*
X0087936Y0069005D01*
X0087605Y0068917D01*
X0087308Y0068745D01*
X0087066Y0068503D01*
X0086895Y0068207D01*
X0086807Y0067876D01*
X0086807Y0063805D01*
X0090006Y0063805D01*
X0090006Y0062806D01*
X0086807Y0062806D01*
X0086807Y0058735D01*
X0086895Y0058404D01*
X0087066Y0058108D01*
X0087308Y0057866D01*
X0087605Y0057695D01*
X0087936Y0057606D01*
X0090006Y0057606D01*
X0090006Y0062805D01*
X0091006Y0062805D01*
X0091006Y0057606D01*
X0093077Y0057606D01*
X0093408Y0057695D01*
X0093704Y0057866D01*
X0093946Y0058108D01*
X0094117Y0058404D01*
X0094206Y0059475D02*
X0094906Y0059475D01*
X0094906Y0060474D02*
X0094206Y0060474D01*
X0094206Y0061472D02*
X0094906Y0061472D01*
X0094906Y0062471D02*
X0094206Y0062471D01*
X0094906Y0063469D02*
X0091006Y0063469D01*
X0091006Y0062471D02*
X0090006Y0062471D01*
X0090006Y0063469D02*
X0086106Y0063469D01*
X0086106Y0062471D02*
X0086807Y0062471D01*
X0086807Y0061472D02*
X0086106Y0061472D01*
X0086106Y0060474D02*
X0086807Y0060474D01*
X0086807Y0059475D02*
X0086106Y0059475D01*
X0086106Y0058477D02*
X0086876Y0058477D01*
X0090006Y0058477D02*
X0091006Y0058477D01*
X0091006Y0059475D02*
X0090006Y0059475D01*
X0090006Y0060474D02*
X0091006Y0060474D01*
X0091006Y0061472D02*
X0090006Y0061472D01*
X0090006Y0064468D02*
X0091006Y0064468D01*
X0091006Y0065466D02*
X0090006Y0065466D01*
X0090006Y0066465D02*
X0091006Y0066465D01*
X0091006Y0067463D02*
X0090006Y0067463D01*
X0090006Y0068462D02*
X0091006Y0068462D01*
X0093970Y0068462D02*
X0094898Y0068462D01*
X0094906Y0067463D02*
X0094206Y0067463D01*
X0094206Y0066465D02*
X0094906Y0066465D01*
X0094906Y0065466D02*
X0094206Y0065466D01*
X0094206Y0064468D02*
X0094906Y0064468D01*
X0099105Y0064468D02*
X0100105Y0064468D01*
X0100105Y0063806D02*
X0099105Y0063806D01*
X0099105Y0069005D01*
X0097914Y0069005D01*
X0106506Y0079506D01*
X0106506Y0092506D01*
X0104506Y0094506D01*
X0081506Y0094506D01*
X0073506Y0102506D01*
X0073506Y0123506D01*
X0068506Y0128506D01*
X0068506Y0129694D01*
X0069506Y0129694D01*
X0069506Y0132561D01*
X0070506Y0132561D01*
X0070506Y0129694D01*
X0072303Y0129694D01*
X0072634Y0129783D01*
X0072930Y0129954D01*
X0073173Y0130196D01*
X0073344Y0130493D01*
X0073432Y0130823D01*
X0073432Y0132561D01*
X0070506Y0132561D01*
X0070506Y0133561D01*
X0073432Y0133561D01*
X0073432Y0134506D01*
X0074506Y0134506D01*
X0074506Y0130506D01*
X0074580Y0130506D01*
X0074580Y0128435D01*
X0074580Y0125902D01*
X0074669Y0125571D01*
X0074840Y0125275D01*
X0075082Y0125033D01*
X0075379Y0124862D01*
X0075709Y0124773D01*
X0076668Y0124773D01*
X0076927Y0124773D01*
X0076927Y0123833D01*
X0077506Y0123254D01*
X0077506Y0104506D01*
X0084506Y0097506D01*
X0116506Y0097506D01*
X0119506Y0100506D01*
X0119506Y0111506D01*
X0118759Y0111506D01*
X0118759Y0112746D01*
X0115006Y0112746D01*
X0115006Y0113746D01*
X0118759Y0113746D01*
X0118759Y0115506D01*
X0127506Y0115506D01*
X0142506Y0100506D01*
X0169506Y0100506D01*
X0172506Y0103506D01*
X0172506Y0108506D01*
X0181294Y0117294D01*
X0182336Y0117294D01*
X0183332Y0118290D01*
X0183332Y0119332D01*
X0183506Y0119506D01*
X0183506Y0125506D01*
X0183651Y0125651D01*
X0183904Y0125651D01*
X0186559Y0128306D01*
X0199706Y0128306D01*
X0203506Y0124506D01*
X0203506Y0118506D01*
X0202877Y0118506D01*
X0202932Y0118713D01*
X0202932Y0120451D01*
X0200006Y0120451D01*
X0200006Y0118506D01*
X0199006Y0118506D01*
X0199006Y0120451D01*
X0196080Y0120451D01*
X0196080Y0119518D01*
X0193006Y0119518D01*
X0193006Y0120518D01*
X0192006Y0120518D01*
X0192006Y0119518D01*
X0187663Y0119518D01*
X0187663Y0116697D01*
X0187752Y0116367D01*
X0187923Y0116070D01*
X0188076Y0115917D01*
X0180506Y0107506D01*
X0180506Y0101506D01*
X0183506Y0098506D01*
X0192506Y0098506D01*
X0196506Y0102506D01*
X0200506Y0102506D01*
X0203506Y0099506D01*
X0203506Y0094506D01*
X0200506Y0091506D01*
X0126506Y0091506D01*
X0116506Y0081506D01*
X0116506Y0061506D01*
X0113759Y0058759D01*
X0113759Y0059746D01*
X0110006Y0059746D01*
X0110006Y0060746D01*
X0113759Y0060746D01*
X0113759Y0062977D01*
X0113670Y0063307D01*
X0113499Y0063604D01*
X0113257Y0063846D01*
X0112961Y0064017D01*
X0112630Y0064105D01*
X0110006Y0064105D01*
X0110006Y0060746D01*
X0109006Y0060746D01*
X0109006Y0059746D01*
X0105254Y0059746D01*
X0105254Y0058254D01*
X0103506Y0056506D01*
X0103506Y0053506D01*
X0102932Y0052932D01*
X0102932Y0053451D01*
X0100006Y0053451D01*
X0100006Y0054451D01*
X0099006Y0054451D01*
X0099006Y0057318D01*
X0097506Y0057318D01*
X0097506Y0057606D01*
X0099105Y0057606D01*
X0099105Y0062805D01*
X0100105Y0062805D01*
X0100105Y0057606D01*
X0102175Y0057606D01*
X0102506Y0057695D01*
X0102803Y0057866D01*
X0103045Y0058108D01*
X0103216Y0058404D01*
X0103304Y0058735D01*
X0103304Y0062806D01*
X0100105Y0062806D01*
X0100105Y0063805D01*
X0103304Y0063805D01*
X0103304Y0067876D01*
X0103216Y0068207D01*
X0103045Y0068503D01*
X0102803Y0068745D01*
X0102506Y0068917D01*
X0102175Y0069005D01*
X0100105Y0069005D01*
X0100105Y0063806D01*
X0100105Y0063469D02*
X0105436Y0063469D01*
X0105513Y0063604D02*
X0105342Y0063307D01*
X0105254Y0062977D01*
X0105254Y0060746D01*
X0109006Y0060746D01*
X0109006Y0064105D01*
X0106382Y0064105D01*
X0106052Y0064017D01*
X0105755Y0063846D01*
X0105513Y0063604D01*
X0105254Y0062471D02*
X0103304Y0062471D01*
X0103304Y0061472D02*
X0105254Y0061472D01*
X0105254Y0059475D02*
X0103304Y0059475D01*
X0103304Y0060474D02*
X0109006Y0060474D01*
X0109006Y0061472D02*
X0110006Y0061472D01*
X0110006Y0060474D02*
X0115474Y0060474D01*
X0116472Y0061472D02*
X0113759Y0061472D01*
X0113759Y0062471D02*
X0116506Y0062471D01*
X0116506Y0063469D02*
X0113577Y0063469D01*
X0116506Y0064468D02*
X0103304Y0064468D01*
X0103304Y0065466D02*
X0116506Y0065466D01*
X0116506Y0066465D02*
X0103304Y0066465D01*
X0103304Y0067463D02*
X0116506Y0067463D01*
X0116506Y0068462D02*
X0103069Y0068462D01*
X0100105Y0068462D02*
X0099105Y0068462D01*
X0099105Y0067463D02*
X0100105Y0067463D01*
X0100105Y0066465D02*
X0099105Y0066465D01*
X0099105Y0065466D02*
X0100105Y0065466D01*
X0100105Y0062471D02*
X0099105Y0062471D01*
X0099105Y0061472D02*
X0100105Y0061472D01*
X0100105Y0060474D02*
X0099105Y0060474D01*
X0099105Y0059475D02*
X0100105Y0059475D01*
X0100105Y0058477D02*
X0099105Y0058477D01*
X0100006Y0057318D02*
X0100006Y0054451D01*
X0102932Y0054451D01*
X0102932Y0056189D01*
X0102844Y0056520D01*
X0102673Y0056816D01*
X0102430Y0057058D01*
X0102134Y0057230D01*
X0101803Y0057318D01*
X0100006Y0057318D01*
X0100006Y0056480D02*
X0099006Y0056480D01*
X0099006Y0055481D02*
X0100006Y0055481D01*
X0100006Y0054482D02*
X0099006Y0054482D01*
X0100006Y0053484D02*
X0103484Y0053484D01*
X0103506Y0054482D02*
X0102932Y0054482D01*
X0102932Y0055481D02*
X0103506Y0055481D01*
X0103506Y0056480D02*
X0102855Y0056480D01*
X0104478Y0057478D02*
X0097506Y0057478D01*
X0103235Y0058477D02*
X0105254Y0058477D01*
X0109006Y0062471D02*
X0110006Y0062471D01*
X0110006Y0063469D02*
X0109006Y0063469D01*
X0113759Y0059475D02*
X0114475Y0059475D01*
X0116155Y0057478D02*
X0182306Y0057478D01*
X0182306Y0056480D02*
X0115156Y0056480D01*
X0113759Y0055481D02*
X0182306Y0055481D01*
X0182306Y0054482D02*
X0113759Y0054482D01*
X0113759Y0053484D02*
X0182306Y0053484D01*
X0182306Y0052485D02*
X0110006Y0052485D01*
X0110006Y0051487D02*
X0109006Y0051487D01*
X0109006Y0050488D02*
X0110006Y0050488D01*
X0110006Y0049490D02*
X0109006Y0049490D01*
X0105466Y0049490D02*
X0102881Y0049490D01*
X0102932Y0048491D02*
X0187606Y0048491D01*
X0187606Y0047493D02*
X0188606Y0047493D01*
X0188606Y0048491D02*
X0198906Y0048491D01*
X0198906Y0047493D02*
X0193906Y0047493D01*
X0193906Y0046494D02*
X0198906Y0046494D01*
X0198906Y0045496D02*
X0193906Y0045496D01*
X0193906Y0044497D02*
X0198906Y0044497D01*
X0198906Y0043499D02*
X0193906Y0043499D01*
X0193906Y0042500D02*
X0198906Y0042500D01*
X0198906Y0041502D02*
X0193906Y0041502D01*
X0188606Y0041502D02*
X0187606Y0041502D01*
X0187606Y0042500D02*
X0188606Y0042500D01*
X0188606Y0043499D02*
X0187606Y0043499D01*
X0187606Y0044497D02*
X0188606Y0044497D01*
X0188606Y0045496D02*
X0187606Y0045496D01*
X0187606Y0046494D02*
X0188606Y0046494D01*
X0188606Y0049490D02*
X0187606Y0049490D01*
X0187606Y0050488D02*
X0188606Y0050488D01*
X0188606Y0051487D02*
X0187606Y0051487D01*
X0187606Y0052485D02*
X0188606Y0052485D01*
X0188606Y0053484D02*
X0187606Y0053484D01*
X0187606Y0054482D02*
X0188606Y0054482D01*
X0188606Y0055481D02*
X0187606Y0055481D01*
X0187606Y0056480D02*
X0188606Y0056480D01*
X0188606Y0057478D02*
X0187606Y0057478D01*
X0187606Y0058477D02*
X0188606Y0058477D01*
X0188606Y0059475D02*
X0187606Y0059475D01*
X0182637Y0059475D02*
X0118152Y0059475D01*
X0118893Y0060474D02*
X0199904Y0060474D01*
X0198906Y0059475D02*
X0193576Y0059475D01*
X0193906Y0058477D02*
X0198906Y0058477D01*
X0198906Y0057478D02*
X0193906Y0057478D01*
X0193906Y0056480D02*
X0198906Y0056480D01*
X0198906Y0055481D02*
X0193906Y0055481D01*
X0193906Y0054482D02*
X0198906Y0054482D01*
X0198906Y0053484D02*
X0193906Y0053484D01*
X0193906Y0052485D02*
X0198906Y0052485D01*
X0198906Y0051487D02*
X0193906Y0051487D01*
X0193906Y0050488D02*
X0198906Y0050488D01*
X0198906Y0049490D02*
X0193906Y0049490D01*
X0182306Y0049490D02*
X0113546Y0049490D01*
X0113759Y0050488D02*
X0182306Y0050488D01*
X0182306Y0051487D02*
X0113759Y0051487D01*
X0105254Y0051487D02*
X0105164Y0051487D01*
X0105254Y0050488D02*
X0104165Y0050488D01*
X0102932Y0046494D02*
X0182306Y0046494D01*
X0182306Y0045496D02*
X0102932Y0045496D01*
X0102845Y0044497D02*
X0182306Y0044497D01*
X0182306Y0043499D02*
X0041006Y0043499D01*
X0041006Y0044497D02*
X0078168Y0044497D01*
X0078080Y0045496D02*
X0041006Y0045496D01*
X0041006Y0046494D02*
X0078080Y0046494D01*
X0082006Y0047493D02*
X0099006Y0047493D01*
X0099006Y0046494D02*
X0100006Y0046494D01*
X0100006Y0045496D02*
X0099006Y0045496D01*
X0099006Y0044497D02*
X0100006Y0044497D01*
X0100006Y0047493D02*
X0182306Y0047493D01*
X0182306Y0042500D02*
X0041006Y0042500D01*
X0041006Y0041502D02*
X0182306Y0041502D01*
X0182306Y0058477D02*
X0117153Y0058477D01*
X0119106Y0061472D02*
X0201241Y0061472D01*
X0201241Y0062471D02*
X0119106Y0062471D01*
X0119106Y0063469D02*
X0201241Y0063469D01*
X0201241Y0064468D02*
X0119106Y0064468D01*
X0119106Y0065466D02*
X0201241Y0065466D01*
X0201707Y0066465D02*
X0119106Y0066465D01*
X0119106Y0067463D02*
X0201241Y0067463D01*
X0201241Y0068462D02*
X0119106Y0068462D01*
X0119106Y0069460D02*
X0201241Y0069460D01*
X0201241Y0070459D02*
X0119106Y0070459D01*
X0119106Y0071457D02*
X0201241Y0071457D01*
X0201107Y0072456D02*
X0119106Y0072456D01*
X0119106Y0073454D02*
X0201091Y0073454D01*
X0201091Y0074453D02*
X0119106Y0074453D01*
X0119106Y0075451D02*
X0201091Y0075451D01*
X0201091Y0076450D02*
X0119106Y0076450D01*
X0119106Y0077448D02*
X0201091Y0077448D01*
X0201091Y0078447D02*
X0119106Y0078447D01*
X0119106Y0079445D02*
X0201995Y0079445D01*
X0203343Y0080444D02*
X0119121Y0080444D01*
X0120119Y0081442D02*
X0203485Y0081442D01*
X0203485Y0082441D02*
X0121118Y0082441D01*
X0122116Y0083439D02*
X0203485Y0083439D01*
X0203485Y0084438D02*
X0123115Y0084438D01*
X0124113Y0085436D02*
X0203485Y0085436D01*
X0204300Y0086435D02*
X0125112Y0086435D01*
X0126110Y0087433D02*
X0204180Y0087433D01*
X0204066Y0088432D02*
X0127109Y0088432D01*
X0125429Y0090429D02*
X0106506Y0090429D01*
X0106506Y0091427D02*
X0126427Y0091427D01*
X0124430Y0089430D02*
X0106506Y0089430D01*
X0106506Y0088432D02*
X0123432Y0088432D01*
X0122433Y0087433D02*
X0106506Y0087433D01*
X0106506Y0086435D02*
X0121435Y0086435D01*
X0120436Y0085436D02*
X0106506Y0085436D01*
X0106506Y0084438D02*
X0119438Y0084438D01*
X0118439Y0083439D02*
X0106506Y0083439D01*
X0106506Y0082441D02*
X0117441Y0082441D01*
X0116506Y0081442D02*
X0106506Y0081442D01*
X0106506Y0080444D02*
X0116506Y0080444D01*
X0116506Y0079445D02*
X0106456Y0079445D01*
X0105639Y0078447D02*
X0116506Y0078447D01*
X0116506Y0077448D02*
X0104822Y0077448D01*
X0104005Y0076450D02*
X0116506Y0076450D01*
X0116506Y0075451D02*
X0103188Y0075451D01*
X0102372Y0074453D02*
X0116506Y0074453D01*
X0116506Y0073454D02*
X0101555Y0073454D01*
X0100738Y0072456D02*
X0116506Y0072456D01*
X0116506Y0071457D02*
X0099921Y0071457D01*
X0099104Y0070459D02*
X0116506Y0070459D01*
X0116506Y0069460D02*
X0098287Y0069460D01*
X0096561Y0071457D02*
X0084232Y0071457D01*
X0083234Y0072456D02*
X0097378Y0072456D01*
X0098195Y0073454D02*
X0082235Y0073454D01*
X0081237Y0074453D02*
X0099012Y0074453D01*
X0099829Y0075451D02*
X0080238Y0075451D01*
X0079240Y0076450D02*
X0100646Y0076450D01*
X0101463Y0077448D02*
X0078241Y0077448D01*
X0077243Y0078447D02*
X0102280Y0078447D01*
X0103097Y0079445D02*
X0076244Y0079445D01*
X0075246Y0080444D02*
X0103906Y0080444D01*
X0103906Y0081442D02*
X0074247Y0081442D01*
X0073249Y0082441D02*
X0082517Y0082441D01*
X0082120Y0083439D02*
X0041006Y0083439D01*
X0041006Y0082441D02*
X0043764Y0082441D01*
X0042765Y0081442D02*
X0041006Y0081442D01*
X0041006Y0080444D02*
X0041767Y0080444D01*
X0041081Y0079445D02*
X0041006Y0079445D01*
X0043506Y0078506D02*
X0045506Y0080506D01*
X0071506Y0080506D01*
X0083007Y0069005D01*
X0081908Y0069005D01*
X0081908Y0063806D01*
X0080908Y0063806D01*
X0080908Y0069005D01*
X0078837Y0069005D01*
X0078506Y0068917D01*
X0078210Y0068745D01*
X0077968Y0068503D01*
X0077797Y0068207D01*
X0077708Y0067876D01*
X0077708Y0063805D01*
X0080908Y0063805D01*
X0080908Y0062806D01*
X0077708Y0062806D01*
X0077708Y0058735D01*
X0077797Y0058404D01*
X0077968Y0058108D01*
X0078210Y0057866D01*
X0078506Y0057695D01*
X0078837Y0057606D01*
X0080908Y0057606D01*
X0080908Y0062805D01*
X0081908Y0062805D01*
X0081908Y0057606D01*
X0083506Y0057606D01*
X0083506Y0057318D01*
X0082006Y0057318D01*
X0082006Y0054451D01*
X0081006Y0054451D01*
X0081006Y0053451D01*
X0078080Y0053451D01*
X0078080Y0052932D01*
X0077506Y0053506D01*
X0077506Y0056506D01*
X0075759Y0058254D01*
X0075759Y0059746D01*
X0072006Y0059746D01*
X0072006Y0060746D01*
X0075759Y0060746D01*
X0075759Y0062977D01*
X0075670Y0063307D01*
X0075499Y0063604D01*
X0075257Y0063846D01*
X0074961Y0064017D01*
X0074630Y0064105D01*
X0072006Y0064105D01*
X0072006Y0060746D01*
X0071006Y0060746D01*
X0071006Y0059746D01*
X0067254Y0059746D01*
X0067254Y0058759D01*
X0064506Y0061506D01*
X0064506Y0066506D01*
X0060506Y0070506D01*
X0045506Y0070506D01*
X0043506Y0072506D01*
X0043506Y0078506D01*
X0043506Y0078447D02*
X0047366Y0078447D01*
X0047226Y0078308D02*
X0046829Y0077760D01*
X0046521Y0077157D01*
X0046312Y0076513D01*
X0046232Y0076006D01*
X0053006Y0076006D01*
X0053006Y0075006D01*
X0054006Y0075006D01*
X0054006Y0071206D01*
X0056845Y0071206D01*
X0057513Y0071312D01*
X0058157Y0071521D01*
X0058760Y0071829D01*
X0059308Y0072226D01*
X0059786Y0072705D01*
X0060184Y0073253D01*
X0060491Y0073856D01*
X0060700Y0074499D01*
X0060781Y0075006D01*
X0054006Y0075006D01*
X0054006Y0076006D01*
X0053006Y0076006D01*
X0053006Y0079806D01*
X0050168Y0079806D01*
X0049499Y0079700D01*
X0048856Y0079491D01*
X0048253Y0079184D01*
X0047705Y0078786D01*
X0047226Y0078308D01*
X0046670Y0077448D02*
X0043506Y0077448D01*
X0043506Y0076450D02*
X0046302Y0076450D01*
X0046232Y0075006D02*
X0046312Y0074499D01*
X0046521Y0073856D01*
X0046829Y0073253D01*
X0047226Y0072705D01*
X0047705Y0072226D01*
X0048253Y0071829D01*
X0048856Y0071521D01*
X0049499Y0071312D01*
X0050168Y0071206D01*
X0053006Y0071206D01*
X0053006Y0075006D01*
X0046232Y0075006D01*
X0046327Y0074453D02*
X0043506Y0074453D01*
X0043506Y0075451D02*
X0053006Y0075451D01*
X0053006Y0074453D02*
X0054006Y0074453D01*
X0054006Y0075451D02*
X0076561Y0075451D01*
X0075563Y0076450D02*
X0060710Y0076450D01*
X0060700Y0076513D02*
X0060491Y0077157D01*
X0060184Y0077760D01*
X0059786Y0078308D01*
X0059308Y0078786D01*
X0058760Y0079184D01*
X0058157Y0079491D01*
X0057513Y0079700D01*
X0056845Y0079806D01*
X0054006Y0079806D01*
X0054006Y0076006D01*
X0060781Y0076006D01*
X0060700Y0076513D01*
X0060343Y0077448D02*
X0074564Y0077448D01*
X0073566Y0078447D02*
X0059647Y0078447D01*
X0058247Y0079445D02*
X0072567Y0079445D01*
X0071569Y0080444D02*
X0045444Y0080444D01*
X0044445Y0079445D02*
X0048765Y0079445D01*
X0053006Y0079445D02*
X0054006Y0079445D01*
X0054006Y0078447D02*
X0053006Y0078447D01*
X0053006Y0077448D02*
X0054006Y0077448D01*
X0054006Y0076450D02*
X0053006Y0076450D01*
X0053006Y0073454D02*
X0054006Y0073454D01*
X0054006Y0072456D02*
X0053006Y0072456D01*
X0053006Y0071457D02*
X0054006Y0071457D01*
X0057959Y0071457D02*
X0080555Y0071457D01*
X0079557Y0072456D02*
X0059537Y0072456D01*
X0060287Y0073454D02*
X0078558Y0073454D01*
X0077560Y0074453D02*
X0060685Y0074453D01*
X0060554Y0070459D02*
X0081554Y0070459D01*
X0082552Y0069460D02*
X0061552Y0069460D01*
X0062551Y0068462D02*
X0077944Y0068462D01*
X0077708Y0067463D02*
X0063549Y0067463D01*
X0064506Y0066465D02*
X0077708Y0066465D01*
X0077708Y0065466D02*
X0064506Y0065466D01*
X0064506Y0064468D02*
X0077708Y0064468D01*
X0077708Y0062471D02*
X0075759Y0062471D01*
X0075759Y0061472D02*
X0077708Y0061472D01*
X0077708Y0060474D02*
X0072006Y0060474D01*
X0072006Y0061472D02*
X0071006Y0061472D01*
X0071006Y0060746D02*
X0071006Y0064105D01*
X0068382Y0064105D01*
X0068052Y0064017D01*
X0067755Y0063846D01*
X0067513Y0063604D01*
X0067342Y0063307D01*
X0067254Y0062977D01*
X0067254Y0060746D01*
X0071006Y0060746D01*
X0071006Y0060474D02*
X0065539Y0060474D01*
X0064541Y0061472D02*
X0067254Y0061472D01*
X0067254Y0062471D02*
X0064506Y0062471D01*
X0064506Y0063469D02*
X0067436Y0063469D01*
X0071006Y0063469D02*
X0072006Y0063469D01*
X0072006Y0062471D02*
X0071006Y0062471D01*
X0067254Y0059475D02*
X0066538Y0059475D01*
X0060871Y0066465D02*
X0060708Y0066465D01*
X0054006Y0063469D02*
X0053006Y0063469D01*
X0053006Y0062471D02*
X0054006Y0062471D01*
X0054006Y0061472D02*
X0053006Y0061472D01*
X0049171Y0060474D02*
X0041006Y0060474D01*
X0041006Y0061472D02*
X0049007Y0061472D01*
X0047461Y0062471D02*
X0041006Y0062471D01*
X0041006Y0063469D02*
X0046718Y0063469D01*
X0046323Y0064468D02*
X0041006Y0064468D01*
X0041006Y0059475D02*
X0047263Y0059475D01*
X0046264Y0058477D02*
X0041006Y0058477D01*
X0041006Y0057478D02*
X0045803Y0057478D01*
X0045406Y0056480D02*
X0041006Y0056480D01*
X0041006Y0055481D02*
X0045406Y0055481D01*
X0045410Y0054482D02*
X0041006Y0054482D01*
X0041006Y0053484D02*
X0045824Y0053484D01*
X0046315Y0052485D02*
X0041006Y0052485D01*
X0041006Y0051487D02*
X0047313Y0051487D01*
X0049294Y0050488D02*
X0041006Y0050488D01*
X0041006Y0049490D02*
X0067466Y0049490D01*
X0067254Y0050488D02*
X0057719Y0050488D01*
X0075759Y0050488D02*
X0076847Y0050488D01*
X0075849Y0051487D02*
X0075759Y0051487D01*
X0077529Y0053484D02*
X0081006Y0053484D01*
X0081006Y0054451D02*
X0078080Y0054451D01*
X0078080Y0056189D01*
X0078169Y0056520D01*
X0078340Y0056816D01*
X0078582Y0057058D01*
X0078879Y0057230D01*
X0079209Y0057318D01*
X0081006Y0057318D01*
X0081006Y0054451D01*
X0081006Y0054482D02*
X0082006Y0054482D01*
X0082006Y0055481D02*
X0081006Y0055481D01*
X0081006Y0056480D02*
X0082006Y0056480D01*
X0083506Y0057478D02*
X0076535Y0057478D01*
X0075759Y0058477D02*
X0077777Y0058477D01*
X0077708Y0059475D02*
X0075759Y0059475D01*
X0075577Y0063469D02*
X0080908Y0063469D01*
X0080908Y0062471D02*
X0081908Y0062471D01*
X0081908Y0061472D02*
X0080908Y0061472D01*
X0080908Y0060474D02*
X0081908Y0060474D01*
X0081908Y0059475D02*
X0080908Y0059475D01*
X0080908Y0058477D02*
X0081908Y0058477D01*
X0078158Y0056480D02*
X0077506Y0056480D01*
X0077506Y0055481D02*
X0078080Y0055481D01*
X0078080Y0054482D02*
X0077506Y0054482D01*
X0080908Y0064468D02*
X0081908Y0064468D01*
X0081908Y0065466D02*
X0080908Y0065466D01*
X0080908Y0066465D02*
X0081908Y0066465D01*
X0081908Y0067463D02*
X0080908Y0067463D01*
X0080908Y0068462D02*
X0081908Y0068462D01*
X0085231Y0070459D02*
X0095744Y0070459D01*
X0095078Y0069460D02*
X0085925Y0069460D01*
X0086106Y0068462D02*
X0087042Y0068462D01*
X0086807Y0067463D02*
X0086106Y0067463D01*
X0086106Y0066465D02*
X0086807Y0066465D01*
X0086807Y0065466D02*
X0086106Y0065466D01*
X0086106Y0064468D02*
X0086807Y0064468D01*
X0090006Y0082441D02*
X0091006Y0082441D01*
X0091006Y0083439D02*
X0090006Y0083439D01*
X0090006Y0084438D02*
X0091006Y0084438D01*
X0091006Y0085436D02*
X0090006Y0085436D01*
X0090006Y0086435D02*
X0091006Y0086435D01*
X0091006Y0087433D02*
X0103906Y0087433D01*
X0103906Y0086435D02*
X0098893Y0086435D01*
X0098893Y0085436D02*
X0103906Y0085436D01*
X0103906Y0084438D02*
X0098893Y0084438D01*
X0098893Y0083439D02*
X0103906Y0083439D01*
X0103906Y0082441D02*
X0098496Y0082441D01*
X0098893Y0088432D02*
X0103906Y0088432D01*
X0103906Y0089430D02*
X0098893Y0089430D01*
X0098893Y0090429D02*
X0103906Y0090429D01*
X0103906Y0091427D02*
X0098893Y0091427D01*
X0104590Y0094423D02*
X0203423Y0094423D01*
X0203506Y0095421D02*
X0080591Y0095421D01*
X0079593Y0096420D02*
X0203506Y0096420D01*
X0203506Y0097418D02*
X0078594Y0097418D01*
X0077596Y0098417D02*
X0083596Y0098417D01*
X0082597Y0099415D02*
X0076597Y0099415D01*
X0075599Y0100414D02*
X0081599Y0100414D01*
X0080600Y0101413D02*
X0074600Y0101413D01*
X0073602Y0102411D02*
X0079602Y0102411D01*
X0078603Y0103410D02*
X0073506Y0103410D01*
X0073506Y0104408D02*
X0077605Y0104408D01*
X0077506Y0105407D02*
X0073506Y0105407D01*
X0073506Y0106405D02*
X0077506Y0106405D01*
X0077506Y0107404D02*
X0073506Y0107404D01*
X0073506Y0108402D02*
X0077506Y0108402D01*
X0077506Y0109401D02*
X0073506Y0109401D01*
X0073506Y0110399D02*
X0077506Y0110399D01*
X0077506Y0111398D02*
X0073506Y0111398D01*
X0073506Y0112396D02*
X0077506Y0112396D01*
X0077506Y0113395D02*
X0073506Y0113395D01*
X0073506Y0114393D02*
X0077506Y0114393D01*
X0077506Y0115392D02*
X0073506Y0115392D01*
X0073506Y0116390D02*
X0077506Y0116390D01*
X0077506Y0117389D02*
X0073506Y0117389D01*
X0073506Y0118387D02*
X0077506Y0118387D01*
X0077506Y0119386D02*
X0073506Y0119386D01*
X0073506Y0120384D02*
X0077506Y0120384D01*
X0077506Y0121383D02*
X0073506Y0121383D01*
X0073506Y0122381D02*
X0077506Y0122381D01*
X0077380Y0123380D02*
X0073506Y0123380D01*
X0072634Y0124378D02*
X0076927Y0124378D01*
X0076668Y0124773D02*
X0076668Y0128435D01*
X0076668Y0128435D01*
X0076668Y0124773D01*
X0076668Y0125377D02*
X0076668Y0125377D01*
X0076668Y0126375D02*
X0076668Y0126375D01*
X0076668Y0127374D02*
X0076668Y0127374D01*
X0076668Y0128372D02*
X0076668Y0128372D01*
X0076668Y0128435D02*
X0074580Y0128435D01*
X0076668Y0128435D01*
X0076668Y0128435D01*
X0074580Y0128372D02*
X0068640Y0128372D01*
X0068506Y0129371D02*
X0074580Y0129371D01*
X0074580Y0130369D02*
X0073272Y0130369D01*
X0073432Y0131368D02*
X0074506Y0131368D01*
X0074506Y0132366D02*
X0073432Y0132366D01*
X0074506Y0133365D02*
X0070506Y0133365D01*
X0070506Y0132366D02*
X0069506Y0132366D01*
X0069506Y0131368D02*
X0070506Y0131368D01*
X0070506Y0130369D02*
X0069506Y0130369D01*
X0069639Y0127374D02*
X0074580Y0127374D01*
X0074580Y0126375D02*
X0070637Y0126375D01*
X0071636Y0125377D02*
X0074781Y0125377D01*
X0069956Y0123380D02*
X0041006Y0123380D01*
X0041006Y0124378D02*
X0068957Y0124378D01*
X0067959Y0125377D02*
X0041006Y0125377D01*
X0041006Y0126375D02*
X0066960Y0126375D01*
X0066161Y0127374D02*
X0041006Y0127374D01*
X0041006Y0128372D02*
X0065906Y0128372D01*
X0065906Y0129371D02*
X0041006Y0129371D01*
X0041006Y0130369D02*
X0065780Y0130369D01*
X0065780Y0131368D02*
X0041006Y0131368D01*
X0041006Y0132366D02*
X0065780Y0132366D01*
X0065780Y0133365D02*
X0041006Y0133365D01*
X0041006Y0134363D02*
X0065780Y0134363D01*
X0065780Y0135362D02*
X0041006Y0135362D01*
X0041006Y0136360D02*
X0066143Y0136360D01*
X0066683Y0137359D02*
X0041006Y0137359D01*
X0041006Y0138357D02*
X0066580Y0138357D01*
X0066580Y0139356D02*
X0041006Y0139356D01*
X0048106Y0140354D02*
X0049106Y0140354D01*
X0049106Y0141353D02*
X0048106Y0141353D01*
X0048106Y0142351D02*
X0049106Y0142351D01*
X0049106Y0143350D02*
X0048106Y0143350D01*
X0048106Y0144348D02*
X0049106Y0144348D01*
X0049106Y0145347D02*
X0048106Y0145347D01*
X0048106Y0146346D02*
X0041006Y0146346D01*
X0048106Y0147344D02*
X0049106Y0147344D01*
X0049106Y0146346D02*
X0073780Y0146346D01*
X0073780Y0147344D02*
X0059906Y0147344D01*
X0059906Y0148343D02*
X0073968Y0148343D01*
X0074024Y0149341D02*
X0059906Y0149341D01*
X0059906Y0150340D02*
X0074521Y0150340D01*
X0075520Y0151338D02*
X0059685Y0151338D01*
X0060232Y0156331D02*
X0041006Y0156331D01*
X0041006Y0155332D02*
X0086361Y0155332D01*
X0086395Y0154334D02*
X0041006Y0154334D01*
X0041006Y0153335D02*
X0086859Y0153335D01*
X0087858Y0152337D02*
X0041006Y0152337D01*
X0048106Y0151338D02*
X0049106Y0151338D01*
X0049106Y0150340D02*
X0048106Y0150340D01*
X0048106Y0149341D02*
X0049106Y0149341D01*
X0049106Y0148343D02*
X0048106Y0148343D01*
X0059906Y0145347D02*
X0073780Y0145347D01*
X0073780Y0144348D02*
X0059906Y0144348D01*
X0059906Y0143350D02*
X0073780Y0143350D01*
X0073780Y0142351D02*
X0073389Y0142351D01*
X0073432Y0141353D02*
X0073780Y0141353D01*
X0074771Y0140354D02*
X0070506Y0140354D01*
X0070506Y0141353D02*
X0069506Y0141353D01*
X0069506Y0142351D02*
X0070506Y0142351D01*
X0069506Y0140354D02*
X0058957Y0140354D01*
X0059884Y0141353D02*
X0066580Y0141353D01*
X0066624Y0142351D02*
X0059906Y0142351D01*
X0073432Y0139356D02*
X0075506Y0139356D01*
X0075506Y0138357D02*
X0073432Y0138357D01*
X0073330Y0137359D02*
X0075506Y0137359D01*
X0076329Y0136360D02*
X0080006Y0136360D01*
X0080006Y0136006D02*
X0081006Y0136006D01*
X0081006Y0132898D01*
X0080006Y0132898D01*
X0080006Y0136006D01*
X0080006Y0135362D02*
X0081006Y0135362D01*
X0081006Y0136006D02*
X0081006Y0137006D01*
X0080006Y0137006D01*
X0080006Y0140115D01*
X0081006Y0140115D01*
X0081006Y0137006D01*
X0085507Y0137006D01*
X0085507Y0139985D01*
X0085472Y0140115D01*
X0086002Y0140115D01*
X0087232Y0141345D01*
X0087232Y0146806D01*
X0089388Y0146806D01*
X0089806Y0146388D01*
X0089806Y0144118D01*
X0088510Y0144118D01*
X0087280Y0142888D01*
X0087280Y0137014D01*
X0088354Y0135941D01*
X0088340Y0135927D01*
X0088169Y0135630D01*
X0088080Y0135299D01*
X0088080Y0133561D01*
X0091006Y0133561D01*
X0091006Y0132561D01*
X0092006Y0132561D01*
X0092006Y0129694D01*
X0093803Y0129694D01*
X0093975Y0129741D01*
X0093975Y0125400D01*
X0094017Y0125359D01*
X0094017Y0124693D01*
X0093529Y0124206D01*
X0090969Y0124206D01*
X0089977Y0123795D01*
X0089217Y0123036D01*
X0086388Y0120206D01*
X0083969Y0120206D01*
X0082977Y0119795D01*
X0082217Y0119036D01*
X0080871Y0117689D01*
X0080491Y0116772D01*
X0080321Y0116772D01*
X0080106Y0116556D01*
X0080106Y0121206D01*
X0081543Y0121206D01*
X0082536Y0121617D01*
X0083315Y0122397D01*
X0084075Y0123156D01*
X0084486Y0124149D01*
X0084486Y0124773D01*
X0085303Y0124773D01*
X0085634Y0124862D01*
X0085930Y0125033D01*
X0086173Y0125275D01*
X0086344Y0125571D01*
X0086432Y0125902D01*
X0086432Y0128435D01*
X0084673Y0128435D01*
X0084673Y0128435D01*
X0086432Y0128435D01*
X0086432Y0130969D01*
X0086344Y0131299D01*
X0086173Y0131596D01*
X0085930Y0131838D01*
X0085634Y0132009D01*
X0085303Y0132098D01*
X0084899Y0132098D01*
X0085005Y0132159D01*
X0085247Y0132401D01*
X0085418Y0132697D01*
X0085507Y0133028D01*
X0085507Y0136006D01*
X0081006Y0136006D01*
X0081006Y0136360D02*
X0087934Y0136360D01*
X0088097Y0135362D02*
X0085507Y0135362D01*
X0085507Y0134363D02*
X0088080Y0134363D01*
X0088080Y0132561D02*
X0088080Y0130823D01*
X0088169Y0130493D01*
X0088340Y0130196D01*
X0088582Y0129954D01*
X0088879Y0129783D01*
X0089209Y0129694D01*
X0091006Y0129694D01*
X0091006Y0132561D01*
X0088080Y0132561D01*
X0088080Y0132366D02*
X0085213Y0132366D01*
X0085507Y0133365D02*
X0091006Y0133365D01*
X0091006Y0132366D02*
X0092006Y0132366D01*
X0092006Y0132561D02*
X0092006Y0133561D01*
X0094932Y0133561D01*
X0094932Y0135299D01*
X0094844Y0135630D01*
X0094673Y0135927D01*
X0094658Y0135941D01*
X0095732Y0137014D01*
X0095732Y0137251D01*
X0099488Y0137251D01*
X0100481Y0137662D01*
X0101240Y0138422D01*
X0102795Y0139977D01*
X0103206Y0140969D01*
X0103206Y0141099D01*
X0111807Y0141099D01*
X0113037Y0142329D01*
X0113037Y0145806D01*
X0115043Y0145806D01*
X0116036Y0146217D01*
X0123382Y0153564D01*
X0124142Y0154323D01*
X0124553Y0155316D01*
X0124553Y0156241D01*
X0124691Y0156241D01*
X0126324Y0156241D01*
X0126254Y0155977D01*
X0126254Y0153746D01*
X0130006Y0153746D01*
X0130006Y0152746D01*
X0126254Y0152746D01*
X0126254Y0150516D01*
X0126342Y0150186D01*
X0126379Y0150121D01*
X0125694Y0149436D01*
X0125580Y0149389D01*
X0124624Y0148432D01*
X0124106Y0147183D01*
X0124106Y0127330D01*
X0124158Y0127206D01*
X0118625Y0127206D01*
X0117206Y0128625D01*
X0117206Y0131043D01*
X0116795Y0132036D01*
X0116036Y0132795D01*
X0114036Y0134795D01*
X0113043Y0135206D01*
X0105527Y0135206D01*
X0105012Y0135214D01*
X0104991Y0135206D01*
X0104969Y0135206D01*
X0104492Y0135009D01*
X0104013Y0134819D01*
X0103997Y0134804D01*
X0103977Y0134795D01*
X0103612Y0134430D01*
X0102226Y0133087D01*
X0101799Y0132102D01*
X0101796Y0131913D01*
X0095205Y0131913D01*
X0094932Y0131640D01*
X0094932Y0132561D01*
X0092006Y0132561D01*
X0092006Y0133365D02*
X0102512Y0133365D01*
X0101914Y0132366D02*
X0094932Y0132366D01*
X0094932Y0134363D02*
X0103543Y0134363D01*
X0103506Y0136506D02*
X0102506Y0137506D01*
X0102506Y0144506D01*
X0102522Y0144971D02*
X0102522Y0147491D01*
X0098506Y0151506D01*
X0098506Y0154506D01*
X0097651Y0154334D02*
X0099361Y0154334D01*
X0099361Y0155332D02*
X0097651Y0155332D01*
X0097651Y0156280D02*
X0097651Y0153180D01*
X0099361Y0151470D01*
X0099361Y0156280D01*
X0099125Y0156280D01*
X0099006Y0156399D01*
X0098888Y0156280D01*
X0097651Y0156280D01*
X0098938Y0156331D02*
X0099074Y0156331D01*
X0099361Y0153335D02*
X0097651Y0153335D01*
X0098494Y0152337D02*
X0099361Y0152337D01*
X0102061Y0150920D02*
X0104491Y0148491D01*
X0104491Y0144971D01*
X0106459Y0144971D02*
X0106459Y0148459D01*
X0108506Y0150506D01*
X0109506Y0148506D02*
X0108428Y0147428D01*
X0108428Y0144971D01*
X0113037Y0145347D02*
X0124106Y0145347D01*
X0124106Y0144348D02*
X0113037Y0144348D01*
X0113037Y0143350D02*
X0124106Y0143350D01*
X0124106Y0142351D02*
X0113037Y0142351D01*
X0112061Y0141353D02*
X0124106Y0141353D01*
X0124106Y0140354D02*
X0102952Y0140354D01*
X0102174Y0139356D02*
X0124106Y0139356D01*
X0124106Y0138357D02*
X0101176Y0138357D01*
X0099748Y0137359D02*
X0124106Y0137359D01*
X0124106Y0136360D02*
X0095078Y0136360D01*
X0094916Y0135362D02*
X0124106Y0135362D01*
X0124106Y0134363D02*
X0114468Y0134363D01*
X0115466Y0133365D02*
X0124106Y0133365D01*
X0124106Y0132366D02*
X0116465Y0132366D01*
X0117072Y0131368D02*
X0124106Y0131368D01*
X0124106Y0130369D02*
X0117206Y0130369D01*
X0117206Y0129371D02*
X0124106Y0129371D01*
X0124106Y0128372D02*
X0117459Y0128372D01*
X0118457Y0127374D02*
X0124106Y0127374D01*
X0127506Y0128006D02*
X0133506Y0128006D01*
X0133506Y0141907D01*
X0131006Y0141907D01*
X0131006Y0145266D01*
X0130006Y0145266D01*
X0130006Y0141907D01*
X0127506Y0141907D01*
X0127506Y0128006D01*
X0127506Y0128372D02*
X0133506Y0128372D01*
X0133506Y0129371D02*
X0127506Y0129371D01*
X0127506Y0130369D02*
X0133506Y0130369D01*
X0133506Y0131368D02*
X0127506Y0131368D01*
X0127506Y0132366D02*
X0133506Y0132366D01*
X0133506Y0133365D02*
X0127506Y0133365D01*
X0127506Y0134363D02*
X0133506Y0134363D01*
X0133506Y0135362D02*
X0127506Y0135362D01*
X0127506Y0136360D02*
X0133506Y0136360D01*
X0133506Y0137359D02*
X0127506Y0137359D01*
X0127506Y0138357D02*
X0133506Y0138357D01*
X0133506Y0139356D02*
X0127506Y0139356D01*
X0127506Y0140354D02*
X0133506Y0140354D01*
X0133506Y0141353D02*
X0127506Y0141353D01*
X0130006Y0142351D02*
X0131006Y0142351D01*
X0131006Y0143350D02*
X0130006Y0143350D01*
X0130006Y0144348D02*
X0131006Y0144348D01*
X0136906Y0141894D02*
X0140502Y0141894D01*
X0141406Y0142799D01*
X0141406Y0138623D01*
X0142106Y0137923D01*
X0142106Y0134429D01*
X0142548Y0133364D01*
X0144405Y0131506D01*
X0142548Y0129649D01*
X0142106Y0128583D01*
X0142106Y0125090D01*
X0141406Y0124390D01*
X0141406Y0118150D01*
X0142636Y0116920D01*
X0145726Y0116920D01*
X0145694Y0116803D01*
X0145694Y0115006D01*
X0148561Y0115006D01*
X0148561Y0114006D01*
X0145694Y0114006D01*
X0145694Y0112209D01*
X0145695Y0112206D01*
X0143625Y0112206D01*
X0138206Y0117625D01*
X0138206Y0122043D01*
X0137795Y0123036D01*
X0137036Y0123795D01*
X0135570Y0125261D01*
X0136389Y0126080D01*
X0136906Y0127330D01*
X0136906Y0141894D01*
X0136906Y0141353D02*
X0141406Y0141353D01*
X0141406Y0142351D02*
X0140959Y0142351D01*
X0141406Y0140354D02*
X0136906Y0140354D01*
X0136906Y0139356D02*
X0141406Y0139356D01*
X0141672Y0138357D02*
X0136906Y0138357D01*
X0136906Y0137359D02*
X0142106Y0137359D01*
X0142106Y0136360D02*
X0136906Y0136360D01*
X0136906Y0135362D02*
X0142106Y0135362D01*
X0142134Y0134363D02*
X0136906Y0134363D01*
X0136906Y0133365D02*
X0142547Y0133365D01*
X0143545Y0132366D02*
X0136906Y0132366D01*
X0136906Y0131368D02*
X0144267Y0131368D01*
X0143268Y0130369D02*
X0136906Y0130369D01*
X0136906Y0129371D02*
X0142433Y0129371D01*
X0142106Y0128372D02*
X0136906Y0128372D01*
X0136906Y0127374D02*
X0142106Y0127374D01*
X0142106Y0126375D02*
X0136511Y0126375D01*
X0135685Y0125377D02*
X0142106Y0125377D01*
X0141406Y0124378D02*
X0136453Y0124378D01*
X0137451Y0123380D02*
X0141406Y0123380D01*
X0141406Y0122381D02*
X0138066Y0122381D01*
X0138206Y0121383D02*
X0141406Y0121383D01*
X0141406Y0120384D02*
X0138206Y0120384D01*
X0138206Y0119386D02*
X0141406Y0119386D01*
X0141406Y0118387D02*
X0138206Y0118387D01*
X0138442Y0117389D02*
X0142168Y0117389D01*
X0140439Y0115392D02*
X0145694Y0115392D01*
X0145694Y0116390D02*
X0139441Y0116390D01*
X0141438Y0114393D02*
X0148561Y0114393D01*
X0145694Y0113395D02*
X0142436Y0113395D01*
X0143435Y0112396D02*
X0145694Y0112396D01*
X0155506Y0113951D02*
X0155951Y0114506D01*
X0162906Y0114393D02*
X0174716Y0114393D01*
X0173718Y0113395D02*
X0162906Y0113395D01*
X0162906Y0112396D02*
X0172719Y0112396D01*
X0171721Y0111398D02*
X0162906Y0111398D01*
X0162906Y0110399D02*
X0170722Y0110399D01*
X0171034Y0110710D02*
X0170302Y0109979D01*
X0169906Y0109023D01*
X0169906Y0104583D01*
X0168429Y0103106D01*
X0159207Y0103106D01*
X0161649Y0105548D01*
X0162465Y0106364D01*
X0162906Y0107429D01*
X0162906Y0117450D01*
X0163606Y0118150D01*
X0163606Y0120740D01*
X0163929Y0120606D01*
X0170083Y0120606D01*
X0171149Y0121048D01*
X0172965Y0122864D01*
X0173406Y0123929D01*
X0173406Y0124241D01*
X0176054Y0124241D01*
X0176354Y0123941D01*
X0176340Y0123927D01*
X0176169Y0123630D01*
X0176080Y0123299D01*
X0176080Y0121561D01*
X0179006Y0121561D01*
X0179006Y0120561D01*
X0176080Y0120561D01*
X0176080Y0118823D01*
X0176169Y0118493D01*
X0176340Y0118196D01*
X0176582Y0117954D01*
X0176879Y0117783D01*
X0177209Y0117694D01*
X0178018Y0117694D01*
X0171034Y0110710D01*
X0170063Y0109401D02*
X0162906Y0109401D01*
X0162906Y0108402D02*
X0169906Y0108402D01*
X0169906Y0107404D02*
X0162896Y0107404D01*
X0162482Y0106405D02*
X0169906Y0106405D01*
X0169906Y0105407D02*
X0161508Y0105407D01*
X0160509Y0104408D02*
X0169731Y0104408D01*
X0168733Y0103410D02*
X0159511Y0103410D01*
X0170413Y0101413D02*
X0180600Y0101413D01*
X0180506Y0102411D02*
X0171411Y0102411D01*
X0172410Y0103410D02*
X0180506Y0103410D01*
X0180506Y0104408D02*
X0172506Y0104408D01*
X0172506Y0105407D02*
X0180506Y0105407D01*
X0180506Y0106405D02*
X0172506Y0106405D01*
X0172506Y0107404D02*
X0180506Y0107404D01*
X0181313Y0108402D02*
X0172506Y0108402D01*
X0173401Y0109401D02*
X0182211Y0109401D01*
X0183110Y0110399D02*
X0174399Y0110399D01*
X0175398Y0111398D02*
X0184009Y0111398D01*
X0184907Y0112396D02*
X0176396Y0112396D01*
X0177395Y0113395D02*
X0185806Y0113395D01*
X0186704Y0114393D02*
X0178393Y0114393D01*
X0179392Y0115392D02*
X0187603Y0115392D01*
X0187745Y0116390D02*
X0180390Y0116390D01*
X0182431Y0117389D02*
X0187663Y0117389D01*
X0187663Y0118387D02*
X0183332Y0118387D01*
X0183386Y0119386D02*
X0187663Y0119386D01*
X0187663Y0120518D02*
X0192006Y0120518D01*
X0192006Y0124468D01*
X0188792Y0124468D01*
X0188461Y0124379D01*
X0188165Y0124208D01*
X0187923Y0123966D01*
X0187752Y0123669D01*
X0187663Y0123339D01*
X0187663Y0120518D01*
X0187663Y0121383D02*
X0183506Y0121383D01*
X0183506Y0122381D02*
X0187663Y0122381D01*
X0187674Y0123380D02*
X0183506Y0123380D01*
X0183506Y0124378D02*
X0188460Y0124378D01*
X0192006Y0124378D02*
X0193006Y0124378D01*
X0193006Y0124468D02*
X0193006Y0120518D01*
X0197350Y0120518D01*
X0197350Y0121451D01*
X0199006Y0121451D01*
X0199006Y0120451D01*
X0200006Y0120451D01*
X0200006Y0121451D01*
X0199006Y0121451D01*
X0199006Y0124318D01*
X0197209Y0124318D01*
X0196879Y0124230D01*
X0196845Y0124210D01*
X0196551Y0124379D01*
X0196221Y0124468D01*
X0193006Y0124468D01*
X0193006Y0123380D02*
X0192006Y0123380D01*
X0192006Y0122381D02*
X0193006Y0122381D01*
X0193006Y0121383D02*
X0192006Y0121383D01*
X0192006Y0120384D02*
X0183506Y0120384D01*
X0179006Y0121383D02*
X0171484Y0121383D01*
X0172482Y0122381D02*
X0176080Y0122381D01*
X0176102Y0123380D02*
X0173179Y0123380D01*
X0170506Y0124506D02*
X0170506Y0138506D01*
X0173406Y0138772D02*
X0173406Y0139083D01*
X0172965Y0140149D01*
X0171965Y0141149D01*
X0171149Y0141965D01*
X0170083Y0142406D01*
X0163929Y0142406D01*
X0163606Y0142272D01*
X0163606Y0144862D01*
X0162906Y0145562D01*
X0162906Y0157583D01*
X0162465Y0158649D01*
X0161649Y0159465D01*
X0158149Y0162965D01*
X0157083Y0163406D01*
X0150921Y0163406D01*
X0150921Y0163541D01*
X0149691Y0164772D01*
X0144014Y0164772D01*
X0143506Y0164264D01*
X0142998Y0164772D01*
X0137321Y0164772D01*
X0137006Y0164456D01*
X0136691Y0164772D01*
X0131014Y0164772D01*
X0130506Y0164264D01*
X0129998Y0164772D01*
X0126118Y0164772D01*
X0126118Y0169502D01*
X0124888Y0170732D01*
X0119014Y0170732D01*
X0118506Y0170224D01*
X0117998Y0170732D01*
X0112921Y0170732D01*
X0112921Y0175541D01*
X0111691Y0176772D01*
X0106014Y0176772D01*
X0105506Y0176264D01*
X0104998Y0176772D01*
X0100772Y0176772D01*
X0100772Y0181691D01*
X0099541Y0182921D01*
X0093471Y0182921D01*
X0092703Y0182153D01*
X0092310Y0182153D01*
X0091541Y0182921D01*
X0085471Y0182921D01*
X0084241Y0181691D01*
X0084241Y0176014D01*
X0084749Y0175506D01*
X0084241Y0174998D01*
X0084241Y0170772D01*
X0080014Y0170772D01*
X0079506Y0170264D01*
X0078998Y0170772D01*
X0073321Y0170772D01*
X0073006Y0170456D01*
X0072691Y0170772D01*
X0067014Y0170772D01*
X0066506Y0170264D01*
X0065998Y0170772D01*
X0060321Y0170772D01*
X0059566Y0170016D01*
X0059476Y0170106D01*
X0041006Y0170106D01*
X0041006Y0175106D01*
X0048106Y0175106D01*
X0048106Y0180406D01*
X0049106Y0180406D01*
X0049106Y0175106D01*
X0058777Y0175106D01*
X0059108Y0175195D01*
X0059405Y0175366D01*
X0059647Y0175608D01*
X0059818Y0175905D01*
X0059906Y0176235D01*
X0059906Y0180406D01*
X0049106Y0180406D01*
X0049106Y0181406D01*
X0048106Y0181406D01*
X0048106Y0180406D01*
X0041006Y0180406D01*
X0041006Y0181406D01*
X0048106Y0181406D01*
X0048106Y0186706D01*
X0041006Y0186706D01*
X0041006Y0196006D01*
X0296006Y0196006D01*
X0296006Y0041006D01*
X0228706Y0041006D01*
X0228706Y0048106D01*
X0223406Y0048106D01*
X0223406Y0041006D01*
X0222406Y0041006D01*
X0222406Y0048106D01*
X0223406Y0048106D01*
X0223406Y0049106D01*
X0222406Y0049106D01*
X0222406Y0048106D01*
X0217106Y0048106D01*
X0217106Y0041006D01*
X0212106Y0041006D01*
X0212106Y0059476D01*
X0210876Y0060706D01*
X0209772Y0060706D01*
X0209772Y0065998D01*
X0209264Y0066506D01*
X0209772Y0067014D01*
X0209772Y0072041D01*
X0211368Y0072041D01*
X0211368Y0075022D01*
X0212337Y0075022D01*
X0212337Y0072041D01*
X0213992Y0072041D01*
X0214323Y0072130D01*
X0214619Y0072301D01*
X0214862Y0072543D01*
X0215033Y0072839D01*
X0215121Y0073170D01*
X0215121Y0075022D01*
X0212337Y0075022D01*
X0212337Y0075991D01*
X0211368Y0075991D01*
X0211368Y0078972D01*
X0209713Y0078972D01*
X0209559Y0078930D01*
X0209666Y0079189D01*
X0209666Y0079907D01*
X0210416Y0079907D01*
X0210416Y0082888D01*
X0210597Y0082888D01*
X0210597Y0079907D01*
X0211395Y0079907D01*
X0212195Y0079107D01*
X0216297Y0079107D01*
X0216953Y0079763D01*
X0217209Y0079694D01*
X0219006Y0079694D01*
X0219006Y0082561D01*
X0220006Y0082561D01*
X0220006Y0079694D01*
X0221606Y0079694D01*
X0221606Y0070929D01*
X0222048Y0069864D01*
X0227048Y0064864D01*
X0227864Y0064048D01*
X0228929Y0063606D01*
X0238083Y0063606D01*
X0239149Y0064048D01*
X0242149Y0067048D01*
X0242965Y0067864D01*
X0243406Y0068929D01*
X0243406Y0071799D01*
X0244118Y0072510D01*
X0244118Y0073122D01*
X0244454Y0072983D01*
X0244454Y0072384D01*
X0245684Y0071154D01*
X0253329Y0071154D01*
X0254559Y0072384D01*
X0254559Y0077352D01*
X0260606Y0071305D01*
X0260606Y0059929D01*
X0261048Y0058864D01*
X0269048Y0050864D01*
X0269864Y0050048D01*
X0270929Y0049606D01*
X0272194Y0049606D01*
X0274394Y0047406D01*
X0278619Y0047406D01*
X0281606Y0050394D01*
X0281606Y0054619D01*
X0278719Y0057506D01*
X0281606Y0060394D01*
X0281606Y0064619D01*
X0278719Y0067506D01*
X0281606Y0070394D01*
X0281606Y0074619D01*
X0278719Y0077506D01*
X0281606Y0080394D01*
X0281606Y0084619D01*
X0278719Y0087506D01*
X0281606Y0090394D01*
X0281606Y0094619D01*
X0278719Y0097506D01*
X0281606Y0100394D01*
X0281606Y0104619D01*
X0278719Y0107506D01*
X0281606Y0110394D01*
X0281606Y0114619D01*
X0278719Y0117506D01*
X0281606Y0120394D01*
X0281606Y0124619D01*
X0278719Y0127506D01*
X0281606Y0130394D01*
X0281606Y0134619D01*
X0278719Y0137506D01*
X0281606Y0140394D01*
X0281606Y0144619D01*
X0278719Y0147506D01*
X0281606Y0150394D01*
X0281606Y0154619D01*
X0278719Y0157506D01*
X0281606Y0160394D01*
X0281606Y0164619D01*
X0278719Y0167506D01*
X0281606Y0170394D01*
X0281606Y0174619D01*
X0278619Y0177606D01*
X0274394Y0177606D01*
X0272194Y0175406D01*
X0269929Y0175406D01*
X0268864Y0174965D01*
X0268048Y0174149D01*
X0264048Y0170149D01*
X0263606Y0169083D01*
X0263606Y0159708D01*
X0262308Y0158409D01*
X0255106Y0158425D01*
X0255103Y0158426D01*
X0254528Y0158426D01*
X0254284Y0158427D01*
X0253904Y0158807D01*
X0249014Y0158807D01*
X0248506Y0158299D01*
X0247998Y0158807D01*
X0243109Y0158807D01*
X0242408Y0158106D01*
X0242272Y0158106D01*
X0242272Y0161998D01*
X0241764Y0162506D01*
X0241864Y0162606D01*
X0244194Y0162606D01*
X0246394Y0160406D01*
X0250619Y0160406D01*
X0253606Y0163394D01*
X0253606Y0167619D01*
X0250619Y0170606D01*
X0246394Y0170606D01*
X0244194Y0168406D01*
X0242272Y0168406D01*
X0242272Y0168691D01*
X0241041Y0169921D01*
X0236772Y0169921D01*
X0236772Y0171691D01*
X0235541Y0172921D01*
X0229471Y0172921D01*
X0228671Y0172121D01*
X0227491Y0172121D01*
X0227491Y0169337D01*
X0226522Y0169337D01*
X0226522Y0172121D01*
X0224850Y0172121D01*
X0224850Y0174839D01*
X0224761Y0175169D01*
X0224590Y0175466D01*
X0224348Y0175708D01*
X0224051Y0175879D01*
X0223721Y0175968D01*
X0220506Y0175968D01*
X0220506Y0172018D01*
X0219506Y0172018D01*
X0219506Y0171018D01*
X0215163Y0171018D01*
X0215163Y0169318D01*
X0213506Y0169318D01*
X0213506Y0166451D01*
X0212506Y0166451D01*
X0212506Y0169318D01*
X0210709Y0169318D01*
X0210475Y0169255D01*
X0209658Y0170072D01*
X0209673Y0170086D01*
X0209844Y0170382D01*
X0209932Y0170713D01*
X0209932Y0172451D01*
X0207006Y0172451D01*
X0207006Y0173451D01*
X0206006Y0173451D01*
X0206006Y0172451D01*
X0203080Y0172451D01*
X0203080Y0170713D01*
X0203169Y0170382D01*
X0203340Y0170086D01*
X0203354Y0170072D01*
X0202280Y0168998D01*
X0202280Y0164931D01*
X0201269Y0163919D01*
X0201269Y0156462D01*
X0200998Y0156732D01*
X0200918Y0156732D01*
X0200897Y0158839D01*
X0200950Y0159147D01*
X0200891Y0159410D01*
X0200888Y0159680D01*
X0200766Y0159967D01*
X0200744Y0160064D01*
X0200744Y0163919D01*
X0199732Y0164931D01*
X0199732Y0168998D01*
X0198658Y0170072D01*
X0198673Y0170086D01*
X0198844Y0170382D01*
X0198932Y0170713D01*
X0198932Y0172451D01*
X0196006Y0172451D01*
X0196006Y0173451D01*
X0195006Y0173451D01*
X0195006Y0172451D01*
X0192080Y0172451D01*
X0192080Y0170713D01*
X0192169Y0170382D01*
X0192340Y0170086D01*
X0192354Y0170072D01*
X0191280Y0168998D01*
X0191280Y0164955D01*
X0190245Y0163919D01*
X0190245Y0155150D01*
X0187499Y0155150D01*
X0187078Y0154729D01*
X0187034Y0154710D01*
X0186302Y0153979D01*
X0186284Y0153935D01*
X0186269Y0153919D01*
X0186269Y0153898D01*
X0185906Y0153023D01*
X0185906Y0145432D01*
X0185061Y0145432D01*
X0185061Y0142506D01*
X0184061Y0142506D01*
X0184061Y0141506D01*
X0181194Y0141506D01*
X0181194Y0141451D01*
X0180006Y0141451D01*
X0180006Y0142451D01*
X0179006Y0142451D01*
X0179006Y0141451D01*
X0176080Y0141451D01*
X0176080Y0139713D01*
X0176169Y0139382D01*
X0176340Y0139086D01*
X0176354Y0139072D01*
X0176054Y0138772D01*
X0173406Y0138772D01*
X0173293Y0139356D02*
X0176184Y0139356D01*
X0176080Y0140354D02*
X0172759Y0140354D01*
X0171761Y0141353D02*
X0176080Y0141353D01*
X0176080Y0142451D02*
X0179006Y0142451D01*
X0179006Y0144663D01*
X0179995Y0144663D01*
X0179995Y0149006D01*
X0180994Y0149006D01*
X0180994Y0145318D01*
X0180006Y0145318D01*
X0180006Y0142451D01*
X0182932Y0142451D01*
X0182932Y0142506D01*
X0184061Y0142506D01*
X0184061Y0144729D01*
X0184146Y0144752D01*
X0184442Y0144923D01*
X0184684Y0145165D01*
X0184855Y0145461D01*
X0184944Y0145792D01*
X0184944Y0149006D01*
X0180995Y0149006D01*
X0180995Y0150006D01*
X0184944Y0150006D01*
X0184944Y0153221D01*
X0184855Y0153551D01*
X0184684Y0153848D01*
X0184442Y0154090D01*
X0184146Y0154261D01*
X0183815Y0154350D01*
X0180994Y0154350D01*
X0180994Y0150006D01*
X0179995Y0150006D01*
X0179995Y0154350D01*
X0177174Y0154350D01*
X0176843Y0154261D01*
X0176547Y0154090D01*
X0176305Y0153848D01*
X0176133Y0153551D01*
X0176045Y0153221D01*
X0176045Y0150006D01*
X0179994Y0150006D01*
X0179994Y0149006D01*
X0176045Y0149006D01*
X0176045Y0145792D01*
X0176133Y0145461D01*
X0176305Y0145165D01*
X0176497Y0144973D01*
X0176340Y0144816D01*
X0176169Y0144520D01*
X0176080Y0144189D01*
X0176080Y0142451D01*
X0176080Y0143350D02*
X0163606Y0143350D01*
X0163606Y0144348D02*
X0176123Y0144348D01*
X0176199Y0145347D02*
X0163122Y0145347D01*
X0162906Y0146346D02*
X0176045Y0146346D01*
X0176045Y0147344D02*
X0162906Y0147344D01*
X0162906Y0148343D02*
X0176045Y0148343D01*
X0176045Y0150340D02*
X0162906Y0150340D01*
X0162906Y0151338D02*
X0176045Y0151338D01*
X0176045Y0152337D02*
X0162906Y0152337D01*
X0162906Y0153335D02*
X0176076Y0153335D01*
X0177114Y0154334D02*
X0162906Y0154334D01*
X0162906Y0155332D02*
X0190245Y0155332D01*
X0190245Y0156331D02*
X0162906Y0156331D01*
X0162906Y0157329D02*
X0190245Y0157329D01*
X0190245Y0158328D02*
X0162598Y0158328D01*
X0161788Y0159326D02*
X0190245Y0159326D01*
X0190245Y0160325D02*
X0160789Y0160325D01*
X0159791Y0161323D02*
X0190245Y0161323D01*
X0190245Y0162322D02*
X0158792Y0162322D01*
X0157291Y0163320D02*
X0190245Y0163320D01*
X0190644Y0164319D02*
X0150144Y0164319D01*
X0143561Y0164319D02*
X0143451Y0164319D01*
X0143506Y0156749D02*
X0142998Y0156241D01*
X0140091Y0156241D01*
X0140134Y0156230D01*
X0140430Y0156058D01*
X0140673Y0155816D01*
X0140844Y0155520D01*
X0140932Y0155189D01*
X0140932Y0153451D01*
X0138006Y0153451D01*
X0138006Y0152451D01*
X0140932Y0152451D01*
X0140932Y0150713D01*
X0140844Y0150382D01*
X0140673Y0150086D01*
X0140658Y0150072D01*
X0140924Y0149806D01*
X0144694Y0149806D01*
X0144694Y0151006D01*
X0147561Y0151006D01*
X0147561Y0152006D01*
X0144694Y0152006D01*
X0144694Y0153803D01*
X0144783Y0154134D01*
X0144954Y0154430D01*
X0145196Y0154673D01*
X0145493Y0154844D01*
X0145823Y0154932D01*
X0147561Y0154932D01*
X0147561Y0152006D01*
X0148561Y0152006D01*
X0148561Y0154932D01*
X0150299Y0154932D01*
X0150630Y0154844D01*
X0150927Y0154673D01*
X0150941Y0154658D01*
X0152014Y0155732D01*
X0157106Y0155732D01*
X0157106Y0155805D01*
X0155305Y0157606D01*
X0150921Y0157606D01*
X0150921Y0157471D01*
X0149691Y0156241D01*
X0144014Y0156241D01*
X0143506Y0156749D01*
X0143088Y0156331D02*
X0143925Y0156331D01*
X0144898Y0154334D02*
X0140932Y0154334D01*
X0140894Y0155332D02*
X0151614Y0155332D01*
X0149781Y0156331D02*
X0156581Y0156331D01*
X0155582Y0157329D02*
X0150779Y0157329D01*
X0148561Y0154334D02*
X0147561Y0154334D01*
X0147561Y0153335D02*
X0148561Y0153335D01*
X0148561Y0152337D02*
X0147561Y0152337D01*
X0147561Y0151338D02*
X0140932Y0151338D01*
X0140932Y0152337D02*
X0144694Y0152337D01*
X0144694Y0153335D02*
X0138006Y0153335D01*
X0137006Y0153335D02*
X0131006Y0153335D01*
X0131006Y0153746D02*
X0131006Y0152746D01*
X0134759Y0152746D01*
X0134759Y0152451D01*
X0137006Y0152451D01*
X0137006Y0153451D01*
X0134080Y0153451D01*
X0134080Y0153746D01*
X0131006Y0153746D01*
X0130006Y0153335D02*
X0123153Y0153335D01*
X0124146Y0154334D02*
X0126254Y0154334D01*
X0126254Y0155332D02*
X0124553Y0155332D01*
X0126254Y0152337D02*
X0122155Y0152337D01*
X0121156Y0151338D02*
X0126254Y0151338D01*
X0126301Y0150340D02*
X0120158Y0150340D01*
X0119159Y0149341D02*
X0125533Y0149341D01*
X0124587Y0148343D02*
X0118161Y0148343D01*
X0117162Y0147344D02*
X0124173Y0147344D01*
X0124106Y0146346D02*
X0116164Y0146346D01*
X0110388Y0153206D02*
X0107969Y0153206D01*
X0106977Y0152795D01*
X0106217Y0152036D01*
X0106117Y0151794D01*
X0105491Y0151167D01*
X0104761Y0151897D01*
X0104761Y0156280D01*
X0104998Y0156280D01*
X0106072Y0157354D01*
X0106086Y0157340D01*
X0106382Y0157169D01*
X0106713Y0157080D01*
X0108451Y0157080D01*
X0108451Y0160006D01*
X0109451Y0160006D01*
X0109451Y0157080D01*
X0111189Y0157080D01*
X0111420Y0157142D01*
X0112321Y0156241D01*
X0112460Y0156241D01*
X0112460Y0155278D01*
X0110388Y0153206D01*
X0110517Y0153335D02*
X0104761Y0153335D01*
X0104761Y0152337D02*
X0106518Y0152337D01*
X0105661Y0151338D02*
X0105320Y0151338D01*
X0104761Y0154334D02*
X0111515Y0154334D01*
X0112460Y0155332D02*
X0104761Y0155332D01*
X0105048Y0156331D02*
X0112232Y0156331D01*
X0109451Y0157329D02*
X0108451Y0157329D01*
X0108451Y0158328D02*
X0109451Y0158328D01*
X0109451Y0159326D02*
X0108451Y0159326D01*
X0106105Y0157329D02*
X0106047Y0157329D01*
X0095951Y0160506D02*
X0094951Y0160506D01*
X0092506Y0162506D02*
X0092506Y0170506D01*
X0094160Y0172160D01*
X0096506Y0172160D01*
X0100772Y0177299D02*
X0124406Y0177299D01*
X0124406Y0176301D02*
X0112162Y0176301D01*
X0112921Y0175302D02*
X0124406Y0175302D01*
X0124406Y0174529D02*
X0124810Y0173555D01*
X0125555Y0172810D01*
X0126529Y0172406D01*
X0127583Y0172406D01*
X0128557Y0172810D01*
X0128558Y0172810D01*
X0129532Y0172406D01*
X0130586Y0172406D01*
X0131511Y0172789D01*
X0132436Y0172406D01*
X0134992Y0172406D01*
X0135917Y0172789D01*
X0136842Y0172406D01*
X0137896Y0172406D01*
X0138870Y0172810D01*
X0139616Y0173555D01*
X0139762Y0173908D01*
X0140148Y0173908D01*
X0140522Y0174063D01*
X0141030Y0173555D01*
X0141775Y0172810D01*
X0142749Y0172406D01*
X0143803Y0172406D01*
X0144027Y0172499D01*
X0144250Y0172406D01*
X0145305Y0172406D01*
X0146279Y0172810D01*
X0146605Y0173136D01*
X0146931Y0172810D01*
X0147905Y0172406D01*
X0150461Y0172406D01*
X0151435Y0172810D01*
X0151761Y0173136D01*
X0152088Y0172810D01*
X0153062Y0172406D01*
X0155617Y0172406D01*
X0156591Y0172810D01*
X0158087Y0174306D01*
X0158491Y0175280D01*
X0158491Y0176334D01*
X0158087Y0177308D01*
X0158087Y0177308D01*
X0158087Y0177308D01*
X0158491Y0178282D01*
X0158491Y0179337D01*
X0158087Y0180311D01*
X0157337Y0181061D01*
X0156890Y0181508D01*
X0156918Y0181536D01*
X0157244Y0181210D01*
X0158218Y0180806D01*
X0160774Y0180806D01*
X0161699Y0181189D01*
X0161759Y0181165D01*
X0160905Y0180311D01*
X0160501Y0179337D01*
X0160501Y0178282D01*
X0160905Y0177308D01*
X0161280Y0176933D01*
X0160905Y0176557D01*
X0160501Y0175583D01*
X0160501Y0174529D01*
X0160905Y0173555D01*
X0161650Y0172810D01*
X0162624Y0172406D01*
X0166681Y0172406D01*
X0167606Y0172789D01*
X0168531Y0172406D01*
X0171087Y0172406D01*
X0172012Y0172789D01*
X0172937Y0172406D01*
X0176994Y0172406D01*
X0177919Y0172789D01*
X0178844Y0172406D01*
X0181399Y0172406D01*
X0182373Y0172810D01*
X0183119Y0173555D01*
X0183119Y0173555D01*
X0183124Y0173560D01*
X0183869Y0174306D01*
X0184273Y0175280D01*
X0184273Y0177085D01*
X0183869Y0178059D01*
X0183847Y0178081D01*
X0183970Y0178222D01*
X0184304Y0179222D01*
X0184229Y0180274D01*
X0183757Y0181217D01*
X0182961Y0181907D01*
X0181961Y0182241D01*
X0180909Y0182166D01*
X0179021Y0181222D01*
X0178620Y0181056D01*
X0178552Y0180987D01*
X0178465Y0180944D01*
X0178181Y0180617D01*
X0177615Y0180051D01*
X0177615Y0180087D01*
X0177212Y0181061D01*
X0177108Y0181165D01*
X0177217Y0181210D01*
X0177962Y0181955D01*
X0178713Y0182706D01*
X0178859Y0183058D01*
X0182150Y0183058D01*
X0182700Y0183286D01*
X0183250Y0183058D01*
X0183379Y0183058D01*
X0183379Y0182929D01*
X0183782Y0181955D01*
X0184527Y0181210D01*
X0185501Y0180806D01*
X0186556Y0180806D01*
X0187530Y0181210D01*
X0187856Y0181536D01*
X0188183Y0181210D01*
X0189157Y0180806D01*
X0191712Y0180806D01*
X0192686Y0181210D01*
X0193432Y0181955D01*
X0194182Y0182706D01*
X0194586Y0183680D01*
X0194586Y0187737D01*
X0194182Y0188711D01*
X0193437Y0189456D01*
X0193437Y0189456D01*
X0192686Y0190207D01*
X0191712Y0190610D01*
X0189157Y0190610D01*
X0188183Y0190207D01*
X0187856Y0189880D01*
X0187530Y0190207D01*
X0186556Y0190610D01*
X0185501Y0190610D01*
X0184527Y0190207D01*
X0182524Y0188203D01*
X0182150Y0188358D01*
X0179116Y0188358D01*
X0179116Y0188487D01*
X0178713Y0189461D01*
X0177968Y0190207D01*
X0176994Y0190610D01*
X0172937Y0190610D01*
X0172012Y0190227D01*
X0171087Y0190610D01*
X0168531Y0190610D01*
X0167557Y0190207D01*
X0167231Y0189880D01*
X0166904Y0190207D01*
X0165930Y0190610D01*
X0163375Y0190610D01*
X0162401Y0190207D01*
X0162074Y0189880D01*
X0161748Y0190207D01*
X0160774Y0190610D01*
X0158218Y0190610D01*
X0157244Y0190207D01*
X0156918Y0189880D01*
X0156591Y0190207D01*
X0155617Y0190610D01*
X0152311Y0190610D01*
X0151337Y0190207D01*
X0151011Y0189880D01*
X0150684Y0190207D01*
X0149710Y0190610D01*
X0148656Y0190610D01*
X0147682Y0190207D01*
X0146937Y0189461D01*
X0145435Y0187960D01*
X0145032Y0186986D01*
X0145032Y0185181D01*
X0145032Y0182929D01*
X0145435Y0181955D01*
X0146181Y0181210D01*
X0146289Y0181165D01*
X0146181Y0181056D01*
X0145834Y0180709D01*
X0145001Y0180709D01*
X0144027Y0180305D01*
X0144027Y0180305D01*
X0144027Y0180305D01*
X0143053Y0180709D01*
X0142220Y0180709D01*
X0141873Y0181056D01*
X0141421Y0181508D01*
X0142618Y0182706D01*
X0143022Y0183680D01*
X0143022Y0184734D01*
X0142618Y0185708D01*
X0142618Y0185708D01*
X0142618Y0185708D01*
X0143022Y0186682D01*
X0143022Y0187737D01*
X0142618Y0188711D01*
X0141868Y0189461D01*
X0141122Y0190207D01*
X0140148Y0190610D01*
X0137593Y0190610D01*
X0136619Y0190207D01*
X0136292Y0189880D01*
X0135966Y0190207D01*
X0134992Y0190610D01*
X0131686Y0190610D01*
X0130712Y0190207D01*
X0130385Y0189880D01*
X0130059Y0190207D01*
X0129085Y0190610D01*
X0128030Y0190610D01*
X0127056Y0190207D01*
X0126311Y0189461D01*
X0124810Y0187960D01*
X0124406Y0186986D01*
X0124406Y0182929D01*
X0124810Y0181955D01*
X0125555Y0181210D01*
X0126195Y0180945D01*
X0124810Y0179560D01*
X0124406Y0178586D01*
X0124406Y0174529D01*
X0124500Y0174304D02*
X0112921Y0174304D01*
X0112921Y0173305D02*
X0125060Y0173305D01*
X0128558Y0172810D02*
X0128558Y0172810D01*
X0125310Y0170310D02*
X0192211Y0170310D01*
X0192080Y0171308D02*
X0112921Y0171308D01*
X0112921Y0172307D02*
X0192080Y0172307D01*
X0192080Y0173451D02*
X0195006Y0173451D01*
X0195006Y0176318D01*
X0193209Y0176318D01*
X0192879Y0176230D01*
X0192582Y0176058D01*
X0192340Y0175816D01*
X0192169Y0175520D01*
X0192080Y0175189D01*
X0192080Y0173451D01*
X0192080Y0174304D02*
X0183867Y0174304D01*
X0183124Y0173560D02*
X0183124Y0173560D01*
X0182869Y0173305D02*
X0195006Y0173305D01*
X0195006Y0174304D02*
X0196006Y0174304D01*
X0196006Y0173451D02*
X0196006Y0176318D01*
X0197803Y0176318D01*
X0198134Y0176230D01*
X0198430Y0176058D01*
X0198673Y0175816D01*
X0198844Y0175520D01*
X0198932Y0175189D01*
X0198932Y0173451D01*
X0196006Y0173451D01*
X0196006Y0173305D02*
X0206006Y0173305D01*
X0206006Y0173451D02*
X0203080Y0173451D01*
X0203080Y0175189D01*
X0203169Y0175520D01*
X0203340Y0175816D01*
X0203582Y0176058D01*
X0203879Y0176230D01*
X0204209Y0176318D01*
X0206006Y0176318D01*
X0206006Y0173451D01*
X0206006Y0174304D02*
X0207006Y0174304D01*
X0207006Y0173451D02*
X0207006Y0176318D01*
X0208803Y0176318D01*
X0209134Y0176230D01*
X0209430Y0176058D01*
X0209673Y0175816D01*
X0209844Y0175520D01*
X0209932Y0175189D01*
X0209932Y0173451D01*
X0207006Y0173451D01*
X0207006Y0173305D02*
X0215163Y0173305D01*
X0215163Y0172307D02*
X0209932Y0172307D01*
X0209932Y0171308D02*
X0219506Y0171308D01*
X0219506Y0171018D02*
X0220506Y0171018D01*
X0220506Y0167068D01*
X0223541Y0167069D01*
X0223541Y0166713D01*
X0223630Y0166382D01*
X0223801Y0166086D01*
X0223815Y0166072D01*
X0223487Y0165744D01*
X0215593Y0165744D01*
X0215300Y0165451D01*
X0213506Y0165451D01*
X0213506Y0166451D01*
X0216432Y0166451D01*
X0216432Y0167069D01*
X0219506Y0167069D01*
X0219506Y0171018D01*
X0219506Y0170310D02*
X0220506Y0170310D01*
X0220506Y0169311D02*
X0219506Y0169311D01*
X0219506Y0168313D02*
X0220506Y0168313D01*
X0220506Y0167314D02*
X0219506Y0167314D01*
X0223668Y0166316D02*
X0213506Y0166316D01*
X0213506Y0167314D02*
X0212506Y0167314D01*
X0212506Y0168313D02*
X0213506Y0168313D01*
X0213506Y0169311D02*
X0212506Y0169311D01*
X0210684Y0169311D02*
X0210419Y0169311D01*
X0209802Y0170310D02*
X0215163Y0170310D01*
X0215163Y0172018D02*
X0219506Y0172018D01*
X0219506Y0175968D01*
X0216292Y0175968D01*
X0215961Y0175879D01*
X0215665Y0175708D01*
X0215423Y0175466D01*
X0215252Y0175169D01*
X0215163Y0174839D01*
X0215163Y0172018D01*
X0215163Y0174304D02*
X0209932Y0174304D01*
X0209902Y0175302D02*
X0215328Y0175302D01*
X0219506Y0175302D02*
X0220506Y0175302D01*
X0220506Y0174304D02*
X0219506Y0174304D01*
X0219506Y0173305D02*
X0220506Y0173305D01*
X0220506Y0172307D02*
X0219506Y0172307D01*
X0224850Y0172307D02*
X0228857Y0172307D01*
X0227491Y0171308D02*
X0226522Y0171308D01*
X0226522Y0170310D02*
X0227491Y0170310D01*
X0224850Y0173305D02*
X0267204Y0173305D01*
X0266206Y0172307D02*
X0236156Y0172307D01*
X0236772Y0171308D02*
X0265207Y0171308D01*
X0264209Y0170310D02*
X0250915Y0170310D01*
X0251914Y0169311D02*
X0263701Y0169311D01*
X0263606Y0168313D02*
X0252912Y0168313D01*
X0253606Y0167314D02*
X0263606Y0167314D01*
X0263606Y0166316D02*
X0253606Y0166316D01*
X0253606Y0165317D02*
X0263606Y0165317D01*
X0263606Y0164319D02*
X0253606Y0164319D01*
X0253533Y0163320D02*
X0263606Y0163320D01*
X0263606Y0162322D02*
X0252534Y0162322D01*
X0251536Y0161323D02*
X0263606Y0161323D01*
X0263606Y0160325D02*
X0242272Y0160325D01*
X0242272Y0161323D02*
X0245477Y0161323D01*
X0244478Y0162322D02*
X0241948Y0162322D01*
X0242272Y0159326D02*
X0263225Y0159326D01*
X0248535Y0158328D02*
X0248478Y0158328D01*
X0245554Y0155526D02*
X0245534Y0155506D01*
X0239506Y0155506D01*
X0235506Y0151506D01*
X0219506Y0151506D01*
X0215491Y0147491D01*
X0215491Y0142857D01*
X0217459Y0142857D02*
X0217459Y0146459D01*
X0220506Y0149506D01*
X0236506Y0149506D01*
X0239081Y0152081D01*
X0245554Y0152081D01*
X0245554Y0148931D02*
X0238931Y0148931D01*
X0237506Y0147506D01*
X0221506Y0147506D01*
X0219428Y0145428D01*
X0219428Y0142857D01*
X0221396Y0142857D02*
X0221396Y0144396D01*
X0222506Y0145506D01*
X0224506Y0145506D01*
X0224526Y0145487D01*
X0245554Y0145487D01*
X0241694Y0142506D02*
X0241694Y0141006D01*
X0244561Y0141006D01*
X0244561Y0140006D01*
X0241694Y0140006D01*
X0241694Y0138209D01*
X0241783Y0137879D01*
X0241800Y0137850D01*
X0241674Y0137850D01*
X0241343Y0137761D01*
X0241047Y0137590D01*
X0240805Y0137348D01*
X0240633Y0137051D01*
X0240545Y0136721D01*
X0240545Y0133506D01*
X0244494Y0133506D01*
X0244494Y0132506D01*
X0240545Y0132506D01*
X0240545Y0130645D01*
X0233506Y0137683D01*
X0233506Y0142506D01*
X0233887Y0142887D01*
X0241126Y0142887D01*
X0241506Y0142506D01*
X0241694Y0142506D01*
X0241694Y0142351D02*
X0233506Y0142351D01*
X0233506Y0141353D02*
X0241694Y0141353D01*
X0241694Y0139356D02*
X0233506Y0139356D01*
X0233506Y0140354D02*
X0244561Y0140354D01*
X0244561Y0140006D02*
X0245561Y0140006D01*
X0245561Y0137850D01*
X0245494Y0137850D01*
X0245494Y0133506D01*
X0244495Y0133506D01*
X0244495Y0137080D01*
X0244561Y0137080D01*
X0244561Y0140006D01*
X0244561Y0139356D02*
X0245561Y0139356D01*
X0245561Y0138357D02*
X0244561Y0138357D01*
X0244561Y0137359D02*
X0245494Y0137359D01*
X0245494Y0136360D02*
X0244495Y0136360D01*
X0244495Y0135362D02*
X0245494Y0135362D01*
X0245494Y0134363D02*
X0244495Y0134363D01*
X0244494Y0133365D02*
X0237825Y0133365D01*
X0238823Y0132366D02*
X0240545Y0132366D01*
X0240545Y0131368D02*
X0239822Y0131368D01*
X0240545Y0134363D02*
X0236826Y0134363D01*
X0235828Y0135362D02*
X0240545Y0135362D01*
X0240545Y0136360D02*
X0234829Y0136360D01*
X0233831Y0137359D02*
X0240816Y0137359D01*
X0241694Y0138357D02*
X0233506Y0138357D01*
X0231054Y0136459D02*
X0241987Y0125526D01*
X0245554Y0125526D01*
X0250244Y0128807D02*
X0250244Y0137080D01*
X0251451Y0137080D01*
X0251451Y0140006D01*
X0252451Y0140006D01*
X0252451Y0137784D01*
X0252367Y0137761D01*
X0252070Y0137590D01*
X0251828Y0137348D01*
X0251657Y0137051D01*
X0251569Y0136721D01*
X0251569Y0133506D01*
X0255518Y0133506D01*
X0255518Y0132506D01*
X0251569Y0132506D01*
X0251569Y0129292D01*
X0251657Y0128961D01*
X0251746Y0128807D01*
X0250244Y0128807D01*
X0250244Y0129371D02*
X0251569Y0129371D01*
X0251569Y0130369D02*
X0250244Y0130369D01*
X0250244Y0131368D02*
X0251569Y0131368D01*
X0251569Y0132366D02*
X0250244Y0132366D01*
X0250244Y0133365D02*
X0255518Y0133365D01*
X0255518Y0133506D02*
X0255518Y0137850D01*
X0255213Y0137850D01*
X0255230Y0137879D01*
X0255318Y0138209D01*
X0255318Y0140006D01*
X0252451Y0140006D01*
X0252451Y0141006D01*
X0255318Y0141006D01*
X0255318Y0142587D01*
X0266325Y0142587D01*
X0268048Y0140864D01*
X0268864Y0140048D01*
X0269929Y0139606D01*
X0272194Y0139606D01*
X0274294Y0137506D01*
X0272194Y0135406D01*
X0270929Y0135406D01*
X0269864Y0134965D01*
X0269048Y0134149D01*
X0267048Y0132149D01*
X0266606Y0131083D01*
X0266606Y0128708D01*
X0266313Y0128414D01*
X0265112Y0128422D01*
X0265103Y0128426D01*
X0264536Y0128426D01*
X0263968Y0128430D01*
X0263959Y0128426D01*
X0259969Y0128426D01*
X0260208Y0128665D01*
X0260379Y0128961D01*
X0260468Y0129292D01*
X0260468Y0132506D01*
X0256518Y0132506D01*
X0256518Y0133506D01*
X0260468Y0133506D01*
X0260468Y0136721D01*
X0260379Y0137051D01*
X0260208Y0137348D01*
X0259966Y0137590D01*
X0259669Y0137761D01*
X0259339Y0137850D01*
X0256518Y0137850D01*
X0256518Y0133506D01*
X0255518Y0133506D01*
X0255518Y0134363D02*
X0256518Y0134363D01*
X0256518Y0133365D02*
X0268264Y0133365D01*
X0269262Y0134363D02*
X0260468Y0134363D01*
X0260468Y0135362D02*
X0270822Y0135362D01*
X0273148Y0136360D02*
X0260468Y0136360D01*
X0260197Y0137359D02*
X0274146Y0137359D01*
X0273443Y0138357D02*
X0255318Y0138357D01*
X0255318Y0139356D02*
X0272444Y0139356D01*
X0268557Y0140354D02*
X0252451Y0140354D01*
X0252451Y0139356D02*
X0251451Y0139356D01*
X0251451Y0138357D02*
X0252451Y0138357D01*
X0251839Y0137359D02*
X0251451Y0137359D01*
X0251569Y0136360D02*
X0250244Y0136360D01*
X0250244Y0135362D02*
X0251569Y0135362D01*
X0251569Y0134363D02*
X0250244Y0134363D01*
X0255518Y0135362D02*
X0256518Y0135362D01*
X0256518Y0136360D02*
X0255518Y0136360D01*
X0255518Y0137359D02*
X0256518Y0137359D01*
X0255318Y0141353D02*
X0267558Y0141353D01*
X0266560Y0142351D02*
X0255318Y0142351D01*
X0260468Y0132366D02*
X0267265Y0132366D01*
X0266724Y0131368D02*
X0260468Y0131368D01*
X0260468Y0130369D02*
X0266606Y0130369D01*
X0266606Y0129371D02*
X0260468Y0129371D01*
X0245554Y0122081D02*
X0242431Y0122081D01*
X0230006Y0134506D01*
X0223872Y0134506D01*
X0223857Y0134491D01*
X0223857Y0136459D02*
X0231054Y0136459D01*
X0229006Y0132506D02*
X0223872Y0132506D01*
X0223857Y0132522D01*
X0223857Y0130554D02*
X0223904Y0130506D01*
X0228006Y0130506D01*
X0243026Y0115487D01*
X0245554Y0115487D01*
X0245554Y0118931D02*
X0242581Y0118931D01*
X0229006Y0132506D01*
X0226506Y0128506D02*
X0223935Y0128506D01*
X0223857Y0128585D01*
X0223857Y0126617D02*
X0223967Y0126506D01*
X0225506Y0126506D01*
X0226006Y0126006D01*
X0226006Y0119506D01*
X0239431Y0106081D01*
X0245554Y0106081D01*
X0245554Y0109526D02*
X0238987Y0109526D01*
X0228006Y0120506D01*
X0228006Y0127006D01*
X0226506Y0128506D01*
X0221506Y0124046D02*
X0221506Y0121006D01*
X0239581Y0102931D01*
X0245554Y0102931D01*
X0245554Y0099487D02*
X0240026Y0099487D01*
X0219506Y0120006D01*
X0219506Y0124077D01*
X0219428Y0124156D01*
X0221396Y0124156D02*
X0221506Y0124046D01*
X0216906Y0120776D02*
X0216906Y0119489D01*
X0217302Y0118534D01*
X0224629Y0111206D01*
X0217206Y0111206D01*
X0217206Y0114043D01*
X0216795Y0115036D01*
X0216036Y0115795D01*
X0212185Y0119646D01*
X0212185Y0120776D01*
X0212893Y0120776D01*
X0213522Y0121406D01*
X0214151Y0120776D01*
X0216906Y0120776D01*
X0216906Y0120384D02*
X0212185Y0120384D01*
X0212445Y0119386D02*
X0216949Y0119386D01*
X0217448Y0118387D02*
X0213444Y0118387D01*
X0213506Y0119506D02*
X0213506Y0124506D01*
X0213522Y0124156D02*
X0213522Y0129506D01*
X0214506Y0129506D01*
X0214006Y0129371D02*
X0215006Y0129371D01*
X0215006Y0130369D02*
X0214006Y0130369D01*
X0214006Y0131368D02*
X0215006Y0131368D01*
X0215006Y0132366D02*
X0214006Y0132366D01*
X0214006Y0133006D02*
X0215006Y0133006D01*
X0215006Y0127535D01*
X0214151Y0127535D01*
X0214006Y0127390D01*
X0214006Y0133006D01*
X0208535Y0133006D01*
X0208535Y0133861D01*
X0208390Y0134006D01*
X0214006Y0134006D01*
X0214006Y0133006D01*
X0214006Y0133365D02*
X0208535Y0133365D01*
X0209522Y0134491D02*
X0210506Y0133506D01*
X0209522Y0134491D02*
X0205156Y0134491D01*
X0205156Y0136459D02*
X0205109Y0136506D01*
X0194506Y0136506D01*
X0194554Y0136459D01*
X0194020Y0138669D02*
X0194316Y0138840D01*
X0194558Y0139082D01*
X0194730Y0139379D01*
X0194818Y0139709D01*
X0194818Y0141506D01*
X0191951Y0141506D01*
X0191951Y0138580D01*
X0193689Y0138580D01*
X0194020Y0138669D01*
X0194716Y0139356D02*
X0195657Y0139356D01*
X0195506Y0139506D02*
X0197506Y0137506D01*
X0197506Y0135506D01*
X0196506Y0134506D01*
X0187506Y0134506D01*
X0186506Y0135506D01*
X0186506Y0137506D01*
X0188248Y0139248D01*
X0188344Y0139082D01*
X0188586Y0138840D01*
X0188882Y0138669D01*
X0189213Y0138580D01*
X0190951Y0138580D01*
X0190951Y0141506D01*
X0191951Y0141506D01*
X0191951Y0142506D01*
X0194818Y0142506D01*
X0194818Y0144303D01*
X0194730Y0144634D01*
X0194713Y0144663D01*
X0194839Y0144663D01*
X0195169Y0144752D01*
X0195466Y0144923D01*
X0195506Y0144963D01*
X0195506Y0139506D01*
X0195506Y0140354D02*
X0194818Y0140354D01*
X0194818Y0141353D02*
X0195506Y0141353D01*
X0195506Y0142351D02*
X0191951Y0142351D01*
X0191951Y0142506D02*
X0190951Y0142506D01*
X0190951Y0144663D01*
X0191018Y0144663D01*
X0191018Y0149006D01*
X0192018Y0149006D01*
X0192018Y0145432D01*
X0191951Y0145432D01*
X0191951Y0142506D01*
X0191951Y0143350D02*
X0190951Y0143350D01*
X0190951Y0144348D02*
X0191951Y0144348D01*
X0191951Y0145347D02*
X0191018Y0145347D01*
X0191018Y0146346D02*
X0192018Y0146346D01*
X0192018Y0147344D02*
X0191018Y0147344D01*
X0191018Y0148343D02*
X0192018Y0148343D01*
X0194806Y0144348D02*
X0195506Y0144348D01*
X0195506Y0143350D02*
X0194818Y0143350D01*
X0191951Y0141353D02*
X0190951Y0141353D01*
X0190951Y0140354D02*
X0191951Y0140354D01*
X0191951Y0139356D02*
X0190951Y0139356D01*
X0187357Y0138357D02*
X0196655Y0138357D01*
X0197506Y0137359D02*
X0186506Y0137359D01*
X0186506Y0136360D02*
X0197506Y0136360D01*
X0197362Y0135362D02*
X0186651Y0135362D01*
X0185506Y0132506D02*
X0205140Y0132506D01*
X0205156Y0132522D01*
X0205156Y0130554D02*
X0205109Y0130506D01*
X0185506Y0130506D01*
X0185626Y0127374D02*
X0200639Y0127374D01*
X0201637Y0126375D02*
X0184628Y0126375D01*
X0183506Y0125377D02*
X0202636Y0125377D01*
X0202134Y0124230D02*
X0201803Y0124318D01*
X0200006Y0124318D01*
X0200006Y0121451D01*
X0202932Y0121451D01*
X0202932Y0123189D01*
X0202844Y0123520D01*
X0202673Y0123816D01*
X0202430Y0124058D01*
X0202134Y0124230D01*
X0202881Y0123380D02*
X0203506Y0123380D01*
X0203506Y0124378D02*
X0196553Y0124378D01*
X0199006Y0123380D02*
X0200006Y0123380D01*
X0200006Y0122381D02*
X0199006Y0122381D01*
X0199006Y0121383D02*
X0197350Y0121383D01*
X0196080Y0120384D02*
X0193006Y0120384D01*
X0199006Y0120384D02*
X0200006Y0120384D01*
X0200006Y0119386D02*
X0199006Y0119386D01*
X0200006Y0121383D02*
X0203506Y0121383D01*
X0203506Y0122381D02*
X0202932Y0122381D01*
X0202932Y0120384D02*
X0203506Y0120384D01*
X0203506Y0119386D02*
X0202932Y0119386D01*
X0206106Y0119386D02*
X0206985Y0119386D01*
X0206985Y0119206D02*
X0206885Y0118965D01*
X0206885Y0117890D01*
X0207296Y0116898D01*
X0211806Y0112388D01*
X0211806Y0107559D01*
X0204384Y0107559D01*
X0203154Y0106329D01*
X0203154Y0103535D01*
X0202710Y0103979D01*
X0201979Y0104710D01*
X0201023Y0105106D01*
X0197124Y0105106D01*
X0197261Y0105343D01*
X0197350Y0105674D01*
X0197350Y0108495D01*
X0193006Y0108495D01*
X0193006Y0109494D01*
X0197350Y0109494D01*
X0197350Y0110694D01*
X0199006Y0110694D01*
X0199006Y0113561D01*
X0200006Y0113561D01*
X0200006Y0110694D01*
X0201803Y0110694D01*
X0202134Y0110783D01*
X0202430Y0110954D01*
X0202673Y0111196D01*
X0202844Y0111493D01*
X0202932Y0111823D01*
X0202932Y0113561D01*
X0200006Y0113561D01*
X0200006Y0114561D01*
X0202932Y0114561D01*
X0202932Y0115906D01*
X0204023Y0115906D01*
X0204979Y0116302D01*
X0205710Y0117034D01*
X0206106Y0117989D01*
X0206106Y0120948D01*
X0206277Y0120776D01*
X0206985Y0120776D01*
X0206985Y0119206D01*
X0206885Y0118387D02*
X0206106Y0118387D01*
X0205858Y0117389D02*
X0207093Y0117389D01*
X0207804Y0116390D02*
X0205067Y0116390D01*
X0202932Y0115392D02*
X0208803Y0115392D01*
X0209801Y0114393D02*
X0200006Y0114393D01*
X0200006Y0113395D02*
X0199006Y0113395D01*
X0199006Y0113561D02*
X0196080Y0113561D01*
X0196080Y0113444D01*
X0193006Y0113444D01*
X0193006Y0109495D01*
X0192006Y0109495D01*
X0192006Y0113444D01*
X0189348Y0113444D01*
X0190540Y0114769D01*
X0196080Y0114769D01*
X0196080Y0114561D01*
X0199006Y0114561D01*
X0199006Y0113561D01*
X0199006Y0114393D02*
X0190202Y0114393D01*
X0192006Y0113395D02*
X0193006Y0113395D01*
X0193006Y0112396D02*
X0192006Y0112396D01*
X0192006Y0111398D02*
X0193006Y0111398D01*
X0193006Y0110399D02*
X0192006Y0110399D01*
X0192006Y0109494D02*
X0187663Y0109494D01*
X0187663Y0111572D01*
X0183106Y0106509D01*
X0183106Y0102583D01*
X0184583Y0101106D01*
X0191429Y0101106D01*
X0194868Y0104545D01*
X0193006Y0104545D01*
X0193006Y0108494D01*
X0192006Y0108494D01*
X0192006Y0104545D01*
X0188792Y0104545D01*
X0188461Y0104633D01*
X0188165Y0104805D01*
X0187923Y0105047D01*
X0187752Y0105343D01*
X0187663Y0105674D01*
X0187663Y0108495D01*
X0192006Y0108495D01*
X0192006Y0109494D01*
X0192006Y0109401D02*
X0185709Y0109401D01*
X0186608Y0110399D02*
X0187663Y0110399D01*
X0187663Y0111398D02*
X0187506Y0111398D01*
X0187663Y0108402D02*
X0184810Y0108402D01*
X0183912Y0107404D02*
X0187663Y0107404D01*
X0187663Y0106405D02*
X0183106Y0106405D01*
X0183106Y0105407D02*
X0187735Y0105407D01*
X0192006Y0105407D02*
X0193006Y0105407D01*
X0193006Y0106405D02*
X0192006Y0106405D01*
X0192006Y0107404D02*
X0193006Y0107404D01*
X0193006Y0108402D02*
X0192006Y0108402D01*
X0193006Y0109401D02*
X0211806Y0109401D01*
X0211806Y0110399D02*
X0197350Y0110399D01*
X0199006Y0111398D02*
X0200006Y0111398D01*
X0200006Y0112396D02*
X0199006Y0112396D01*
X0202789Y0111398D02*
X0211806Y0111398D01*
X0211798Y0112396D02*
X0202932Y0112396D01*
X0202932Y0113395D02*
X0210800Y0113395D01*
X0211806Y0108402D02*
X0197350Y0108402D01*
X0197350Y0107404D02*
X0204229Y0107404D01*
X0203230Y0106405D02*
X0197350Y0106405D01*
X0197278Y0105407D02*
X0203154Y0105407D01*
X0203154Y0104408D02*
X0202281Y0104408D01*
X0200602Y0102411D02*
X0196411Y0102411D01*
X0195413Y0101413D02*
X0201600Y0101413D01*
X0202599Y0100414D02*
X0194414Y0100414D01*
X0193415Y0099415D02*
X0203506Y0099415D01*
X0203506Y0098417D02*
X0117417Y0098417D01*
X0118415Y0099415D02*
X0182597Y0099415D01*
X0181599Y0100414D02*
X0119414Y0100414D01*
X0119506Y0101413D02*
X0141600Y0101413D01*
X0140602Y0102411D02*
X0119506Y0102411D01*
X0119506Y0103410D02*
X0139603Y0103410D01*
X0138605Y0104408D02*
X0119506Y0104408D01*
X0119506Y0105407D02*
X0137606Y0105407D01*
X0136608Y0106405D02*
X0119506Y0106405D01*
X0119506Y0107404D02*
X0135609Y0107404D01*
X0134611Y0108402D02*
X0119506Y0108402D01*
X0119506Y0109401D02*
X0133612Y0109401D01*
X0132613Y0110399D02*
X0119506Y0110399D01*
X0119506Y0111398D02*
X0131615Y0111398D01*
X0130616Y0112396D02*
X0118759Y0112396D01*
X0118759Y0114393D02*
X0128619Y0114393D01*
X0127621Y0115392D02*
X0118759Y0115392D01*
X0115006Y0113395D02*
X0129618Y0113395D01*
X0114006Y0113395D02*
X0108006Y0113395D01*
X0108006Y0113451D02*
X0110932Y0113451D01*
X0110932Y0113746D01*
X0114006Y0113746D01*
X0114006Y0112746D01*
X0110254Y0112746D01*
X0110254Y0112451D01*
X0108006Y0112451D01*
X0108006Y0113451D01*
X0107006Y0113451D01*
X0107006Y0112451D01*
X0104080Y0112451D01*
X0104080Y0112022D01*
X0102337Y0112022D01*
X0102337Y0112991D01*
X0105121Y0112991D01*
X0105121Y0113451D01*
X0107006Y0113451D01*
X0107006Y0115506D01*
X0108006Y0115506D01*
X0108006Y0113451D01*
X0108006Y0114393D02*
X0107006Y0114393D01*
X0107006Y0113395D02*
X0105121Y0113395D01*
X0104080Y0112396D02*
X0102337Y0112396D01*
X0101368Y0112396D02*
X0100506Y0112396D01*
X0100506Y0112022D02*
X0101368Y0112022D01*
X0101368Y0112991D01*
X0100506Y0112991D01*
X0100506Y0112022D01*
X0107006Y0115392D02*
X0108006Y0115392D01*
X0102506Y0118506D02*
X0102506Y0128026D01*
X0102522Y0128042D01*
X0100554Y0128042D02*
X0100554Y0119554D01*
X0098585Y0121585D02*
X0098585Y0128042D01*
X0096617Y0128042D02*
X0096617Y0123617D01*
X0094506Y0121506D01*
X0093701Y0124378D02*
X0084486Y0124378D01*
X0084167Y0123380D02*
X0089561Y0123380D01*
X0088563Y0122381D02*
X0083300Y0122381D01*
X0081969Y0121383D02*
X0087564Y0121383D01*
X0086566Y0120384D02*
X0080106Y0120384D01*
X0080106Y0119386D02*
X0082567Y0119386D01*
X0081569Y0118387D02*
X0080106Y0118387D01*
X0080106Y0117389D02*
X0080746Y0117389D01*
X0070906Y0117389D02*
X0041006Y0117389D01*
X0041006Y0118387D02*
X0070906Y0118387D01*
X0070906Y0119386D02*
X0041006Y0119386D01*
X0041006Y0120384D02*
X0070906Y0120384D01*
X0070906Y0121383D02*
X0041006Y0121383D01*
X0041006Y0122381D02*
X0070906Y0122381D01*
X0070906Y0116390D02*
X0041006Y0116390D01*
X0041006Y0115392D02*
X0070906Y0115392D01*
X0070906Y0114393D02*
X0041006Y0114393D01*
X0041006Y0113395D02*
X0070906Y0113395D01*
X0070906Y0112396D02*
X0041006Y0112396D01*
X0041006Y0111398D02*
X0070906Y0111398D01*
X0070906Y0110399D02*
X0041006Y0110399D01*
X0041006Y0109401D02*
X0070906Y0109401D01*
X0070906Y0108402D02*
X0041006Y0108402D01*
X0041006Y0107404D02*
X0070906Y0107404D01*
X0070906Y0106405D02*
X0041006Y0106405D01*
X0041006Y0105407D02*
X0070906Y0105407D01*
X0070906Y0104408D02*
X0041006Y0104408D01*
X0041006Y0103410D02*
X0070906Y0103410D01*
X0070906Y0102411D02*
X0041006Y0102411D01*
X0041006Y0101413D02*
X0071145Y0101413D01*
X0071922Y0100414D02*
X0041006Y0100414D01*
X0041006Y0099415D02*
X0072920Y0099415D01*
X0073919Y0098417D02*
X0041006Y0098417D01*
X0041006Y0097418D02*
X0074917Y0097418D01*
X0075916Y0096420D02*
X0041006Y0096420D01*
X0041006Y0095421D02*
X0076914Y0095421D01*
X0077913Y0094423D02*
X0041006Y0094423D01*
X0041006Y0093424D02*
X0078911Y0093424D01*
X0079910Y0092426D02*
X0041006Y0092426D01*
X0041006Y0091427D02*
X0082120Y0091427D01*
X0082120Y0090429D02*
X0041006Y0090429D01*
X0041006Y0089430D02*
X0082120Y0089430D01*
X0082120Y0088432D02*
X0041006Y0088432D01*
X0041006Y0087433D02*
X0090006Y0087433D01*
X0082120Y0086435D02*
X0041006Y0086435D01*
X0041006Y0085436D02*
X0082120Y0085436D01*
X0082120Y0084438D02*
X0041006Y0084438D01*
X0043506Y0073454D02*
X0046726Y0073454D01*
X0047476Y0072456D02*
X0043557Y0072456D01*
X0044555Y0071457D02*
X0049053Y0071457D01*
X0083449Y0102241D02*
X0085583Y0100106D01*
X0115429Y0100106D01*
X0116906Y0101583D01*
X0116906Y0101907D01*
X0115006Y0101907D01*
X0115006Y0105266D01*
X0114006Y0105266D01*
X0110932Y0105266D01*
X0110932Y0105561D01*
X0108006Y0105561D01*
X0108006Y0102694D01*
X0109803Y0102694D01*
X0110134Y0102783D01*
X0110296Y0102877D01*
X0110342Y0102705D01*
X0110513Y0102409D01*
X0110755Y0102167D01*
X0111052Y0101996D01*
X0111382Y0101907D01*
X0114006Y0101907D01*
X0114006Y0105266D01*
X0114006Y0106266D01*
X0110254Y0106266D01*
X0110254Y0106561D01*
X0108006Y0106561D01*
X0108006Y0105561D01*
X0107006Y0105561D01*
X0107006Y0102694D01*
X0105209Y0102694D01*
X0104879Y0102783D01*
X0104582Y0102954D01*
X0104376Y0103160D01*
X0104323Y0103130D01*
X0103992Y0103041D01*
X0102337Y0103041D01*
X0102337Y0106022D01*
X0101368Y0106022D01*
X0101368Y0103041D01*
X0099713Y0103041D01*
X0099382Y0103130D01*
X0099086Y0103301D01*
X0099072Y0103315D01*
X0097998Y0102241D01*
X0092321Y0102241D01*
X0091521Y0103041D01*
X0090337Y0103041D01*
X0090337Y0106022D01*
X0089368Y0106022D01*
X0089368Y0103041D01*
X0087713Y0103041D01*
X0087382Y0103130D01*
X0087086Y0103301D01*
X0087072Y0103315D01*
X0085998Y0102241D01*
X0083449Y0102241D01*
X0084277Y0101413D02*
X0116736Y0101413D01*
X0115737Y0100414D02*
X0085276Y0100414D01*
X0086168Y0102411D02*
X0092151Y0102411D01*
X0090337Y0103410D02*
X0089368Y0103410D01*
X0089368Y0104408D02*
X0090337Y0104408D01*
X0090337Y0105407D02*
X0089368Y0105407D01*
X0098168Y0102411D02*
X0110512Y0102411D01*
X0108006Y0103410D02*
X0107006Y0103410D01*
X0107006Y0104408D02*
X0108006Y0104408D01*
X0108006Y0105407D02*
X0107006Y0105407D01*
X0107006Y0105561D02*
X0105121Y0105561D01*
X0105121Y0106022D01*
X0102337Y0106022D01*
X0102337Y0106991D01*
X0104080Y0106991D01*
X0104080Y0106561D01*
X0107006Y0106561D01*
X0107006Y0105561D01*
X0107006Y0106405D02*
X0102337Y0106405D01*
X0102337Y0105407D02*
X0101368Y0105407D01*
X0101368Y0104408D02*
X0102337Y0104408D01*
X0102337Y0103410D02*
X0101368Y0103410D01*
X0108006Y0106405D02*
X0110254Y0106405D01*
X0110932Y0105407D02*
X0114006Y0105407D01*
X0114006Y0104408D02*
X0115006Y0104408D01*
X0115006Y0103410D02*
X0114006Y0103410D01*
X0114006Y0102411D02*
X0115006Y0102411D01*
X0105588Y0093424D02*
X0202424Y0093424D01*
X0201426Y0092426D02*
X0106506Y0092426D01*
X0106459Y0120506D02*
X0107160Y0120506D01*
X0106459Y0120506D02*
X0106459Y0128042D01*
X0104491Y0128042D02*
X0104491Y0131522D01*
X0108428Y0128042D02*
X0108428Y0125585D01*
X0109506Y0124506D01*
X0093999Y0125377D02*
X0086231Y0125377D01*
X0086432Y0126375D02*
X0093975Y0126375D01*
X0093975Y0127374D02*
X0086432Y0127374D01*
X0086432Y0128372D02*
X0093975Y0128372D01*
X0093975Y0129371D02*
X0086432Y0129371D01*
X0086432Y0130369D02*
X0088240Y0130369D01*
X0088080Y0131368D02*
X0086304Y0131368D01*
X0091006Y0131368D02*
X0092006Y0131368D01*
X0092006Y0130369D02*
X0091006Y0130369D01*
X0087280Y0137359D02*
X0085507Y0137359D01*
X0085507Y0138357D02*
X0087280Y0138357D01*
X0087280Y0139356D02*
X0085507Y0139356D01*
X0086242Y0140354D02*
X0087280Y0140354D01*
X0087280Y0141353D02*
X0087232Y0141353D01*
X0087232Y0142351D02*
X0087280Y0142351D01*
X0087232Y0143350D02*
X0087742Y0143350D01*
X0087232Y0144348D02*
X0089806Y0144348D01*
X0089806Y0145347D02*
X0087232Y0145347D01*
X0087232Y0146346D02*
X0089806Y0146346D01*
X0084506Y0144739D02*
X0084345Y0144577D01*
X0081006Y0139356D02*
X0080006Y0139356D01*
X0080006Y0138357D02*
X0081006Y0138357D01*
X0081006Y0137359D02*
X0080006Y0137359D01*
X0080006Y0134363D02*
X0081006Y0134363D01*
X0081006Y0133365D02*
X0080006Y0133365D01*
X0074506Y0134363D02*
X0073432Y0134363D01*
X0096617Y0144971D02*
X0096617Y0147396D01*
X0098585Y0148428D02*
X0098585Y0144971D01*
X0100506Y0144924D02*
X0100506Y0141506D01*
X0100506Y0144924D02*
X0100554Y0144971D01*
X0086074Y0156331D02*
X0085938Y0156331D01*
X0089061Y0160506D02*
X0090506Y0160506D01*
X0092506Y0162506D01*
X0084241Y0171308D02*
X0041006Y0171308D01*
X0041006Y0170310D02*
X0059860Y0170310D01*
X0063160Y0166506D02*
X0063160Y0160506D01*
X0066088Y0156331D02*
X0079964Y0156331D01*
X0078966Y0157329D02*
X0078908Y0157329D01*
X0076561Y0157329D02*
X0075561Y0157329D01*
X0075561Y0158328D02*
X0076561Y0158328D01*
X0076561Y0159326D02*
X0075561Y0159326D01*
X0075561Y0160325D02*
X0070337Y0160325D01*
X0070337Y0159326D02*
X0069368Y0159326D01*
X0069368Y0158328D02*
X0070337Y0158328D01*
X0070337Y0157329D02*
X0069368Y0157329D01*
X0072648Y0157329D02*
X0073215Y0157329D01*
X0080493Y0151338D02*
X0080520Y0151338D01*
X0079553Y0170310D02*
X0079460Y0170310D01*
X0084241Y0172307D02*
X0041006Y0172307D01*
X0041006Y0173305D02*
X0084241Y0173305D01*
X0084241Y0174304D02*
X0041006Y0174304D01*
X0048106Y0175302D02*
X0049106Y0175302D01*
X0049106Y0176301D02*
X0048106Y0176301D01*
X0048106Y0177299D02*
X0049106Y0177299D01*
X0049106Y0178298D02*
X0048106Y0178298D01*
X0048106Y0179296D02*
X0049106Y0179296D01*
X0049106Y0180295D02*
X0048106Y0180295D01*
X0048106Y0181293D02*
X0041006Y0181293D01*
X0048106Y0182292D02*
X0049106Y0182292D01*
X0049106Y0181406D02*
X0049106Y0186706D01*
X0058777Y0186706D01*
X0059108Y0186618D01*
X0059405Y0186447D01*
X0059647Y0186205D01*
X0059818Y0185908D01*
X0059906Y0185577D01*
X0059906Y0181406D01*
X0049106Y0181406D01*
X0049106Y0181293D02*
X0084241Y0181293D01*
X0084241Y0180295D02*
X0059906Y0180295D01*
X0059906Y0179296D02*
X0084241Y0179296D01*
X0084241Y0178298D02*
X0059906Y0178298D01*
X0059906Y0177299D02*
X0084241Y0177299D01*
X0084241Y0176301D02*
X0059906Y0176301D01*
X0059294Y0175302D02*
X0084545Y0175302D01*
X0084842Y0182292D02*
X0059906Y0182292D01*
X0059906Y0183290D02*
X0124406Y0183290D01*
X0124406Y0184289D02*
X0059906Y0184289D01*
X0059906Y0185287D02*
X0124406Y0185287D01*
X0124406Y0186286D02*
X0059565Y0186286D01*
X0049106Y0186286D02*
X0048106Y0186286D01*
X0048106Y0185287D02*
X0049106Y0185287D01*
X0049106Y0184289D02*
X0048106Y0184289D01*
X0048106Y0183290D02*
X0049106Y0183290D01*
X0041006Y0187284D02*
X0124530Y0187284D01*
X0125133Y0188283D02*
X0041006Y0188283D01*
X0041006Y0189282D02*
X0126131Y0189282D01*
X0127234Y0190280D02*
X0041006Y0190280D01*
X0041006Y0191279D02*
X0296006Y0191279D01*
X0296006Y0192277D02*
X0041006Y0192277D01*
X0041006Y0193276D02*
X0296006Y0193276D01*
X0296006Y0194274D02*
X0041006Y0194274D01*
X0041006Y0195273D02*
X0296006Y0195273D01*
X0296006Y0190280D02*
X0192509Y0190280D01*
X0193611Y0189282D02*
X0296006Y0189282D01*
X0296006Y0188283D02*
X0194359Y0188283D01*
X0194586Y0187284D02*
X0296006Y0187284D01*
X0296006Y0186286D02*
X0194586Y0186286D01*
X0194586Y0185287D02*
X0296006Y0185287D01*
X0296006Y0184289D02*
X0194586Y0184289D01*
X0194424Y0183290D02*
X0296006Y0183290D01*
X0296006Y0182292D02*
X0193768Y0182292D01*
X0192770Y0181293D02*
X0296006Y0181293D01*
X0296006Y0180295D02*
X0184218Y0180295D01*
X0184298Y0179296D02*
X0296006Y0179296D01*
X0296006Y0178298D02*
X0183995Y0178298D01*
X0184184Y0177299D02*
X0274087Y0177299D01*
X0273088Y0176301D02*
X0208868Y0176301D01*
X0207006Y0176301D02*
X0206006Y0176301D01*
X0206006Y0175302D02*
X0207006Y0175302D01*
X0204145Y0176301D02*
X0197868Y0176301D01*
X0198902Y0175302D02*
X0203111Y0175302D01*
X0203080Y0174304D02*
X0198932Y0174304D01*
X0198932Y0172307D02*
X0203080Y0172307D01*
X0203080Y0171308D02*
X0198932Y0171308D01*
X0198802Y0170310D02*
X0203211Y0170310D01*
X0202593Y0169311D02*
X0199419Y0169311D01*
X0199732Y0168313D02*
X0202280Y0168313D01*
X0202280Y0167314D02*
X0199732Y0167314D01*
X0199732Y0166316D02*
X0202280Y0166316D01*
X0202280Y0165317D02*
X0199732Y0165317D01*
X0200345Y0164319D02*
X0201668Y0164319D01*
X0201269Y0163320D02*
X0200744Y0163320D01*
X0200744Y0162322D02*
X0201269Y0162322D01*
X0201269Y0161323D02*
X0200744Y0161323D01*
X0200744Y0160325D02*
X0201269Y0160325D01*
X0201269Y0159326D02*
X0200910Y0159326D01*
X0200902Y0158328D02*
X0201269Y0158328D01*
X0201269Y0157329D02*
X0200912Y0157329D01*
X0204951Y0159439D02*
X0206518Y0159506D01*
X0212506Y0157561D02*
X0212506Y0155506D01*
X0210506Y0153506D01*
X0209506Y0153506D01*
X0208506Y0152506D01*
X0208506Y0148506D01*
X0207617Y0147617D01*
X0207617Y0142857D01*
X0209585Y0142857D02*
X0209585Y0137506D01*
X0210506Y0137506D01*
X0214006Y0137359D02*
X0215006Y0137359D01*
X0215006Y0138357D02*
X0214006Y0138357D01*
X0214006Y0139356D02*
X0215006Y0139356D01*
X0215006Y0139477D02*
X0215006Y0134006D01*
X0214006Y0134006D01*
X0214006Y0139477D01*
X0215006Y0139477D01*
X0215006Y0136360D02*
X0214006Y0136360D01*
X0214006Y0135362D02*
X0215006Y0135362D01*
X0215006Y0134363D02*
X0214006Y0134363D01*
X0215006Y0134006D02*
X0215006Y0133006D01*
X0220477Y0133006D01*
X0220477Y0134006D01*
X0215006Y0134006D01*
X0215006Y0133365D02*
X0220477Y0133365D01*
X0218506Y0137506D02*
X0218506Y0138428D01*
X0223857Y0138428D01*
X0223857Y0140396D02*
X0227396Y0140396D01*
X0227506Y0140506D01*
X0213522Y0142857D02*
X0213522Y0148522D01*
X0218506Y0153506D01*
X0234506Y0153506D01*
X0237506Y0156506D01*
X0237506Y0158660D01*
X0238006Y0159160D01*
X0242272Y0158328D02*
X0242629Y0158328D01*
X0232506Y0166506D02*
X0231506Y0165506D01*
X0228006Y0165506D01*
X0227006Y0164506D01*
X0227006Y0162160D01*
X0226506Y0161660D01*
X0226506Y0156506D01*
X0225506Y0155506D01*
X0217506Y0155506D01*
X0211554Y0149554D01*
X0211554Y0142857D01*
X0205156Y0140396D02*
X0202617Y0140396D01*
X0201506Y0141506D01*
X0201506Y0146506D01*
X0204506Y0149506D01*
X0204506Y0153061D01*
X0204951Y0152506D01*
X0198506Y0151951D02*
X0198061Y0152506D01*
X0198506Y0151951D02*
X0198506Y0140506D01*
X0200585Y0138428D01*
X0205156Y0138428D01*
X0210506Y0129506D02*
X0209585Y0128585D01*
X0205156Y0128585D01*
X0205156Y0126617D02*
X0194617Y0126617D01*
X0194506Y0126506D01*
X0206106Y0120384D02*
X0206985Y0120384D01*
X0209585Y0118428D02*
X0209585Y0124156D01*
X0213499Y0121383D02*
X0213545Y0121383D01*
X0214442Y0117389D02*
X0218447Y0117389D01*
X0219445Y0116390D02*
X0215441Y0116390D01*
X0216439Y0115392D02*
X0220444Y0115392D01*
X0221442Y0114393D02*
X0217061Y0114393D01*
X0217206Y0113395D02*
X0222441Y0113395D01*
X0223440Y0112396D02*
X0217206Y0112396D01*
X0217206Y0111398D02*
X0224438Y0111398D01*
X0225858Y0105806D02*
X0226388Y0105806D01*
X0230066Y0102128D01*
X0230066Y0092256D01*
X0229107Y0091297D01*
X0229107Y0087195D01*
X0229907Y0086395D01*
X0229907Y0085597D01*
X0232888Y0085597D01*
X0232888Y0085416D01*
X0229907Y0085416D01*
X0229907Y0084617D01*
X0229107Y0083817D01*
X0229107Y0079715D01*
X0230173Y0078649D01*
X0229954Y0078430D01*
X0229783Y0078134D01*
X0229694Y0077803D01*
X0229694Y0076006D01*
X0232561Y0076006D01*
X0232561Y0075006D01*
X0229694Y0075006D01*
X0229694Y0073209D01*
X0229783Y0072879D01*
X0229954Y0072582D01*
X0230196Y0072340D01*
X0230493Y0072169D01*
X0230823Y0072080D01*
X0232561Y0072080D01*
X0232561Y0075006D01*
X0233561Y0075006D01*
X0233561Y0072080D01*
X0235299Y0072080D01*
X0235630Y0072169D01*
X0235927Y0072340D01*
X0235941Y0072354D01*
X0237014Y0071280D01*
X0237606Y0071280D01*
X0237606Y0070708D01*
X0236305Y0069406D01*
X0230708Y0069406D01*
X0227406Y0072708D01*
X0227406Y0084729D01*
X0228710Y0086034D01*
X0229106Y0086989D01*
X0229106Y0095023D01*
X0228710Y0095979D01*
X0227979Y0096710D01*
X0225979Y0098710D01*
X0225858Y0098760D01*
X0225858Y0105806D01*
X0225858Y0105407D02*
X0226788Y0105407D01*
X0225858Y0104408D02*
X0227786Y0104408D01*
X0228785Y0103410D02*
X0225858Y0103410D01*
X0225858Y0102411D02*
X0229783Y0102411D01*
X0230066Y0101413D02*
X0225858Y0101413D01*
X0225858Y0100414D02*
X0230066Y0100414D01*
X0230066Y0099415D02*
X0225858Y0099415D01*
X0226273Y0098417D02*
X0230066Y0098417D01*
X0230066Y0097418D02*
X0227271Y0097418D01*
X0228270Y0096420D02*
X0230066Y0096420D01*
X0230066Y0095421D02*
X0228941Y0095421D01*
X0229106Y0094423D02*
X0230066Y0094423D01*
X0230066Y0093424D02*
X0229106Y0093424D01*
X0229106Y0092426D02*
X0230066Y0092426D01*
X0229237Y0091427D02*
X0229106Y0091427D01*
X0229106Y0090429D02*
X0229107Y0090429D01*
X0229106Y0089430D02*
X0229107Y0089430D01*
X0229106Y0088432D02*
X0229107Y0088432D01*
X0229106Y0087433D02*
X0229107Y0087433D01*
X0228877Y0086435D02*
X0229868Y0086435D01*
X0229728Y0084438D02*
X0227406Y0084438D01*
X0227406Y0083439D02*
X0229107Y0083439D01*
X0229107Y0082441D02*
X0227406Y0082441D01*
X0227406Y0081442D02*
X0229107Y0081442D01*
X0229107Y0080444D02*
X0227406Y0080444D01*
X0227406Y0079445D02*
X0229377Y0079445D01*
X0229970Y0078447D02*
X0227406Y0078447D01*
X0227406Y0077448D02*
X0229694Y0077448D01*
X0229694Y0076450D02*
X0227406Y0076450D01*
X0227406Y0075451D02*
X0232561Y0075451D01*
X0232561Y0074453D02*
X0233561Y0074453D01*
X0233561Y0073454D02*
X0232561Y0073454D01*
X0232561Y0072456D02*
X0233561Y0072456D01*
X0236838Y0071457D02*
X0228657Y0071457D01*
X0229655Y0070459D02*
X0237357Y0070459D01*
X0236359Y0069460D02*
X0230654Y0069460D01*
X0225447Y0066465D02*
X0209305Y0066465D01*
X0209772Y0067463D02*
X0224448Y0067463D01*
X0223450Y0068462D02*
X0209772Y0068462D01*
X0209772Y0069460D02*
X0222451Y0069460D01*
X0221801Y0070459D02*
X0209772Y0070459D01*
X0209772Y0071457D02*
X0221606Y0071457D01*
X0221606Y0072456D02*
X0214774Y0072456D01*
X0215121Y0073454D02*
X0221606Y0073454D01*
X0221606Y0074453D02*
X0215121Y0074453D01*
X0215121Y0075991D02*
X0212337Y0075991D01*
X0212337Y0078972D01*
X0213992Y0078972D01*
X0214323Y0078883D01*
X0214619Y0078712D01*
X0214862Y0078470D01*
X0215033Y0078173D01*
X0215121Y0077843D01*
X0215121Y0075991D01*
X0215121Y0076450D02*
X0221606Y0076450D01*
X0221606Y0077448D02*
X0215121Y0077448D01*
X0214875Y0078447D02*
X0221606Y0078447D01*
X0221606Y0079445D02*
X0216636Y0079445D01*
X0219006Y0080444D02*
X0220006Y0080444D01*
X0220006Y0081442D02*
X0219006Y0081442D01*
X0219006Y0082441D02*
X0220006Y0082441D01*
X0223578Y0086435D02*
X0224901Y0086435D01*
X0225057Y0086811D02*
X0224524Y0085524D01*
X0224506Y0085506D01*
X0222766Y0087247D01*
X0222844Y0087382D01*
X0222932Y0087713D01*
X0222932Y0089451D01*
X0220561Y0089451D01*
X0220506Y0089506D01*
X0220006Y0089506D01*
X0220006Y0090451D01*
X0219006Y0090451D01*
X0219006Y0093318D01*
X0217528Y0093318D01*
X0217528Y0094606D01*
X0221083Y0094606D01*
X0222149Y0095048D01*
X0223149Y0096048D01*
X0223608Y0096506D01*
X0224506Y0096506D01*
X0226506Y0094506D01*
X0226506Y0088082D01*
X0226202Y0087955D01*
X0225057Y0086811D01*
X0225680Y0087433D02*
X0222857Y0087433D01*
X0222932Y0088432D02*
X0226506Y0088432D01*
X0226506Y0089430D02*
X0222932Y0089430D01*
X0222932Y0090451D02*
X0220006Y0090451D01*
X0220006Y0093318D01*
X0221803Y0093318D01*
X0222134Y0093230D01*
X0222430Y0093058D01*
X0222673Y0092816D01*
X0222844Y0092520D01*
X0222932Y0092189D01*
X0222932Y0090451D01*
X0222932Y0091427D02*
X0226506Y0091427D01*
X0226506Y0090429D02*
X0220006Y0090429D01*
X0220006Y0091427D02*
X0219006Y0091427D01*
X0219006Y0092426D02*
X0220006Y0092426D01*
X0217528Y0093424D02*
X0226506Y0093424D01*
X0226506Y0092426D02*
X0222869Y0092426D01*
X0222523Y0095421D02*
X0225591Y0095421D01*
X0226506Y0094423D02*
X0217528Y0094423D01*
X0223521Y0096420D02*
X0224593Y0096420D01*
X0235466Y0096420D02*
X0242894Y0096420D01*
X0243109Y0096206D02*
X0242428Y0096887D01*
X0239509Y0096887D01*
X0238553Y0097282D01*
X0237822Y0098014D01*
X0235466Y0100370D01*
X0235466Y0092528D01*
X0235620Y0092528D01*
X0236665Y0091483D01*
X0236717Y0091535D01*
X0237709Y0091946D01*
X0238811Y0091946D01*
X0239392Y0092528D01*
X0244454Y0092528D01*
X0244454Y0092628D01*
X0245684Y0093858D01*
X0253329Y0093858D01*
X0254559Y0092628D01*
X0254559Y0085209D01*
X0255149Y0084965D01*
X0258905Y0081209D01*
X0258606Y0081929D01*
X0258606Y0090305D01*
X0252706Y0096206D01*
X0249014Y0096206D01*
X0248506Y0096714D01*
X0247998Y0096206D01*
X0243109Y0096206D01*
X0245250Y0093424D02*
X0235466Y0093424D01*
X0235466Y0094423D02*
X0254488Y0094423D01*
X0253763Y0093424D02*
X0255487Y0093424D01*
X0254559Y0092426D02*
X0256485Y0092426D01*
X0257484Y0091427D02*
X0254559Y0091427D01*
X0254559Y0090429D02*
X0258482Y0090429D01*
X0258606Y0089430D02*
X0254559Y0089430D01*
X0254559Y0088432D02*
X0258606Y0088432D01*
X0258606Y0087433D02*
X0254559Y0087433D01*
X0254559Y0086435D02*
X0258606Y0086435D01*
X0258606Y0085436D02*
X0254559Y0085436D01*
X0255676Y0084438D02*
X0258606Y0084438D01*
X0258606Y0083439D02*
X0256674Y0083439D01*
X0257673Y0082441D02*
X0258606Y0082441D01*
X0258672Y0081442D02*
X0258808Y0081442D01*
X0255462Y0076450D02*
X0254559Y0076450D01*
X0254559Y0075451D02*
X0256460Y0075451D01*
X0257459Y0074453D02*
X0254559Y0074453D01*
X0254559Y0073454D02*
X0258457Y0073454D01*
X0259456Y0072456D02*
X0254559Y0072456D01*
X0253632Y0071457D02*
X0260454Y0071457D01*
X0260606Y0070459D02*
X0243406Y0070459D01*
X0243406Y0071457D02*
X0245381Y0071457D01*
X0244454Y0072456D02*
X0244063Y0072456D01*
X0243406Y0069460D02*
X0260606Y0069460D01*
X0260606Y0068462D02*
X0243213Y0068462D01*
X0242564Y0067463D02*
X0260606Y0067463D01*
X0260606Y0066465D02*
X0241566Y0066465D01*
X0240567Y0065466D02*
X0260606Y0065466D01*
X0260606Y0064468D02*
X0239569Y0064468D01*
X0228618Y0059108D02*
X0228447Y0059405D01*
X0228205Y0059647D01*
X0227908Y0059818D01*
X0227577Y0059906D01*
X0223406Y0059906D01*
X0223406Y0049106D01*
X0228706Y0049106D01*
X0228706Y0058777D01*
X0228618Y0059108D01*
X0228376Y0059475D02*
X0260795Y0059475D01*
X0260606Y0060474D02*
X0211109Y0060474D01*
X0212106Y0059475D02*
X0217437Y0059475D01*
X0217366Y0059405D02*
X0217195Y0059108D01*
X0217106Y0058777D01*
X0217106Y0049106D01*
X0222406Y0049106D01*
X0222406Y0059906D01*
X0218235Y0059906D01*
X0217905Y0059818D01*
X0217608Y0059647D01*
X0217366Y0059405D01*
X0217106Y0058477D02*
X0212106Y0058477D01*
X0212106Y0057478D02*
X0217106Y0057478D01*
X0217106Y0056480D02*
X0212106Y0056480D01*
X0212106Y0055481D02*
X0217106Y0055481D01*
X0217106Y0054482D02*
X0212106Y0054482D01*
X0212106Y0053484D02*
X0217106Y0053484D01*
X0217106Y0052485D02*
X0212106Y0052485D01*
X0212106Y0051487D02*
X0217106Y0051487D01*
X0217106Y0050488D02*
X0212106Y0050488D01*
X0212106Y0049490D02*
X0217106Y0049490D01*
X0217106Y0047493D02*
X0212106Y0047493D01*
X0212106Y0048491D02*
X0222406Y0048491D01*
X0222406Y0047493D02*
X0223406Y0047493D01*
X0223406Y0048491D02*
X0273309Y0048491D01*
X0274307Y0047493D02*
X0228706Y0047493D01*
X0228706Y0046494D02*
X0296006Y0046494D01*
X0296006Y0045496D02*
X0228706Y0045496D01*
X0228706Y0044497D02*
X0296006Y0044497D01*
X0296006Y0043499D02*
X0228706Y0043499D01*
X0228706Y0042500D02*
X0296006Y0042500D01*
X0296006Y0041502D02*
X0228706Y0041502D01*
X0223406Y0041502D02*
X0222406Y0041502D01*
X0222406Y0042500D02*
X0223406Y0042500D01*
X0223406Y0043499D02*
X0222406Y0043499D01*
X0222406Y0044497D02*
X0223406Y0044497D01*
X0223406Y0045496D02*
X0222406Y0045496D01*
X0222406Y0046494D02*
X0223406Y0046494D01*
X0223406Y0049490D02*
X0222406Y0049490D01*
X0222406Y0050488D02*
X0223406Y0050488D01*
X0223406Y0051487D02*
X0222406Y0051487D01*
X0222406Y0052485D02*
X0223406Y0052485D01*
X0223406Y0053484D02*
X0222406Y0053484D01*
X0222406Y0054482D02*
X0223406Y0054482D01*
X0223406Y0055481D02*
X0222406Y0055481D01*
X0222406Y0056480D02*
X0223406Y0056480D01*
X0223406Y0057478D02*
X0222406Y0057478D01*
X0222406Y0058477D02*
X0223406Y0058477D01*
X0223406Y0059475D02*
X0222406Y0059475D01*
X0228706Y0058477D02*
X0261435Y0058477D01*
X0262433Y0057478D02*
X0228706Y0057478D01*
X0228706Y0056480D02*
X0263432Y0056480D01*
X0264430Y0055481D02*
X0228706Y0055481D01*
X0228706Y0054482D02*
X0265429Y0054482D01*
X0266427Y0053484D02*
X0228706Y0053484D01*
X0228706Y0052485D02*
X0267426Y0052485D01*
X0268424Y0051487D02*
X0228706Y0051487D01*
X0228706Y0050488D02*
X0269423Y0050488D01*
X0272310Y0049490D02*
X0228706Y0049490D01*
X0217106Y0046494D02*
X0212106Y0046494D01*
X0212106Y0045496D02*
X0217106Y0045496D01*
X0217106Y0044497D02*
X0212106Y0044497D01*
X0212106Y0043499D02*
X0217106Y0043499D01*
X0217106Y0042500D02*
X0212106Y0042500D01*
X0212106Y0041502D02*
X0217106Y0041502D01*
X0209772Y0061472D02*
X0260606Y0061472D01*
X0260606Y0062471D02*
X0209772Y0062471D01*
X0209772Y0063469D02*
X0260606Y0063469D01*
X0278762Y0067463D02*
X0296006Y0067463D01*
X0296006Y0066465D02*
X0288629Y0066465D01*
X0288287Y0066806D02*
X0287006Y0066806D01*
X0287006Y0063006D01*
X0286006Y0063006D01*
X0286006Y0062006D01*
X0282206Y0062006D01*
X0282206Y0060725D01*
X0284725Y0058206D01*
X0286006Y0058206D01*
X0286006Y0062006D01*
X0287006Y0062006D01*
X0287006Y0058206D01*
X0288287Y0058206D01*
X0290806Y0060725D01*
X0290806Y0062006D01*
X0287006Y0062006D01*
X0287006Y0063006D01*
X0290806Y0063006D01*
X0290806Y0064287D01*
X0288287Y0066806D01*
X0287006Y0066465D02*
X0286006Y0066465D01*
X0286006Y0066806D02*
X0284725Y0066806D01*
X0282206Y0064287D01*
X0282206Y0063006D01*
X0286006Y0063006D01*
X0286006Y0066806D01*
X0286006Y0065466D02*
X0287006Y0065466D01*
X0287006Y0064468D02*
X0286006Y0064468D01*
X0286006Y0063469D02*
X0287006Y0063469D01*
X0287006Y0062471D02*
X0296006Y0062471D01*
X0296006Y0063469D02*
X0290806Y0063469D01*
X0290626Y0064468D02*
X0296006Y0064468D01*
X0296006Y0065466D02*
X0289628Y0065466D01*
X0290806Y0061472D02*
X0296006Y0061472D01*
X0296006Y0060474D02*
X0290555Y0060474D01*
X0289556Y0059475D02*
X0296006Y0059475D01*
X0296006Y0058477D02*
X0288558Y0058477D01*
X0287006Y0058477D02*
X0286006Y0058477D01*
X0286006Y0059475D02*
X0287006Y0059475D01*
X0287006Y0060474D02*
X0286006Y0060474D01*
X0286006Y0061472D02*
X0287006Y0061472D01*
X0286006Y0062471D02*
X0281606Y0062471D01*
X0281606Y0063469D02*
X0282206Y0063469D01*
X0282386Y0064468D02*
X0281606Y0064468D01*
X0280759Y0065466D02*
X0283385Y0065466D01*
X0284384Y0066465D02*
X0279760Y0066465D01*
X0279674Y0068462D02*
X0284470Y0068462D01*
X0284725Y0068206D02*
X0282206Y0070725D01*
X0282206Y0072006D01*
X0286006Y0072006D01*
X0286006Y0073006D01*
X0282206Y0073006D01*
X0282206Y0074287D01*
X0284725Y0076806D01*
X0286006Y0076806D01*
X0286006Y0073006D01*
X0287006Y0073006D01*
X0287006Y0076806D01*
X0288287Y0076806D01*
X0290806Y0074287D01*
X0290806Y0073006D01*
X0287006Y0073006D01*
X0287006Y0072006D01*
X0287006Y0068206D01*
X0288287Y0068206D01*
X0290806Y0070725D01*
X0290806Y0072006D01*
X0287006Y0072006D01*
X0286006Y0072006D01*
X0286006Y0068206D01*
X0284725Y0068206D01*
X0286006Y0068462D02*
X0287006Y0068462D01*
X0287006Y0069460D02*
X0286006Y0069460D01*
X0286006Y0070459D02*
X0287006Y0070459D01*
X0287006Y0071457D02*
X0286006Y0071457D01*
X0286006Y0072456D02*
X0281606Y0072456D01*
X0281606Y0073454D02*
X0282206Y0073454D01*
X0282372Y0074453D02*
X0281606Y0074453D01*
X0280774Y0075451D02*
X0283370Y0075451D01*
X0284369Y0076450D02*
X0279775Y0076450D01*
X0278777Y0077448D02*
X0296006Y0077448D01*
X0296006Y0076450D02*
X0288644Y0076450D01*
X0289642Y0075451D02*
X0296006Y0075451D01*
X0296006Y0074453D02*
X0290641Y0074453D01*
X0290806Y0073454D02*
X0296006Y0073454D01*
X0296006Y0072456D02*
X0287006Y0072456D01*
X0287006Y0073454D02*
X0286006Y0073454D01*
X0286006Y0074453D02*
X0287006Y0074453D01*
X0287006Y0075451D02*
X0286006Y0075451D01*
X0286006Y0076450D02*
X0287006Y0076450D01*
X0287006Y0078206D02*
X0288287Y0078206D01*
X0290806Y0080725D01*
X0290806Y0082006D01*
X0287006Y0082006D01*
X0287006Y0078206D01*
X0287006Y0078447D02*
X0286006Y0078447D01*
X0286006Y0078206D02*
X0286006Y0082006D01*
X0282206Y0082006D01*
X0282206Y0080725D01*
X0284725Y0078206D01*
X0286006Y0078206D01*
X0286006Y0079445D02*
X0287006Y0079445D01*
X0287006Y0080444D02*
X0286006Y0080444D01*
X0286006Y0081442D02*
X0287006Y0081442D01*
X0287006Y0082006D02*
X0286006Y0082006D01*
X0286006Y0083006D01*
X0282206Y0083006D01*
X0282206Y0084287D01*
X0284725Y0086806D01*
X0286006Y0086806D01*
X0286006Y0083006D01*
X0287006Y0083006D01*
X0287006Y0086806D01*
X0288287Y0086806D01*
X0290806Y0084287D01*
X0290806Y0083006D01*
X0287006Y0083006D01*
X0287006Y0082006D01*
X0287006Y0082441D02*
X0296006Y0082441D01*
X0296006Y0083439D02*
X0290806Y0083439D01*
X0290656Y0084438D02*
X0296006Y0084438D01*
X0296006Y0085436D02*
X0289657Y0085436D01*
X0288659Y0086435D02*
X0296006Y0086435D01*
X0296006Y0087433D02*
X0278792Y0087433D01*
X0279644Y0088432D02*
X0284500Y0088432D01*
X0284725Y0088206D02*
X0282206Y0090725D01*
X0282206Y0092006D01*
X0286006Y0092006D01*
X0286006Y0093006D01*
X0282206Y0093006D01*
X0282206Y0094287D01*
X0284725Y0096806D01*
X0286006Y0096806D01*
X0286006Y0093006D01*
X0287006Y0093006D01*
X0287006Y0096806D01*
X0288287Y0096806D01*
X0290806Y0094287D01*
X0290806Y0093006D01*
X0287006Y0093006D01*
X0287006Y0092006D01*
X0287006Y0088206D01*
X0288287Y0088206D01*
X0290806Y0090725D01*
X0290806Y0092006D01*
X0287006Y0092006D01*
X0286006Y0092006D01*
X0286006Y0088206D01*
X0284725Y0088206D01*
X0286006Y0088432D02*
X0287006Y0088432D01*
X0287006Y0089430D02*
X0286006Y0089430D01*
X0286006Y0090429D02*
X0287006Y0090429D01*
X0287006Y0091427D02*
X0286006Y0091427D01*
X0286006Y0092426D02*
X0281606Y0092426D01*
X0281606Y0093424D02*
X0282206Y0093424D01*
X0282342Y0094423D02*
X0281606Y0094423D01*
X0280804Y0095421D02*
X0283340Y0095421D01*
X0284339Y0096420D02*
X0279805Y0096420D01*
X0278807Y0097418D02*
X0296006Y0097418D01*
X0296006Y0096420D02*
X0288674Y0096420D01*
X0289672Y0095421D02*
X0296006Y0095421D01*
X0296006Y0094423D02*
X0290671Y0094423D01*
X0290806Y0093424D02*
X0296006Y0093424D01*
X0296006Y0092426D02*
X0287006Y0092426D01*
X0287006Y0093424D02*
X0286006Y0093424D01*
X0286006Y0094423D02*
X0287006Y0094423D01*
X0287006Y0095421D02*
X0286006Y0095421D01*
X0286006Y0096420D02*
X0287006Y0096420D01*
X0287006Y0098206D02*
X0288287Y0098206D01*
X0290806Y0100725D01*
X0290806Y0102006D01*
X0287006Y0102006D01*
X0287006Y0098206D01*
X0287006Y0098417D02*
X0286006Y0098417D01*
X0286006Y0098206D02*
X0286006Y0102006D01*
X0282206Y0102006D01*
X0282206Y0100725D01*
X0284725Y0098206D01*
X0286006Y0098206D01*
X0286006Y0099415D02*
X0287006Y0099415D01*
X0287006Y0100414D02*
X0286006Y0100414D01*
X0286006Y0101413D02*
X0287006Y0101413D01*
X0287006Y0102006D02*
X0286006Y0102006D01*
X0286006Y0103006D01*
X0282206Y0103006D01*
X0282206Y0104287D01*
X0284725Y0106806D01*
X0286006Y0106806D01*
X0286006Y0103006D01*
X0287006Y0103006D01*
X0287006Y0106806D01*
X0288287Y0106806D01*
X0290806Y0104287D01*
X0290806Y0103006D01*
X0287006Y0103006D01*
X0287006Y0102006D01*
X0287006Y0102411D02*
X0296006Y0102411D01*
X0296006Y0101413D02*
X0290806Y0101413D01*
X0290495Y0100414D02*
X0296006Y0100414D01*
X0296006Y0099415D02*
X0289497Y0099415D01*
X0288498Y0098417D02*
X0296006Y0098417D01*
X0296006Y0103410D02*
X0290806Y0103410D01*
X0290686Y0104408D02*
X0296006Y0104408D01*
X0296006Y0105407D02*
X0289687Y0105407D01*
X0288689Y0106405D02*
X0296006Y0106405D01*
X0296006Y0107404D02*
X0278821Y0107404D01*
X0279615Y0108402D02*
X0284529Y0108402D01*
X0284725Y0108206D02*
X0282206Y0110725D01*
X0282206Y0112006D01*
X0286006Y0112006D01*
X0286006Y0113006D01*
X0282206Y0113006D01*
X0282206Y0114287D01*
X0284725Y0116806D01*
X0286006Y0116806D01*
X0286006Y0113006D01*
X0287006Y0113006D01*
X0287006Y0116806D01*
X0288287Y0116806D01*
X0290806Y0114287D01*
X0290806Y0113006D01*
X0287006Y0113006D01*
X0287006Y0112006D01*
X0287006Y0108206D01*
X0288287Y0108206D01*
X0290806Y0110725D01*
X0290806Y0112006D01*
X0287006Y0112006D01*
X0286006Y0112006D01*
X0286006Y0108206D01*
X0284725Y0108206D01*
X0286006Y0108402D02*
X0287006Y0108402D01*
X0287006Y0109401D02*
X0286006Y0109401D01*
X0286006Y0110399D02*
X0287006Y0110399D01*
X0287006Y0111398D02*
X0286006Y0111398D01*
X0286006Y0112396D02*
X0281606Y0112396D01*
X0281606Y0111398D02*
X0282206Y0111398D01*
X0282532Y0110399D02*
X0281606Y0110399D01*
X0280613Y0109401D02*
X0283531Y0109401D01*
X0284324Y0106405D02*
X0279820Y0106405D01*
X0280819Y0105407D02*
X0283325Y0105407D01*
X0282327Y0104408D02*
X0281606Y0104408D01*
X0281606Y0103410D02*
X0282206Y0103410D01*
X0281606Y0102411D02*
X0286006Y0102411D01*
X0286006Y0103410D02*
X0287006Y0103410D01*
X0287006Y0104408D02*
X0286006Y0104408D01*
X0286006Y0105407D02*
X0287006Y0105407D01*
X0287006Y0106405D02*
X0286006Y0106405D01*
X0288483Y0108402D02*
X0296006Y0108402D01*
X0296006Y0109401D02*
X0289482Y0109401D01*
X0290480Y0110399D02*
X0296006Y0110399D01*
X0296006Y0111398D02*
X0290806Y0111398D01*
X0290806Y0113395D02*
X0296006Y0113395D01*
X0296006Y0114393D02*
X0290701Y0114393D01*
X0289702Y0115392D02*
X0296006Y0115392D01*
X0296006Y0116390D02*
X0288704Y0116390D01*
X0287006Y0116390D02*
X0286006Y0116390D01*
X0286006Y0115392D02*
X0287006Y0115392D01*
X0287006Y0114393D02*
X0286006Y0114393D01*
X0286006Y0113395D02*
X0287006Y0113395D01*
X0287006Y0112396D02*
X0296006Y0112396D01*
X0296006Y0117389D02*
X0278836Y0117389D01*
X0279600Y0118387D02*
X0284544Y0118387D01*
X0284725Y0118206D02*
X0282206Y0120725D01*
X0282206Y0122006D01*
X0286006Y0122006D01*
X0286006Y0123006D01*
X0282206Y0123006D01*
X0282206Y0124287D01*
X0284725Y0126806D01*
X0286006Y0126806D01*
X0286006Y0123006D01*
X0287006Y0123006D01*
X0287006Y0126806D01*
X0288287Y0126806D01*
X0290806Y0124287D01*
X0290806Y0123006D01*
X0287006Y0123006D01*
X0287006Y0122006D01*
X0287006Y0118206D01*
X0288287Y0118206D01*
X0290806Y0120725D01*
X0290806Y0122006D01*
X0287006Y0122006D01*
X0286006Y0122006D01*
X0286006Y0118206D01*
X0284725Y0118206D01*
X0286006Y0118387D02*
X0287006Y0118387D01*
X0287006Y0119386D02*
X0286006Y0119386D01*
X0286006Y0120384D02*
X0287006Y0120384D01*
X0287006Y0121383D02*
X0286006Y0121383D01*
X0286006Y0122381D02*
X0281606Y0122381D01*
X0281606Y0121383D02*
X0282206Y0121383D01*
X0282547Y0120384D02*
X0281597Y0120384D01*
X0280598Y0119386D02*
X0283546Y0119386D01*
X0284309Y0116390D02*
X0279835Y0116390D01*
X0280833Y0115392D02*
X0283311Y0115392D01*
X0282312Y0114393D02*
X0281606Y0114393D01*
X0281606Y0113395D02*
X0282206Y0113395D01*
X0288468Y0118387D02*
X0296006Y0118387D01*
X0296006Y0119386D02*
X0289467Y0119386D01*
X0290465Y0120384D02*
X0296006Y0120384D01*
X0296006Y0121383D02*
X0290806Y0121383D01*
X0290806Y0123380D02*
X0296006Y0123380D01*
X0296006Y0124378D02*
X0290715Y0124378D01*
X0289717Y0125377D02*
X0296006Y0125377D01*
X0296006Y0126375D02*
X0288718Y0126375D01*
X0287006Y0126375D02*
X0286006Y0126375D01*
X0286006Y0125377D02*
X0287006Y0125377D01*
X0287006Y0124378D02*
X0286006Y0124378D01*
X0286006Y0123380D02*
X0287006Y0123380D01*
X0287006Y0122381D02*
X0296006Y0122381D01*
X0296006Y0127374D02*
X0278851Y0127374D01*
X0279585Y0128372D02*
X0284559Y0128372D01*
X0284725Y0128206D02*
X0282206Y0130725D01*
X0282206Y0132006D01*
X0286006Y0132006D01*
X0286006Y0133006D01*
X0282206Y0133006D01*
X0282206Y0134287D01*
X0284725Y0136806D01*
X0286006Y0136806D01*
X0286006Y0133006D01*
X0287006Y0133006D01*
X0287006Y0136806D01*
X0288287Y0136806D01*
X0290806Y0134287D01*
X0290806Y0133006D01*
X0287006Y0133006D01*
X0287006Y0132006D01*
X0287006Y0128206D01*
X0288287Y0128206D01*
X0290806Y0130725D01*
X0290806Y0132006D01*
X0287006Y0132006D01*
X0286006Y0132006D01*
X0286006Y0128206D01*
X0284725Y0128206D01*
X0286006Y0128372D02*
X0287006Y0128372D01*
X0287006Y0129371D02*
X0286006Y0129371D01*
X0286006Y0130369D02*
X0287006Y0130369D01*
X0287006Y0131368D02*
X0286006Y0131368D01*
X0286006Y0132366D02*
X0281606Y0132366D01*
X0281606Y0131368D02*
X0282206Y0131368D01*
X0282562Y0130369D02*
X0281582Y0130369D01*
X0280583Y0129371D02*
X0283561Y0129371D01*
X0282206Y0133365D02*
X0281606Y0133365D01*
X0281606Y0134363D02*
X0282282Y0134363D01*
X0283281Y0135362D02*
X0280863Y0135362D01*
X0279865Y0136360D02*
X0284279Y0136360D01*
X0286006Y0136360D02*
X0287006Y0136360D01*
X0287006Y0135362D02*
X0286006Y0135362D01*
X0286006Y0134363D02*
X0287006Y0134363D01*
X0287006Y0133365D02*
X0286006Y0133365D01*
X0287006Y0132366D02*
X0296006Y0132366D01*
X0296006Y0131368D02*
X0290806Y0131368D01*
X0290450Y0130369D02*
X0296006Y0130369D01*
X0296006Y0129371D02*
X0289452Y0129371D01*
X0288453Y0128372D02*
X0296006Y0128372D01*
X0296006Y0133365D02*
X0290806Y0133365D01*
X0290730Y0134363D02*
X0296006Y0134363D01*
X0296006Y0135362D02*
X0289732Y0135362D01*
X0288733Y0136360D02*
X0296006Y0136360D01*
X0296006Y0137359D02*
X0278866Y0137359D01*
X0279570Y0138357D02*
X0284574Y0138357D01*
X0284725Y0138206D02*
X0282206Y0140725D01*
X0282206Y0142006D01*
X0286006Y0142006D01*
X0286006Y0143006D01*
X0282206Y0143006D01*
X0282206Y0144287D01*
X0284725Y0146806D01*
X0286006Y0146806D01*
X0286006Y0143006D01*
X0287006Y0143006D01*
X0287006Y0146806D01*
X0288287Y0146806D01*
X0290806Y0144287D01*
X0290806Y0143006D01*
X0287006Y0143006D01*
X0287006Y0142006D01*
X0287006Y0138206D01*
X0288287Y0138206D01*
X0290806Y0140725D01*
X0290806Y0142006D01*
X0287006Y0142006D01*
X0286006Y0142006D01*
X0286006Y0138206D01*
X0284725Y0138206D01*
X0286006Y0138357D02*
X0287006Y0138357D01*
X0287006Y0139356D02*
X0286006Y0139356D01*
X0286006Y0140354D02*
X0287006Y0140354D01*
X0287006Y0141353D02*
X0286006Y0141353D01*
X0286006Y0142351D02*
X0281606Y0142351D01*
X0281606Y0141353D02*
X0282206Y0141353D01*
X0282577Y0140354D02*
X0281567Y0140354D01*
X0280568Y0139356D02*
X0283576Y0139356D01*
X0287006Y0142351D02*
X0296006Y0142351D01*
X0296006Y0141353D02*
X0290806Y0141353D01*
X0290436Y0140354D02*
X0296006Y0140354D01*
X0296006Y0139356D02*
X0289437Y0139356D01*
X0288439Y0138357D02*
X0296006Y0138357D01*
X0296006Y0143350D02*
X0290806Y0143350D01*
X0290745Y0144348D02*
X0296006Y0144348D01*
X0296006Y0145347D02*
X0289747Y0145347D01*
X0288748Y0146346D02*
X0296006Y0146346D01*
X0296006Y0147344D02*
X0278881Y0147344D01*
X0279555Y0148343D02*
X0284589Y0148343D01*
X0284725Y0148206D02*
X0282206Y0150725D01*
X0282206Y0152006D01*
X0286006Y0152006D01*
X0286006Y0153006D01*
X0282206Y0153006D01*
X0282206Y0154287D01*
X0284725Y0156806D01*
X0286006Y0156806D01*
X0286006Y0153006D01*
X0287006Y0153006D01*
X0287006Y0156806D01*
X0288287Y0156806D01*
X0290806Y0154287D01*
X0290806Y0153006D01*
X0287006Y0153006D01*
X0287006Y0152006D01*
X0287006Y0148206D01*
X0288287Y0148206D01*
X0290806Y0150725D01*
X0290806Y0152006D01*
X0287006Y0152006D01*
X0286006Y0152006D01*
X0286006Y0148206D01*
X0284725Y0148206D01*
X0286006Y0148343D02*
X0287006Y0148343D01*
X0287006Y0149341D02*
X0286006Y0149341D01*
X0286006Y0150340D02*
X0287006Y0150340D01*
X0287006Y0151338D02*
X0286006Y0151338D01*
X0286006Y0152337D02*
X0281606Y0152337D01*
X0281606Y0153335D02*
X0282206Y0153335D01*
X0282253Y0154334D02*
X0281606Y0154334D01*
X0280893Y0155332D02*
X0283251Y0155332D01*
X0284250Y0156331D02*
X0279894Y0156331D01*
X0278896Y0157329D02*
X0296006Y0157329D01*
X0296006Y0156331D02*
X0288763Y0156331D01*
X0289762Y0155332D02*
X0296006Y0155332D01*
X0296006Y0154334D02*
X0290760Y0154334D01*
X0290806Y0153335D02*
X0296006Y0153335D01*
X0296006Y0152337D02*
X0287006Y0152337D01*
X0287006Y0153335D02*
X0286006Y0153335D01*
X0286006Y0154334D02*
X0287006Y0154334D01*
X0287006Y0155332D02*
X0286006Y0155332D01*
X0286006Y0156331D02*
X0287006Y0156331D01*
X0287006Y0158206D02*
X0288287Y0158206D01*
X0290806Y0160725D01*
X0290806Y0162006D01*
X0287006Y0162006D01*
X0287006Y0158206D01*
X0287006Y0158328D02*
X0286006Y0158328D01*
X0286006Y0158206D02*
X0286006Y0162006D01*
X0282206Y0162006D01*
X0282206Y0160725D01*
X0284725Y0158206D01*
X0286006Y0158206D01*
X0286006Y0159326D02*
X0287006Y0159326D01*
X0287006Y0160325D02*
X0286006Y0160325D01*
X0286006Y0161323D02*
X0287006Y0161323D01*
X0287006Y0162006D02*
X0286006Y0162006D01*
X0286006Y0163006D01*
X0282206Y0163006D01*
X0282206Y0164287D01*
X0284725Y0166806D01*
X0286006Y0166806D01*
X0286006Y0163006D01*
X0287006Y0163006D01*
X0287006Y0166806D01*
X0288287Y0166806D01*
X0290806Y0164287D01*
X0290806Y0163006D01*
X0287006Y0163006D01*
X0287006Y0162006D01*
X0287006Y0162322D02*
X0296006Y0162322D01*
X0296006Y0163320D02*
X0290806Y0163320D01*
X0290775Y0164319D02*
X0296006Y0164319D01*
X0296006Y0165317D02*
X0289776Y0165317D01*
X0288778Y0166316D02*
X0296006Y0166316D01*
X0296006Y0167314D02*
X0278911Y0167314D01*
X0279525Y0168313D02*
X0284619Y0168313D01*
X0284725Y0168206D02*
X0282206Y0170725D01*
X0282206Y0172006D01*
X0286006Y0172006D01*
X0286006Y0173006D01*
X0282206Y0173006D01*
X0282206Y0174287D01*
X0284725Y0176806D01*
X0286006Y0176806D01*
X0286006Y0173006D01*
X0287006Y0173006D01*
X0287006Y0176806D01*
X0288287Y0176806D01*
X0290806Y0174287D01*
X0290806Y0173006D01*
X0287006Y0173006D01*
X0287006Y0172006D01*
X0287006Y0168206D01*
X0288287Y0168206D01*
X0290806Y0170725D01*
X0290806Y0172006D01*
X0287006Y0172006D01*
X0286006Y0172006D01*
X0286006Y0168206D01*
X0284725Y0168206D01*
X0286006Y0168313D02*
X0287006Y0168313D01*
X0287006Y0169311D02*
X0286006Y0169311D01*
X0286006Y0170310D02*
X0287006Y0170310D01*
X0287006Y0171308D02*
X0286006Y0171308D01*
X0286006Y0172307D02*
X0281606Y0172307D01*
X0281606Y0173305D02*
X0282206Y0173305D01*
X0282223Y0174304D02*
X0281606Y0174304D01*
X0280923Y0175302D02*
X0283221Y0175302D01*
X0284220Y0176301D02*
X0279924Y0176301D01*
X0278926Y0177299D02*
X0296006Y0177299D01*
X0296006Y0176301D02*
X0288793Y0176301D01*
X0289791Y0175302D02*
X0296006Y0175302D01*
X0296006Y0174304D02*
X0290790Y0174304D01*
X0290806Y0173305D02*
X0296006Y0173305D01*
X0296006Y0172307D02*
X0287006Y0172307D01*
X0287006Y0173305D02*
X0286006Y0173305D01*
X0286006Y0174304D02*
X0287006Y0174304D01*
X0287006Y0175302D02*
X0286006Y0175302D01*
X0286006Y0176301D02*
X0287006Y0176301D01*
X0290806Y0171308D02*
X0296006Y0171308D01*
X0296006Y0170310D02*
X0290391Y0170310D01*
X0289392Y0169311D02*
X0296006Y0169311D01*
X0296006Y0168313D02*
X0288394Y0168313D01*
X0287006Y0166316D02*
X0286006Y0166316D01*
X0286006Y0165317D02*
X0287006Y0165317D01*
X0287006Y0164319D02*
X0286006Y0164319D01*
X0286006Y0163320D02*
X0287006Y0163320D01*
X0286006Y0162322D02*
X0281606Y0162322D01*
X0281606Y0163320D02*
X0282206Y0163320D01*
X0282238Y0164319D02*
X0281606Y0164319D01*
X0280908Y0165317D02*
X0283236Y0165317D01*
X0284235Y0166316D02*
X0279909Y0166316D01*
X0280524Y0169311D02*
X0283620Y0169311D01*
X0282622Y0170310D02*
X0281522Y0170310D01*
X0281606Y0171308D02*
X0282206Y0171308D01*
X0269679Y0175302D02*
X0224684Y0175302D01*
X0224850Y0174304D02*
X0268203Y0174304D01*
X0281606Y0161323D02*
X0282206Y0161323D01*
X0282607Y0160325D02*
X0281537Y0160325D01*
X0280539Y0159326D02*
X0283605Y0159326D01*
X0284604Y0158328D02*
X0279540Y0158328D01*
X0281606Y0151338D02*
X0282206Y0151338D01*
X0282592Y0150340D02*
X0281552Y0150340D01*
X0280554Y0149341D02*
X0283590Y0149341D01*
X0288424Y0148343D02*
X0296006Y0148343D01*
X0296006Y0149341D02*
X0289422Y0149341D01*
X0290421Y0150340D02*
X0296006Y0150340D01*
X0296006Y0151338D02*
X0290806Y0151338D01*
X0287006Y0146346D02*
X0286006Y0146346D01*
X0286006Y0145347D02*
X0287006Y0145347D01*
X0287006Y0144348D02*
X0286006Y0144348D01*
X0286006Y0143350D02*
X0287006Y0143350D01*
X0284264Y0146346D02*
X0279880Y0146346D01*
X0280878Y0145347D02*
X0283266Y0145347D01*
X0282267Y0144348D02*
X0281606Y0144348D01*
X0281606Y0143350D02*
X0282206Y0143350D01*
X0288409Y0158328D02*
X0296006Y0158328D01*
X0296006Y0159326D02*
X0289407Y0159326D01*
X0290406Y0160325D02*
X0296006Y0160325D01*
X0296006Y0161323D02*
X0290806Y0161323D01*
X0246097Y0170310D02*
X0236772Y0170310D01*
X0232506Y0168853D02*
X0232506Y0166506D01*
X0241651Y0169311D02*
X0245099Y0169311D01*
X0213006Y0159061D02*
X0212506Y0157561D01*
X0206518Y0165550D02*
X0206506Y0166061D01*
X0195506Y0166061D02*
X0195494Y0165550D01*
X0191280Y0165317D02*
X0126118Y0165317D01*
X0126118Y0166316D02*
X0191280Y0166316D01*
X0191280Y0167314D02*
X0126118Y0167314D01*
X0126118Y0168313D02*
X0191280Y0168313D01*
X0191593Y0169311D02*
X0126118Y0169311D01*
X0118592Y0170310D02*
X0118421Y0170310D01*
X0124406Y0178298D02*
X0100772Y0178298D01*
X0100772Y0179296D02*
X0124701Y0179296D01*
X0125545Y0180295D02*
X0100772Y0180295D01*
X0100772Y0181293D02*
X0125472Y0181293D01*
X0124670Y0182292D02*
X0100171Y0182292D01*
X0092842Y0182292D02*
X0092171Y0182292D01*
X0105469Y0176301D02*
X0105544Y0176301D01*
X0129882Y0190280D02*
X0130889Y0190280D01*
X0135789Y0190280D02*
X0136796Y0190280D01*
X0140945Y0190280D02*
X0147859Y0190280D01*
X0146757Y0189282D02*
X0142047Y0189282D01*
X0142795Y0188283D02*
X0145758Y0188283D01*
X0145156Y0187284D02*
X0143022Y0187284D01*
X0142857Y0186286D02*
X0145032Y0186286D01*
X0145032Y0185287D02*
X0142792Y0185287D01*
X0143022Y0184289D02*
X0145032Y0184289D01*
X0145032Y0183290D02*
X0142860Y0183290D01*
X0142204Y0182292D02*
X0145296Y0182292D01*
X0146097Y0181293D02*
X0141635Y0181293D01*
X0141279Y0173305D02*
X0139366Y0173305D01*
X0130561Y0164319D02*
X0130451Y0164319D01*
X0140819Y0150340D02*
X0144694Y0150340D01*
X0162906Y0149341D02*
X0179994Y0149341D01*
X0179995Y0148343D02*
X0180994Y0148343D01*
X0180995Y0149341D02*
X0185906Y0149341D01*
X0185906Y0148343D02*
X0184944Y0148343D01*
X0184944Y0147344D02*
X0185906Y0147344D01*
X0185906Y0146346D02*
X0184944Y0146346D01*
X0185061Y0145347D02*
X0184790Y0145347D01*
X0185061Y0144348D02*
X0184061Y0144348D01*
X0184061Y0143350D02*
X0185061Y0143350D01*
X0184061Y0142351D02*
X0180006Y0142351D01*
X0180006Y0143350D02*
X0179006Y0143350D01*
X0179006Y0144348D02*
X0180006Y0144348D01*
X0179995Y0145347D02*
X0180994Y0145347D01*
X0180994Y0146346D02*
X0179995Y0146346D01*
X0179995Y0147344D02*
X0180994Y0147344D01*
X0180994Y0150340D02*
X0179995Y0150340D01*
X0179995Y0151338D02*
X0180994Y0151338D01*
X0180994Y0152337D02*
X0179995Y0152337D01*
X0179995Y0153335D02*
X0180994Y0153335D01*
X0180994Y0154334D02*
X0179995Y0154334D01*
X0183875Y0154334D02*
X0186657Y0154334D01*
X0186035Y0153335D02*
X0184913Y0153335D01*
X0184944Y0152337D02*
X0185906Y0152337D01*
X0185906Y0151338D02*
X0184944Y0151338D01*
X0184944Y0150340D02*
X0185906Y0150340D01*
X0185061Y0141506D02*
X0185061Y0139738D01*
X0185034Y0139710D01*
X0184302Y0138979D01*
X0183906Y0138023D01*
X0183906Y0137588D01*
X0183732Y0137660D01*
X0183732Y0137998D01*
X0183150Y0138580D01*
X0184061Y0138580D01*
X0184061Y0141506D01*
X0185061Y0141506D01*
X0185061Y0141353D02*
X0184061Y0141353D01*
X0184061Y0140354D02*
X0185061Y0140354D01*
X0184679Y0139356D02*
X0184061Y0139356D01*
X0184045Y0138357D02*
X0183373Y0138357D01*
X0179006Y0142351D02*
X0170215Y0142351D01*
X0163797Y0142351D02*
X0163606Y0142351D01*
X0153005Y0127106D02*
X0148208Y0127106D01*
X0147906Y0126805D01*
X0147906Y0125090D01*
X0148210Y0124786D01*
X0148335Y0124820D01*
X0149756Y0124820D01*
X0149756Y0121520D01*
X0150256Y0121520D01*
X0150256Y0124820D01*
X0151677Y0124820D01*
X0151803Y0124786D01*
X0152106Y0125090D01*
X0152106Y0125583D01*
X0152548Y0126649D01*
X0153005Y0127106D01*
X0152434Y0126375D02*
X0147906Y0126375D01*
X0147906Y0125377D02*
X0152106Y0125377D01*
X0150256Y0124378D02*
X0149756Y0124378D01*
X0149756Y0123380D02*
X0150256Y0123380D01*
X0150256Y0122381D02*
X0149756Y0122381D01*
X0163606Y0120384D02*
X0176080Y0120384D01*
X0176080Y0119386D02*
X0163606Y0119386D01*
X0163606Y0118387D02*
X0176230Y0118387D01*
X0177712Y0117389D02*
X0162906Y0117389D01*
X0162906Y0116390D02*
X0176713Y0116390D01*
X0175715Y0115392D02*
X0162906Y0115392D01*
X0183106Y0104408D02*
X0194731Y0104408D01*
X0193733Y0103410D02*
X0183106Y0103410D01*
X0183279Y0102411D02*
X0192734Y0102411D01*
X0191736Y0101413D02*
X0184277Y0101413D01*
X0202107Y0089430D02*
X0203485Y0089430D01*
X0203485Y0090429D02*
X0203106Y0090429D01*
X0210416Y0082441D02*
X0210597Y0082441D01*
X0210597Y0081442D02*
X0210416Y0081442D01*
X0210416Y0080444D02*
X0210597Y0080444D01*
X0209666Y0079445D02*
X0211857Y0079445D01*
X0212337Y0078447D02*
X0211368Y0078447D01*
X0211368Y0077448D02*
X0212337Y0077448D01*
X0212337Y0076450D02*
X0211368Y0076450D01*
X0212337Y0075451D02*
X0221606Y0075451D01*
X0227406Y0074453D02*
X0229694Y0074453D01*
X0229694Y0073454D02*
X0227406Y0073454D01*
X0227658Y0072456D02*
X0230081Y0072456D01*
X0226445Y0065466D02*
X0209772Y0065466D01*
X0209772Y0064468D02*
X0227444Y0064468D01*
X0212337Y0072456D02*
X0211368Y0072456D01*
X0211368Y0073454D02*
X0212337Y0073454D01*
X0212337Y0074453D02*
X0211368Y0074453D01*
X0228113Y0085436D02*
X0232888Y0085436D01*
X0235722Y0092426D02*
X0239291Y0092426D01*
X0235466Y0095421D02*
X0253490Y0095421D01*
X0248800Y0096420D02*
X0248213Y0096420D01*
X0238417Y0097418D02*
X0235466Y0097418D01*
X0235466Y0098417D02*
X0237419Y0098417D01*
X0236420Y0099415D02*
X0235466Y0099415D01*
X0254204Y0112506D02*
X0254304Y0112606D01*
X0264305Y0112606D01*
X0264606Y0112305D01*
X0264606Y0105929D01*
X0265048Y0104864D01*
X0269048Y0100864D01*
X0269864Y0100048D01*
X0270929Y0099606D01*
X0272194Y0099606D01*
X0274294Y0097506D01*
X0272951Y0096163D01*
X0257129Y0111984D01*
X0256063Y0112426D01*
X0254910Y0112426D01*
X0254285Y0112426D01*
X0254204Y0112506D01*
X0256135Y0112396D02*
X0264515Y0112396D01*
X0264606Y0111398D02*
X0257716Y0111398D01*
X0258715Y0110399D02*
X0264606Y0110399D01*
X0264606Y0109401D02*
X0259713Y0109401D01*
X0260712Y0108402D02*
X0264606Y0108402D01*
X0264606Y0107404D02*
X0261710Y0107404D01*
X0262709Y0106405D02*
X0264606Y0106405D01*
X0264823Y0105407D02*
X0263707Y0105407D01*
X0264706Y0104408D02*
X0265503Y0104408D01*
X0265704Y0103410D02*
X0266502Y0103410D01*
X0266703Y0102411D02*
X0267500Y0102411D01*
X0267701Y0101413D02*
X0268499Y0101413D01*
X0268700Y0100414D02*
X0269497Y0100414D01*
X0269698Y0099415D02*
X0272385Y0099415D01*
X0273383Y0098417D02*
X0270697Y0098417D01*
X0271695Y0097418D02*
X0274206Y0097418D01*
X0273207Y0096420D02*
X0272694Y0096420D01*
X0279629Y0098417D02*
X0284515Y0098417D01*
X0283516Y0099415D02*
X0280628Y0099415D01*
X0281606Y0100414D02*
X0282517Y0100414D01*
X0282206Y0101413D02*
X0281606Y0101413D01*
X0281606Y0091427D02*
X0282206Y0091427D01*
X0282503Y0090429D02*
X0281606Y0090429D01*
X0280643Y0089430D02*
X0283501Y0089430D01*
X0284354Y0086435D02*
X0279790Y0086435D01*
X0280789Y0085436D02*
X0283355Y0085436D01*
X0282357Y0084438D02*
X0281606Y0084438D01*
X0281606Y0083439D02*
X0282206Y0083439D01*
X0281606Y0082441D02*
X0286006Y0082441D01*
X0286006Y0083439D02*
X0287006Y0083439D01*
X0287006Y0084438D02*
X0286006Y0084438D01*
X0286006Y0085436D02*
X0287006Y0085436D01*
X0287006Y0086435D02*
X0286006Y0086435D01*
X0288513Y0088432D02*
X0296006Y0088432D01*
X0296006Y0089430D02*
X0289511Y0089430D01*
X0290510Y0090429D02*
X0296006Y0090429D01*
X0296006Y0091427D02*
X0290806Y0091427D01*
X0290806Y0081442D02*
X0296006Y0081442D01*
X0296006Y0080444D02*
X0290525Y0080444D01*
X0289526Y0079445D02*
X0296006Y0079445D01*
X0296006Y0078447D02*
X0288528Y0078447D01*
X0284485Y0078447D02*
X0279659Y0078447D01*
X0280658Y0079445D02*
X0283486Y0079445D01*
X0282488Y0080444D02*
X0281606Y0080444D01*
X0281606Y0081442D02*
X0282206Y0081442D01*
X0282206Y0071457D02*
X0281606Y0071457D01*
X0281606Y0070459D02*
X0282473Y0070459D01*
X0283471Y0069460D02*
X0280673Y0069460D01*
X0288543Y0068462D02*
X0296006Y0068462D01*
X0296006Y0069460D02*
X0289541Y0069460D01*
X0290540Y0070459D02*
X0296006Y0070459D01*
X0296006Y0071457D02*
X0290806Y0071457D01*
X0282206Y0061472D02*
X0281606Y0061472D01*
X0281606Y0060474D02*
X0282458Y0060474D01*
X0283456Y0059475D02*
X0280688Y0059475D01*
X0279689Y0058477D02*
X0284455Y0058477D01*
X0284725Y0056806D02*
X0282206Y0054287D01*
X0282206Y0053006D01*
X0286006Y0053006D01*
X0286006Y0052006D01*
X0282206Y0052006D01*
X0282206Y0050725D01*
X0284725Y0048206D01*
X0286006Y0048206D01*
X0286006Y0052006D01*
X0287006Y0052006D01*
X0287006Y0048206D01*
X0288287Y0048206D01*
X0290806Y0050725D01*
X0290806Y0052006D01*
X0287006Y0052006D01*
X0287006Y0053006D01*
X0286006Y0053006D01*
X0286006Y0056806D01*
X0284725Y0056806D01*
X0284398Y0056480D02*
X0279746Y0056480D01*
X0278747Y0057478D02*
X0296006Y0057478D01*
X0296006Y0056480D02*
X0288614Y0056480D01*
X0288287Y0056806D02*
X0287006Y0056806D01*
X0287006Y0053006D01*
X0290806Y0053006D01*
X0290806Y0054287D01*
X0288287Y0056806D01*
X0287006Y0056480D02*
X0286006Y0056480D01*
X0286006Y0055481D02*
X0287006Y0055481D01*
X0287006Y0054482D02*
X0286006Y0054482D01*
X0286006Y0053484D02*
X0287006Y0053484D01*
X0287006Y0052485D02*
X0296006Y0052485D01*
X0296006Y0051487D02*
X0290806Y0051487D01*
X0290570Y0050488D02*
X0296006Y0050488D01*
X0296006Y0049490D02*
X0289571Y0049490D01*
X0288573Y0048491D02*
X0296006Y0048491D01*
X0296006Y0047493D02*
X0278705Y0047493D01*
X0279704Y0048491D02*
X0284440Y0048491D01*
X0283442Y0049490D02*
X0280702Y0049490D01*
X0281606Y0050488D02*
X0282443Y0050488D01*
X0282206Y0051487D02*
X0281606Y0051487D01*
X0281606Y0052485D02*
X0286006Y0052485D01*
X0286006Y0051487D02*
X0287006Y0051487D01*
X0287006Y0050488D02*
X0286006Y0050488D01*
X0286006Y0049490D02*
X0287006Y0049490D01*
X0287006Y0048491D02*
X0286006Y0048491D01*
X0282206Y0053484D02*
X0281606Y0053484D01*
X0281606Y0054482D02*
X0282401Y0054482D01*
X0283400Y0055481D02*
X0280744Y0055481D01*
X0289613Y0055481D02*
X0296006Y0055481D01*
X0296006Y0054482D02*
X0290611Y0054482D01*
X0290806Y0053484D02*
X0296006Y0053484D01*
X0282206Y0123380D02*
X0281606Y0123380D01*
X0281606Y0124378D02*
X0282297Y0124378D01*
X0283296Y0125377D02*
X0280848Y0125377D01*
X0279850Y0126375D02*
X0284294Y0126375D01*
X0215006Y0128372D02*
X0214006Y0128372D01*
X0161154Y0173305D02*
X0157087Y0173305D01*
X0158085Y0174304D02*
X0160594Y0174304D01*
X0160501Y0175302D02*
X0158491Y0175302D01*
X0158491Y0176301D02*
X0160798Y0176301D01*
X0160914Y0177299D02*
X0158091Y0177299D01*
X0158491Y0178298D02*
X0160501Y0178298D01*
X0160501Y0179296D02*
X0158491Y0179296D01*
X0158094Y0180295D02*
X0160898Y0180295D01*
X0157161Y0181293D02*
X0157105Y0181293D01*
X0157421Y0190280D02*
X0156414Y0190280D01*
X0161571Y0190280D02*
X0162578Y0190280D01*
X0166727Y0190280D02*
X0167734Y0190280D01*
X0171883Y0190280D02*
X0172140Y0190280D01*
X0177791Y0190280D02*
X0184705Y0190280D01*
X0183602Y0189282D02*
X0178787Y0189282D01*
X0182332Y0188283D02*
X0182604Y0188283D01*
X0187353Y0190280D02*
X0188360Y0190280D01*
X0183643Y0182292D02*
X0178299Y0182292D01*
X0179164Y0181293D02*
X0177301Y0181293D01*
X0177529Y0180295D02*
X0177859Y0180295D01*
X0183669Y0181293D02*
X0184444Y0181293D01*
X0187613Y0181293D02*
X0188099Y0181293D01*
X0184273Y0176301D02*
X0193145Y0176301D01*
X0192111Y0175302D02*
X0184273Y0175302D01*
X0195006Y0175302D02*
X0196006Y0175302D01*
X0196006Y0176301D02*
X0195006Y0176301D01*
X0151514Y0190280D02*
X0150507Y0190280D01*
X0066553Y0170310D02*
X0066460Y0170310D01*
D38*
X0069853Y0166506D02*
X0076160Y0166506D01*
X0082853Y0166506D02*
X0082951Y0166605D01*
X0082951Y0160506D01*
X0082951Y0166506D01*
X0089160Y0166506D01*
X0088506Y0166506D01*
X0088506Y0172160D01*
X0096506Y0172160D02*
X0096853Y0172506D01*
X0102160Y0172506D01*
X0108853Y0172506D02*
X0108853Y0166506D01*
X0115061Y0166506D01*
X0121951Y0166506D02*
X0121951Y0160605D01*
X0121853Y0160506D01*
X0127160Y0160506D01*
X0133853Y0160506D02*
X0140160Y0160506D01*
X0137951Y0146506D02*
X0137506Y0146061D01*
X0138211Y0145766D01*
X0130506Y0145766D01*
X0137951Y0146506D02*
X0148506Y0146506D01*
X0150006Y0145006D01*
X0150006Y0141743D01*
X0150006Y0121270D02*
X0150006Y0116451D01*
X0149061Y0114506D01*
X0119160Y0120506D02*
X0113853Y0120506D01*
X0114506Y0113246D02*
X0115211Y0112951D01*
X0107506Y0112951D01*
X0101298Y0112951D01*
X0095160Y0112506D02*
X0095160Y0106506D01*
X0083160Y0106506D02*
X0083160Y0112506D01*
X0095951Y0160506D02*
X0095853Y0160605D01*
X0095853Y0166506D01*
X0102061Y0166408D02*
X0102061Y0160506D01*
X0102061Y0166408D02*
X0102160Y0166506D01*
X0096506Y0178853D02*
X0088506Y0178853D01*
X0179506Y0147506D02*
X0179506Y0142506D01*
X0179506Y0147506D02*
X0180506Y0148506D01*
X0191518Y0149506D02*
X0191518Y0142073D01*
X0191451Y0142006D01*
X0191451Y0136561D01*
X0191506Y0136506D01*
X0194506Y0136506D01*
X0191506Y0136506D02*
X0188506Y0136506D01*
X0199506Y0120951D02*
X0198573Y0120018D01*
X0232506Y0157506D02*
X0232506Y0162160D01*
X0206518Y0159506D02*
X0206518Y0165550D01*
X0195494Y0165550D02*
X0195494Y0159506D01*
X0205160Y0075506D02*
X0205160Y0070199D01*
X0205506Y0069853D01*
X0205506Y0063160D02*
X0205506Y0048606D01*
X0239951Y0075506D02*
X0240506Y0074951D01*
D39*
X0240506Y0069506D01*
X0237506Y0066506D01*
X0229506Y0066506D01*
X0224506Y0071506D01*
X0224506Y0090006D01*
X0224261Y0088751D02*
X0220306Y0088751D01*
X0214246Y0092034D02*
X0214246Y0096246D01*
X0215506Y0097506D01*
X0220506Y0097506D01*
X0221506Y0098506D01*
X0221506Y0101199D01*
X0221199Y0102506D01*
X0207813Y0102506D02*
X0206766Y0101506D01*
X0206766Y0092034D01*
X0206766Y0082979D02*
X0206766Y0079766D01*
X0205506Y0078506D01*
X0205506Y0075853D01*
X0205160Y0075506D01*
X0242034Y0081766D02*
X0243246Y0081766D01*
X0244506Y0080506D01*
X0244506Y0076506D01*
X0245199Y0075813D01*
X0249506Y0075813D01*
X0249506Y0082506D02*
X0253506Y0082506D01*
X0263506Y0072506D01*
X0263506Y0060506D01*
X0271506Y0052506D01*
X0276506Y0052506D01*
X0276506Y0062506D02*
X0271506Y0062506D01*
X0267506Y0066506D01*
X0267506Y0076506D01*
X0261506Y0082506D01*
X0261506Y0091506D01*
X0253526Y0099487D01*
X0251459Y0099487D01*
X0251459Y0102931D02*
X0254081Y0102931D01*
X0264506Y0092506D01*
X0264506Y0084506D01*
X0270506Y0078506D01*
X0270506Y0074506D01*
X0272506Y0072506D01*
X0276506Y0072506D01*
X0276506Y0082506D02*
X0271506Y0082506D01*
X0267506Y0086506D01*
X0267506Y0093506D01*
X0254931Y0106081D01*
X0251459Y0106081D01*
X0251459Y0109526D02*
X0255487Y0109526D01*
X0272506Y0092506D01*
X0276506Y0092506D01*
X0276506Y0102506D02*
X0271506Y0102506D01*
X0267506Y0106506D01*
X0267506Y0113506D01*
X0265506Y0115506D01*
X0251479Y0115506D01*
X0251459Y0115487D01*
X0251459Y0118931D02*
X0268081Y0118931D01*
X0270506Y0116506D01*
X0270506Y0113506D01*
X0271506Y0112506D01*
X0276506Y0112506D01*
X0276081Y0122081D02*
X0276506Y0122506D01*
X0276081Y0122081D02*
X0251459Y0122081D01*
X0251459Y0125526D02*
X0264526Y0125526D01*
X0267506Y0125506D01*
X0269506Y0127506D01*
X0269506Y0130506D01*
X0271506Y0132506D01*
X0276506Y0132506D01*
X0276506Y0142506D02*
X0270506Y0142506D01*
X0267526Y0145487D01*
X0251459Y0145487D01*
X0251459Y0148931D02*
X0266931Y0148931D01*
X0270506Y0152506D01*
X0276506Y0152506D01*
X0269506Y0156506D02*
X0269506Y0160506D01*
X0271506Y0162506D01*
X0276506Y0162506D01*
X0269506Y0156506D02*
X0265081Y0152081D01*
X0251459Y0152081D01*
X0251459Y0155526D02*
X0254526Y0155526D01*
X0263506Y0155506D01*
X0266506Y0158506D01*
X0266506Y0168506D01*
X0270506Y0172506D01*
X0276506Y0172506D01*
X0248506Y0165506D02*
X0238353Y0165506D01*
X0238006Y0165853D01*
X0220006Y0160494D02*
X0218573Y0159061D01*
X0213006Y0159061D01*
X0204951Y0159439D02*
X0204951Y0152506D01*
X0198061Y0152506D02*
X0197994Y0159073D01*
X0195494Y0159506D01*
X0170506Y0138506D02*
X0169506Y0139506D01*
X0164506Y0139506D01*
X0161506Y0136506D01*
X0156506Y0136506D01*
X0155006Y0138006D01*
X0155006Y0141743D01*
X0154951Y0141798D01*
X0154951Y0151506D01*
X0160006Y0157006D02*
X0160006Y0141743D01*
X0165006Y0134506D02*
X0167160Y0134506D01*
X0165006Y0134506D02*
X0163506Y0133006D01*
X0147006Y0133006D01*
X0145006Y0135006D01*
X0145006Y0141743D01*
X0147006Y0130006D02*
X0163506Y0130006D01*
X0165006Y0128506D01*
X0167160Y0128506D01*
X0170506Y0124506D02*
X0169506Y0123506D01*
X0164506Y0123506D01*
X0161506Y0126506D01*
X0156506Y0126506D01*
X0155006Y0125006D01*
X0155006Y0121270D01*
X0154951Y0115215D01*
X0155951Y0114506D01*
X0160006Y0108006D02*
X0160006Y0121270D01*
X0147006Y0130006D02*
X0145006Y0128006D01*
X0145006Y0121270D01*
X0131506Y0119506D02*
X0131506Y0115506D01*
X0141506Y0105506D01*
X0148160Y0105506D01*
X0154853Y0105506D02*
X0157506Y0105506D01*
X0160006Y0108006D01*
X0131506Y0119506D02*
X0130506Y0120506D01*
X0125853Y0120506D01*
X0107506Y0115506D02*
X0107506Y0112951D01*
X0107506Y0115506D02*
X0106506Y0116506D01*
X0104506Y0116506D01*
X0102506Y0118506D01*
X0101298Y0112951D02*
X0101853Y0112506D01*
X0156506Y0160506D02*
X0160006Y0157006D01*
X0156506Y0160506D02*
X0146853Y0160506D01*
X0179506Y0135061D02*
X0180951Y0134506D01*
X0227506Y0140506D02*
X0236506Y0140506D01*
X0245061Y0140506D01*
X0245061Y0133073D01*
X0244994Y0133006D01*
X0242034Y0089246D02*
X0249459Y0089246D01*
X0249506Y0089199D01*
X0242034Y0081766D02*
X0242294Y0081506D01*
D40*
X0240506Y0113506D02*
X0231506Y0122006D01*
X0099605Y0063306D02*
X0099506Y0063207D01*
X0081506Y0063207D02*
X0081408Y0063306D01*
X0082853Y0166506D02*
X0082951Y0166506D01*
D41*
X0060506Y0163506D02*
X0048606Y0163506D01*
M02*
