G75*
%MOIN*%
%OFA0B0*%
%FSLAX25Y25*%
%IPPOS*%
%LPD*%
%AMOC8*
5,1,8,0,0,1.08239X$1,22.5*
%
%ADD10R,0.05052X0.04934*%
%ADD11R,0.04737X0.05131*%
%ADD12R,0.03950X0.03162*%
%ADD13R,0.03950X0.02769*%
%ADD14R,0.05599X0.09599*%
%ADD15R,0.14973X0.09461*%
%ADD16OC8,0.06800*%
%ADD17R,0.05131X0.04737*%
%ADD18R,0.04934X0.05052*%
%ADD19R,0.03800X0.05300*%
%ADD20R,0.01883X0.04343*%
%ADD21R,0.02375X0.05524*%
%ADD22R,0.08202X0.07414*%
%ADD23R,0.06706X0.05918*%
%ADD24R,0.03162X0.04343*%
%ADD25R,0.04343X0.03162*%
%ADD26R,0.05918X0.06706*%
%ADD27R,0.07099X0.07887*%
%ADD28R,0.07887X0.07099*%
%ADD29C,0.00373*%
%ADD30C,0.00680*%
%ADD31R,0.20800X0.09800*%
%ADD32R,0.09800X0.20800*%
%ADD33C,0.06800*%
%ADD34C,0.04737*%
D10*
X0081506Y0047061D03*
X0081506Y0053951D03*
X0099506Y0053951D03*
X0099506Y0047061D03*
X0107506Y0106061D03*
X0107506Y0112951D03*
X0091506Y0133061D03*
X0091506Y0139951D03*
X0070006Y0139951D03*
X0070006Y0133061D03*
X0137506Y0146061D03*
X0137506Y0152951D03*
X0179506Y0141951D03*
X0179506Y0135061D03*
X0179506Y0127951D03*
X0179506Y0121061D03*
X0199506Y0120951D03*
X0199506Y0114061D03*
X0219506Y0089951D03*
X0219506Y0083061D03*
X0213006Y0159061D03*
X0213006Y0165951D03*
X0206506Y0166061D03*
X0206506Y0172951D03*
X0195506Y0172951D03*
X0195506Y0166061D03*
D11*
X0173853Y0134506D03*
X0167160Y0134506D03*
X0167160Y0128506D03*
X0173853Y0128506D03*
X0154853Y0105506D03*
X0148160Y0105506D03*
X0125853Y0120506D03*
X0119160Y0120506D03*
X0113853Y0120506D03*
X0107160Y0120506D03*
X0101853Y0112506D03*
X0095160Y0112506D03*
X0089853Y0112506D03*
X0083160Y0112506D03*
X0083160Y0106506D03*
X0089853Y0106506D03*
X0095160Y0106506D03*
X0101853Y0106506D03*
X0115160Y0160506D03*
X0121853Y0160506D03*
X0127160Y0160506D03*
X0133853Y0160506D03*
X0140160Y0160506D03*
X0146853Y0160506D03*
X0108853Y0166506D03*
X0108853Y0172506D03*
X0102160Y0172506D03*
X0102160Y0166506D03*
X0095853Y0166506D03*
X0089160Y0166506D03*
X0082853Y0166506D03*
X0076160Y0166506D03*
X0069853Y0166506D03*
X0069853Y0160506D03*
X0063160Y0160506D03*
X0063160Y0166506D03*
X0205160Y0075506D03*
X0211853Y0075506D03*
D12*
X0245554Y0099487D03*
X0251459Y0099487D03*
X0251459Y0109526D03*
X0245554Y0109526D03*
X0245554Y0115487D03*
X0251459Y0115487D03*
X0251459Y0125526D03*
X0245554Y0125526D03*
X0245554Y0145487D03*
X0251459Y0145487D03*
X0251459Y0155526D03*
X0245554Y0155526D03*
D13*
X0245554Y0152081D03*
X0245554Y0148931D03*
X0251459Y0148931D03*
X0251459Y0152081D03*
X0251459Y0122081D03*
X0251459Y0118931D03*
X0245554Y0118931D03*
X0245554Y0122081D03*
X0245554Y0106081D03*
X0245554Y0102931D03*
X0251459Y0102931D03*
X0251459Y0106081D03*
D14*
X0099605Y0063306D03*
X0090506Y0063306D03*
X0081408Y0063306D03*
D15*
X0090506Y0087707D03*
D16*
X0248506Y0165506D03*
X0276506Y0162506D03*
X0286506Y0162506D03*
X0286506Y0152506D03*
X0276506Y0152506D03*
X0276506Y0142506D03*
X0286506Y0142506D03*
X0286506Y0132506D03*
X0276506Y0132506D03*
X0276506Y0122506D03*
X0286506Y0122506D03*
X0286506Y0112506D03*
X0276506Y0112506D03*
X0276506Y0102506D03*
X0286506Y0102506D03*
X0286506Y0092506D03*
X0276506Y0092506D03*
X0276506Y0082506D03*
X0286506Y0082506D03*
X0286506Y0072506D03*
X0276506Y0072506D03*
X0276506Y0062506D03*
X0286506Y0062506D03*
X0286506Y0052506D03*
X0276506Y0052506D03*
X0276506Y0172506D03*
X0286506Y0172506D03*
D17*
X0238006Y0165853D03*
X0232506Y0162160D03*
X0227006Y0162160D03*
X0227006Y0168853D03*
X0232506Y0168853D03*
X0238006Y0159160D03*
X0205506Y0069853D03*
X0205506Y0063160D03*
X0096506Y0172160D03*
X0088506Y0172160D03*
X0088506Y0178853D03*
X0096506Y0178853D03*
D18*
X0115061Y0166506D03*
X0121951Y0166506D03*
X0108951Y0160506D03*
X0102061Y0160506D03*
X0095951Y0160506D03*
X0089061Y0160506D03*
X0082951Y0160506D03*
X0076061Y0160506D03*
X0148061Y0151506D03*
X0154951Y0151506D03*
X0184561Y0142006D03*
X0191451Y0142006D03*
X0198061Y0152506D03*
X0204951Y0152506D03*
X0245061Y0140506D03*
X0251951Y0140506D03*
X0239951Y0075506D03*
X0233061Y0075506D03*
X0155951Y0114506D03*
X0149061Y0114506D03*
D19*
X0150006Y0121270D03*
X0145006Y0121270D03*
X0155006Y0121270D03*
X0160006Y0121270D03*
X0160006Y0141743D03*
X0155006Y0141743D03*
X0150006Y0141743D03*
X0145006Y0141743D03*
D20*
X0110396Y0144971D03*
X0108428Y0144971D03*
X0106459Y0144971D03*
X0104491Y0144971D03*
X0102522Y0144971D03*
X0100554Y0144971D03*
X0098585Y0144971D03*
X0096617Y0144971D03*
X0096617Y0128042D03*
X0098585Y0128042D03*
X0100554Y0128042D03*
X0102522Y0128042D03*
X0104491Y0128042D03*
X0106459Y0128042D03*
X0108428Y0128042D03*
X0110396Y0128042D03*
D21*
X0084345Y0128435D03*
X0081786Y0128435D03*
X0079227Y0128435D03*
X0076668Y0128435D03*
X0076668Y0144577D03*
X0079227Y0144577D03*
X0081786Y0144577D03*
X0084345Y0144577D03*
D22*
X0080506Y0136506D03*
D23*
X0114506Y0113246D03*
X0114506Y0105766D03*
X0130506Y0145766D03*
X0130506Y0153246D03*
X0249506Y0089199D03*
X0249506Y0082506D03*
X0249506Y0075813D03*
X0109506Y0060246D03*
X0109506Y0052766D03*
X0071506Y0052766D03*
X0071506Y0060246D03*
D24*
X0206766Y0082979D03*
X0210506Y0082979D03*
X0214246Y0082979D03*
X0214246Y0092034D03*
X0210506Y0092034D03*
X0206766Y0092034D03*
D25*
X0232979Y0089246D03*
X0232979Y0085506D03*
X0232979Y0081766D03*
X0242034Y0081766D03*
X0242034Y0085506D03*
X0242034Y0089246D03*
D26*
X0221199Y0102506D03*
X0214506Y0102506D03*
X0207813Y0102506D03*
D27*
X0244994Y0133006D03*
X0256018Y0133006D03*
X0206518Y0159506D03*
X0195494Y0159506D03*
X0191518Y0149506D03*
X0180494Y0149506D03*
D28*
X0220006Y0160494D03*
X0220006Y0171518D03*
X0192506Y0120018D03*
X0192506Y0108994D03*
D29*
X0208362Y0122663D02*
X0208362Y0125649D01*
X0208362Y0122663D02*
X0206872Y0122663D01*
X0206872Y0125649D01*
X0208362Y0125649D01*
X0208362Y0123035D02*
X0206872Y0123035D01*
X0206872Y0123407D02*
X0208362Y0123407D01*
X0208362Y0123779D02*
X0206872Y0123779D01*
X0206872Y0124151D02*
X0208362Y0124151D01*
X0208362Y0124523D02*
X0206872Y0124523D01*
X0206872Y0124895D02*
X0208362Y0124895D01*
X0208362Y0125267D02*
X0206872Y0125267D01*
X0206872Y0125639D02*
X0208362Y0125639D01*
X0210330Y0125649D02*
X0210330Y0122663D01*
X0208840Y0122663D01*
X0208840Y0125649D01*
X0210330Y0125649D01*
X0210330Y0123035D02*
X0208840Y0123035D01*
X0208840Y0123407D02*
X0210330Y0123407D01*
X0210330Y0123779D02*
X0208840Y0123779D01*
X0208840Y0124151D02*
X0210330Y0124151D01*
X0210330Y0124523D02*
X0208840Y0124523D01*
X0208840Y0124895D02*
X0210330Y0124895D01*
X0210330Y0125267D02*
X0208840Y0125267D01*
X0208840Y0125639D02*
X0210330Y0125639D01*
X0212299Y0125649D02*
X0212299Y0122663D01*
X0210809Y0122663D01*
X0210809Y0125649D01*
X0212299Y0125649D01*
X0212299Y0123035D02*
X0210809Y0123035D01*
X0210809Y0123407D02*
X0212299Y0123407D01*
X0212299Y0123779D02*
X0210809Y0123779D01*
X0210809Y0124151D02*
X0212299Y0124151D01*
X0212299Y0124523D02*
X0210809Y0124523D01*
X0210809Y0124895D02*
X0212299Y0124895D01*
X0212299Y0125267D02*
X0210809Y0125267D01*
X0210809Y0125639D02*
X0212299Y0125639D01*
X0214267Y0125649D02*
X0214267Y0122663D01*
X0212777Y0122663D01*
X0212777Y0125649D01*
X0214267Y0125649D01*
X0214267Y0123035D02*
X0212777Y0123035D01*
X0212777Y0123407D02*
X0214267Y0123407D01*
X0214267Y0123779D02*
X0212777Y0123779D01*
X0212777Y0124151D02*
X0214267Y0124151D01*
X0214267Y0124523D02*
X0212777Y0124523D01*
X0212777Y0124895D02*
X0214267Y0124895D01*
X0214267Y0125267D02*
X0212777Y0125267D01*
X0212777Y0125639D02*
X0214267Y0125639D01*
X0216236Y0125649D02*
X0216236Y0122663D01*
X0214746Y0122663D01*
X0214746Y0125649D01*
X0216236Y0125649D01*
X0216236Y0123035D02*
X0214746Y0123035D01*
X0214746Y0123407D02*
X0216236Y0123407D01*
X0216236Y0123779D02*
X0214746Y0123779D01*
X0214746Y0124151D02*
X0216236Y0124151D01*
X0216236Y0124523D02*
X0214746Y0124523D01*
X0214746Y0124895D02*
X0216236Y0124895D01*
X0216236Y0125267D02*
X0214746Y0125267D01*
X0214746Y0125639D02*
X0216236Y0125639D01*
X0218204Y0125649D02*
X0218204Y0122663D01*
X0216714Y0122663D01*
X0216714Y0125649D01*
X0218204Y0125649D01*
X0218204Y0123035D02*
X0216714Y0123035D01*
X0216714Y0123407D02*
X0218204Y0123407D01*
X0218204Y0123779D02*
X0216714Y0123779D01*
X0216714Y0124151D02*
X0218204Y0124151D01*
X0218204Y0124523D02*
X0216714Y0124523D01*
X0216714Y0124895D02*
X0218204Y0124895D01*
X0218204Y0125267D02*
X0216714Y0125267D01*
X0216714Y0125639D02*
X0218204Y0125639D01*
X0220173Y0125649D02*
X0220173Y0122663D01*
X0218683Y0122663D01*
X0218683Y0125649D01*
X0220173Y0125649D01*
X0220173Y0123035D02*
X0218683Y0123035D01*
X0218683Y0123407D02*
X0220173Y0123407D01*
X0220173Y0123779D02*
X0218683Y0123779D01*
X0218683Y0124151D02*
X0220173Y0124151D01*
X0220173Y0124523D02*
X0218683Y0124523D01*
X0218683Y0124895D02*
X0220173Y0124895D01*
X0220173Y0125267D02*
X0218683Y0125267D01*
X0218683Y0125639D02*
X0220173Y0125639D01*
X0222141Y0125649D02*
X0222141Y0122663D01*
X0220651Y0122663D01*
X0220651Y0125649D01*
X0222141Y0125649D01*
X0222141Y0123035D02*
X0220651Y0123035D01*
X0220651Y0123407D02*
X0222141Y0123407D01*
X0222141Y0123779D02*
X0220651Y0123779D01*
X0220651Y0124151D02*
X0222141Y0124151D01*
X0222141Y0124523D02*
X0220651Y0124523D01*
X0220651Y0124895D02*
X0222141Y0124895D01*
X0222141Y0125267D02*
X0220651Y0125267D01*
X0220651Y0125639D02*
X0222141Y0125639D01*
X0225350Y0125872D02*
X0225350Y0127362D01*
X0225350Y0125872D02*
X0222364Y0125872D01*
X0222364Y0127362D01*
X0225350Y0127362D01*
X0225350Y0126244D02*
X0222364Y0126244D01*
X0222364Y0126616D02*
X0225350Y0126616D01*
X0225350Y0126988D02*
X0222364Y0126988D01*
X0222364Y0127360D02*
X0225350Y0127360D01*
X0225350Y0127840D02*
X0225350Y0129330D01*
X0225350Y0127840D02*
X0222364Y0127840D01*
X0222364Y0129330D01*
X0225350Y0129330D01*
X0225350Y0128212D02*
X0222364Y0128212D01*
X0222364Y0128584D02*
X0225350Y0128584D01*
X0225350Y0128956D02*
X0222364Y0128956D01*
X0222364Y0129328D02*
X0225350Y0129328D01*
X0225350Y0129809D02*
X0225350Y0131299D01*
X0225350Y0129809D02*
X0222364Y0129809D01*
X0222364Y0131299D01*
X0225350Y0131299D01*
X0225350Y0130181D02*
X0222364Y0130181D01*
X0222364Y0130553D02*
X0225350Y0130553D01*
X0225350Y0130925D02*
X0222364Y0130925D01*
X0222364Y0131297D02*
X0225350Y0131297D01*
X0225350Y0131777D02*
X0225350Y0133267D01*
X0225350Y0131777D02*
X0222364Y0131777D01*
X0222364Y0133267D01*
X0225350Y0133267D01*
X0225350Y0132149D02*
X0222364Y0132149D01*
X0222364Y0132521D02*
X0225350Y0132521D01*
X0225350Y0132893D02*
X0222364Y0132893D01*
X0222364Y0133265D02*
X0225350Y0133265D01*
X0225350Y0133746D02*
X0225350Y0135236D01*
X0225350Y0133746D02*
X0222364Y0133746D01*
X0222364Y0135236D01*
X0225350Y0135236D01*
X0225350Y0134118D02*
X0222364Y0134118D01*
X0222364Y0134490D02*
X0225350Y0134490D01*
X0225350Y0134862D02*
X0222364Y0134862D01*
X0222364Y0135234D02*
X0225350Y0135234D01*
X0225350Y0135714D02*
X0225350Y0137204D01*
X0225350Y0135714D02*
X0222364Y0135714D01*
X0222364Y0137204D01*
X0225350Y0137204D01*
X0225350Y0136086D02*
X0222364Y0136086D01*
X0222364Y0136458D02*
X0225350Y0136458D01*
X0225350Y0136830D02*
X0222364Y0136830D01*
X0222364Y0137202D02*
X0225350Y0137202D01*
X0225350Y0137683D02*
X0225350Y0139173D01*
X0225350Y0137683D02*
X0222364Y0137683D01*
X0222364Y0139173D01*
X0225350Y0139173D01*
X0225350Y0138055D02*
X0222364Y0138055D01*
X0222364Y0138427D02*
X0225350Y0138427D01*
X0225350Y0138799D02*
X0222364Y0138799D01*
X0222364Y0139171D02*
X0225350Y0139171D01*
X0225350Y0139651D02*
X0225350Y0141141D01*
X0225350Y0139651D02*
X0222364Y0139651D01*
X0222364Y0141141D01*
X0225350Y0141141D01*
X0225350Y0140023D02*
X0222364Y0140023D01*
X0222364Y0140395D02*
X0225350Y0140395D01*
X0225350Y0140767D02*
X0222364Y0140767D01*
X0222364Y0141139D02*
X0225350Y0141139D01*
X0222141Y0141364D02*
X0222141Y0144350D01*
X0222141Y0141364D02*
X0220651Y0141364D01*
X0220651Y0144350D01*
X0222141Y0144350D01*
X0222141Y0141736D02*
X0220651Y0141736D01*
X0220651Y0142108D02*
X0222141Y0142108D01*
X0222141Y0142480D02*
X0220651Y0142480D01*
X0220651Y0142852D02*
X0222141Y0142852D01*
X0222141Y0143224D02*
X0220651Y0143224D01*
X0220651Y0143596D02*
X0222141Y0143596D01*
X0222141Y0143968D02*
X0220651Y0143968D01*
X0220651Y0144340D02*
X0222141Y0144340D01*
X0220173Y0144350D02*
X0220173Y0141364D01*
X0218683Y0141364D01*
X0218683Y0144350D01*
X0220173Y0144350D01*
X0220173Y0141736D02*
X0218683Y0141736D01*
X0218683Y0142108D02*
X0220173Y0142108D01*
X0220173Y0142480D02*
X0218683Y0142480D01*
X0218683Y0142852D02*
X0220173Y0142852D01*
X0220173Y0143224D02*
X0218683Y0143224D01*
X0218683Y0143596D02*
X0220173Y0143596D01*
X0220173Y0143968D02*
X0218683Y0143968D01*
X0218683Y0144340D02*
X0220173Y0144340D01*
X0218204Y0144350D02*
X0218204Y0141364D01*
X0216714Y0141364D01*
X0216714Y0144350D01*
X0218204Y0144350D01*
X0218204Y0141736D02*
X0216714Y0141736D01*
X0216714Y0142108D02*
X0218204Y0142108D01*
X0218204Y0142480D02*
X0216714Y0142480D01*
X0216714Y0142852D02*
X0218204Y0142852D01*
X0218204Y0143224D02*
X0216714Y0143224D01*
X0216714Y0143596D02*
X0218204Y0143596D01*
X0218204Y0143968D02*
X0216714Y0143968D01*
X0216714Y0144340D02*
X0218204Y0144340D01*
X0216236Y0144350D02*
X0216236Y0141364D01*
X0214746Y0141364D01*
X0214746Y0144350D01*
X0216236Y0144350D01*
X0216236Y0141736D02*
X0214746Y0141736D01*
X0214746Y0142108D02*
X0216236Y0142108D01*
X0216236Y0142480D02*
X0214746Y0142480D01*
X0214746Y0142852D02*
X0216236Y0142852D01*
X0216236Y0143224D02*
X0214746Y0143224D01*
X0214746Y0143596D02*
X0216236Y0143596D01*
X0216236Y0143968D02*
X0214746Y0143968D01*
X0214746Y0144340D02*
X0216236Y0144340D01*
X0214267Y0144350D02*
X0214267Y0141364D01*
X0212777Y0141364D01*
X0212777Y0144350D01*
X0214267Y0144350D01*
X0214267Y0141736D02*
X0212777Y0141736D01*
X0212777Y0142108D02*
X0214267Y0142108D01*
X0214267Y0142480D02*
X0212777Y0142480D01*
X0212777Y0142852D02*
X0214267Y0142852D01*
X0214267Y0143224D02*
X0212777Y0143224D01*
X0212777Y0143596D02*
X0214267Y0143596D01*
X0214267Y0143968D02*
X0212777Y0143968D01*
X0212777Y0144340D02*
X0214267Y0144340D01*
X0212299Y0144350D02*
X0212299Y0141364D01*
X0210809Y0141364D01*
X0210809Y0144350D01*
X0212299Y0144350D01*
X0212299Y0141736D02*
X0210809Y0141736D01*
X0210809Y0142108D02*
X0212299Y0142108D01*
X0212299Y0142480D02*
X0210809Y0142480D01*
X0210809Y0142852D02*
X0212299Y0142852D01*
X0212299Y0143224D02*
X0210809Y0143224D01*
X0210809Y0143596D02*
X0212299Y0143596D01*
X0212299Y0143968D02*
X0210809Y0143968D01*
X0210809Y0144340D02*
X0212299Y0144340D01*
X0210330Y0144350D02*
X0210330Y0141364D01*
X0208840Y0141364D01*
X0208840Y0144350D01*
X0210330Y0144350D01*
X0210330Y0141736D02*
X0208840Y0141736D01*
X0208840Y0142108D02*
X0210330Y0142108D01*
X0210330Y0142480D02*
X0208840Y0142480D01*
X0208840Y0142852D02*
X0210330Y0142852D01*
X0210330Y0143224D02*
X0208840Y0143224D01*
X0208840Y0143596D02*
X0210330Y0143596D01*
X0210330Y0143968D02*
X0208840Y0143968D01*
X0208840Y0144340D02*
X0210330Y0144340D01*
X0208362Y0144350D02*
X0208362Y0141364D01*
X0206872Y0141364D01*
X0206872Y0144350D01*
X0208362Y0144350D01*
X0208362Y0141736D02*
X0206872Y0141736D01*
X0206872Y0142108D02*
X0208362Y0142108D01*
X0208362Y0142480D02*
X0206872Y0142480D01*
X0206872Y0142852D02*
X0208362Y0142852D01*
X0208362Y0143224D02*
X0206872Y0143224D01*
X0206872Y0143596D02*
X0208362Y0143596D01*
X0208362Y0143968D02*
X0206872Y0143968D01*
X0206872Y0144340D02*
X0208362Y0144340D01*
X0206649Y0141141D02*
X0206649Y0139651D01*
X0203663Y0139651D01*
X0203663Y0141141D01*
X0206649Y0141141D01*
X0206649Y0140023D02*
X0203663Y0140023D01*
X0203663Y0140395D02*
X0206649Y0140395D01*
X0206649Y0140767D02*
X0203663Y0140767D01*
X0203663Y0141139D02*
X0206649Y0141139D01*
X0206649Y0139173D02*
X0206649Y0137683D01*
X0203663Y0137683D01*
X0203663Y0139173D01*
X0206649Y0139173D01*
X0206649Y0138055D02*
X0203663Y0138055D01*
X0203663Y0138427D02*
X0206649Y0138427D01*
X0206649Y0138799D02*
X0203663Y0138799D01*
X0203663Y0139171D02*
X0206649Y0139171D01*
X0206649Y0137204D02*
X0206649Y0135714D01*
X0203663Y0135714D01*
X0203663Y0137204D01*
X0206649Y0137204D01*
X0206649Y0136086D02*
X0203663Y0136086D01*
X0203663Y0136458D02*
X0206649Y0136458D01*
X0206649Y0136830D02*
X0203663Y0136830D01*
X0203663Y0137202D02*
X0206649Y0137202D01*
X0206649Y0135236D02*
X0206649Y0133746D01*
X0203663Y0133746D01*
X0203663Y0135236D01*
X0206649Y0135236D01*
X0206649Y0134118D02*
X0203663Y0134118D01*
X0203663Y0134490D02*
X0206649Y0134490D01*
X0206649Y0134862D02*
X0203663Y0134862D01*
X0203663Y0135234D02*
X0206649Y0135234D01*
X0206649Y0133267D02*
X0206649Y0131777D01*
X0203663Y0131777D01*
X0203663Y0133267D01*
X0206649Y0133267D01*
X0206649Y0132149D02*
X0203663Y0132149D01*
X0203663Y0132521D02*
X0206649Y0132521D01*
X0206649Y0132893D02*
X0203663Y0132893D01*
X0203663Y0133265D02*
X0206649Y0133265D01*
X0206649Y0131299D02*
X0206649Y0129809D01*
X0203663Y0129809D01*
X0203663Y0131299D01*
X0206649Y0131299D01*
X0206649Y0130181D02*
X0203663Y0130181D01*
X0203663Y0130553D02*
X0206649Y0130553D01*
X0206649Y0130925D02*
X0203663Y0130925D01*
X0203663Y0131297D02*
X0206649Y0131297D01*
X0206649Y0129330D02*
X0206649Y0127840D01*
X0203663Y0127840D01*
X0203663Y0129330D01*
X0206649Y0129330D01*
X0206649Y0128212D02*
X0203663Y0128212D01*
X0203663Y0128584D02*
X0206649Y0128584D01*
X0206649Y0128956D02*
X0203663Y0128956D01*
X0203663Y0129328D02*
X0206649Y0129328D01*
X0206649Y0127362D02*
X0206649Y0125872D01*
X0203663Y0125872D01*
X0203663Y0127362D01*
X0206649Y0127362D01*
X0206649Y0126244D02*
X0203663Y0126244D01*
X0203663Y0126616D02*
X0206649Y0126616D01*
X0206649Y0126988D02*
X0203663Y0126988D01*
X0203663Y0127360D02*
X0206649Y0127360D01*
D30*
X0220963Y0127049D02*
X0220963Y0139963D01*
X0220963Y0127049D02*
X0208049Y0127049D01*
X0208049Y0139963D01*
X0220963Y0139963D01*
X0220963Y0127728D02*
X0208049Y0127728D01*
X0208049Y0128407D02*
X0220963Y0128407D01*
X0220963Y0129086D02*
X0208049Y0129086D01*
X0208049Y0129765D02*
X0220963Y0129765D01*
X0220963Y0130444D02*
X0208049Y0130444D01*
X0208049Y0131123D02*
X0220963Y0131123D01*
X0220963Y0131802D02*
X0208049Y0131802D01*
X0208049Y0132481D02*
X0220963Y0132481D01*
X0220963Y0133160D02*
X0208049Y0133160D01*
X0208049Y0133839D02*
X0220963Y0133839D01*
X0220963Y0134518D02*
X0208049Y0134518D01*
X0208049Y0135197D02*
X0220963Y0135197D01*
X0220963Y0135876D02*
X0208049Y0135876D01*
X0208049Y0136555D02*
X0220963Y0136555D01*
X0220963Y0137234D02*
X0208049Y0137234D01*
X0208049Y0137913D02*
X0220963Y0137913D01*
X0220963Y0138592D02*
X0208049Y0138592D01*
X0208049Y0139271D02*
X0220963Y0139271D01*
X0220963Y0139950D02*
X0208049Y0139950D01*
D31*
X0048606Y0146106D03*
X0048606Y0163506D03*
X0048606Y0180906D03*
D32*
X0188106Y0048606D03*
X0205506Y0048606D03*
X0222906Y0048606D03*
D33*
X0056506Y0055506D02*
X0050506Y0055506D01*
X0050506Y0065506D02*
X0056506Y0065506D01*
X0056506Y0075506D02*
X0050506Y0075506D01*
D34*
X0043506Y0043506D03*
X0057506Y0045506D03*
X0064506Y0052506D03*
X0071506Y0045506D03*
X0087506Y0049506D03*
X0093506Y0049506D03*
X0094506Y0043506D03*
X0090506Y0054506D03*
X0087506Y0073506D03*
X0093506Y0073506D03*
X0090506Y0078506D03*
X0096506Y0078506D03*
X0084506Y0078506D03*
X0067506Y0093506D03*
X0089506Y0101506D03*
X0095506Y0101506D03*
X0101506Y0101506D03*
X0107506Y0101506D03*
X0122506Y0108506D03*
X0126506Y0111506D03*
X0122506Y0113506D03*
X0140006Y0118006D03*
X0144006Y0115006D03*
X0139506Y0125506D03*
X0139506Y0131506D03*
X0139006Y0139506D03*
X0130506Y0134506D03*
X0130506Y0130006D03*
X0121506Y0130506D03*
X0118506Y0139506D03*
X0108506Y0139506D03*
X0103506Y0136506D03*
X0098506Y0133506D03*
X0091506Y0127506D03*
X0087506Y0123506D03*
X0082506Y0120506D03*
X0080506Y0136506D03*
X0088506Y0145506D03*
X0082506Y0154506D03*
X0075506Y0154506D03*
X0069506Y0153506D03*
X0055506Y0146006D03*
X0049506Y0146006D03*
X0043506Y0146006D03*
X0043506Y0137506D03*
X0063506Y0139506D03*
X0043506Y0154506D03*
X0043506Y0172506D03*
X0043506Y0181006D03*
X0049506Y0181006D03*
X0055506Y0181006D03*
X0043506Y0193506D03*
X0079506Y0175506D03*
X0093506Y0193506D03*
X0103506Y0179506D03*
X0115506Y0173506D03*
X0128506Y0167506D03*
X0142506Y0153506D03*
X0151506Y0156506D03*
X0152506Y0165506D03*
X0172506Y0149506D03*
X0166506Y0145506D03*
X0173506Y0143506D03*
X0188506Y0136506D03*
X0194506Y0136506D03*
X0194506Y0126506D03*
X0188506Y0126506D03*
X0173506Y0118506D03*
X0166506Y0117506D03*
X0168506Y0111506D03*
X0164506Y0105506D03*
X0185506Y0104506D03*
X0197506Y0100506D03*
X0201506Y0096506D03*
X0200506Y0107506D03*
X0206506Y0113506D03*
X0215006Y0119006D03*
X0219506Y0113506D03*
X0231506Y0122006D03*
X0240506Y0113006D03*
X0259506Y0111506D03*
X0263506Y0108506D03*
X0241506Y0094506D03*
X0256506Y0088506D03*
X0256506Y0069506D03*
X0241506Y0058506D03*
X0243506Y0043506D03*
X0223006Y0043506D03*
X0223006Y0049506D03*
X0214506Y0043506D03*
X0223006Y0055506D03*
X0213506Y0068506D03*
X0219506Y0069506D03*
X0218506Y0075506D03*
X0228506Y0074506D03*
X0228506Y0079506D03*
X0228506Y0084506D03*
X0224506Y0090006D03*
X0224006Y0094506D03*
X0197506Y0084506D03*
X0177506Y0075506D03*
X0153506Y0085506D03*
X0146506Y0067506D03*
X0127506Y0080506D03*
X0143506Y0043506D03*
X0188006Y0043506D03*
X0188006Y0049506D03*
X0188006Y0055506D03*
X0196506Y0043506D03*
X0263506Y0050506D03*
X0293506Y0043506D03*
X0293506Y0093506D03*
X0263506Y0133006D03*
X0265506Y0138506D03*
X0258006Y0140006D03*
X0238506Y0135506D03*
X0236506Y0140506D03*
X0218506Y0137506D03*
X0214506Y0137506D03*
X0214506Y0133506D03*
X0214506Y0129506D03*
X0218506Y0129506D03*
X0218506Y0133506D03*
X0210506Y0133506D03*
X0210506Y0129506D03*
X0210506Y0137506D03*
X0232506Y0157506D03*
X0212506Y0172506D03*
X0220006Y0180006D03*
X0228006Y0176006D03*
X0243506Y0193506D03*
X0264506Y0182506D03*
X0258506Y0162506D03*
X0293506Y0142506D03*
X0293506Y0193506D03*
X0201006Y0173006D03*
X0189006Y0170006D03*
X0185506Y0158506D03*
X0150006Y0126006D03*
X0122506Y0149506D03*
X0109506Y0155506D03*
X0105506Y0153506D03*
X0098506Y0154506D03*
X0055506Y0115506D03*
X0043506Y0093506D03*
X0044506Y0061506D03*
X0143506Y0193506D03*
X0193506Y0193506D03*
M02*
